SplineFontDB: 3.0
FontName: RWGaramond-Italic
FullName: RW Garamond Italic
FamilyName: RW Garamond
Weight: Italic
Copyright: RW Garamond is a modified version of URW Garamond No. 8. and GaramondX, with changes being made to support OpenType.\n(c) 2000, 2014, (URW)++ Design & Development.\n(c) 2005, Ralf Stubner. \n(c) 2009, Gael Varoquaux.\n(c) 2012-2017, Michael Sharpe.\n(c) 2019, Daniel Benjamin Miller.\nUsage of this font is subject to the Aladdin Free Public License.
Version: 1.00
ItalicAngle: -16
UnderlinePosition: -960
UnderlineWidth: 196
Ascent: 1510
Descent: 538
InvalidEm: 0
LayerCount: 2
Layer: 0 0 "Back" 1
Layer: 1 0 "Fore" 0
FSType: 0
OS2Version: 0
OS2_WeightWidthSlopeOnly: 0
OS2_UseTypoMetrics: 0
CreationTime: 1482004918
ModificationTime: 1556617210
PfmFamily: 17
TTFWeight: 400
TTFWidth: 5
LineGap: 184
VLineGap: 0
OS2TypoAscent: 0
OS2TypoAOffset: 1
OS2TypoDescent: 0
OS2TypoDOffset: 1
OS2TypoLinegap: 184
OS2WinAscent: 0
OS2WinAOffset: 1
OS2WinDescent: 0
OS2WinDOffset: 1
HheadAscent: 0
HheadAOffset: 1
HheadDescent: 0
HheadDOffset: 1
OS2Vendor: 'PfEd'
Lookup: 1 0 0 "supsSuperscriptlookup" { "supsSuperscriptlookup subtable" ("superior") } ['sups' ('latn' <'dflt' > 'grek' <'dflt' > 'DFLT' <'dflt' > ) ]
Lookup: 1 0 0 "smcpLowercasetoSmallCapitalslookup" { "smcpLowercasetoSmallCapitalslookup subtable"  } ['smcp' ('latn' <'dflt' > 'grek' <'dflt' > 'DFLT' <'dflt' > ) ]
Lookup: 1 0 0 "swshSwashlookup" { "swshSwashlookup subtable" ("swash") } ['swsh' ('latn' <'dflt' > 'grek' <'dflt' > 'DFLT' <'dflt' > ) ]
Lookup: 1 0 0 "cv01CharacterVariants01" { "cv01CharacterVariants01 subtable"  } ['cv01' ('latn' <'dflt' > 'grek' <'dflt' > 'DFLT' <'dflt' > ) ]
Lookup: 1 0 0 "cv02CharacterVariants02" { "cv02CharacterVariants02 subtable"  } ['cv02' ('latn' <'dflt' > 'grek' <'dflt' > 'DFLT' <'dflt' > ) ]
Lookup: 1 0 0 "cv03CharacterVariants03" { "cv03CharacterVariants03 subtable"  } ['cv03' ('latn' <'dflt' > 'grek' <'dflt' > 'DFLT' <'dflt' > ) ]

StartChar: exclam
Encoding: 33 33 1
Width: 491
GlyphClass: 2
Flags: HW
HStem: -35 244<127 159> 1382 41G<506 558>
VStem: 35 219<67 108> 195 70<364 391>
LayerCount: 2
Fore
SplineSet
201 393 m 1xd0
 272 672 l 2
 286 727 281 699 293 758 c 0
 305 817 316 875 326 932 c 0
 369 1163 389 1256 412 1313 c 0
 441 1389 479 1423 532 1423 c 0
 583 1423 616 1390 616 1337 c 0
 616 1265 610 1247 440 846 c 1
 264 391 l 2
 248 352 246 348 238 350 c 2
 223 352 l 1
 213 354 l 2
 199 356 195 361 195 367 c 0
 195 369 195 373 197 377 c 2
 201 393 l 1xd0
164 209 m 0
 217 209 254 166 254 109 c 0
 254 25 197 -35 121 -35 c 0
 66 -35 35 2 35 68 c 0xe0
 35 148 90 209 164 209 c 0
EndSplineSet
EndChar

StartChar: quotedbl
Encoding: 34 34 2
Width: 868
GlyphClass: 2
Flags: HMW
HStem: 911 530<410 601 416 601 565 713 565 739>
VStem: 449 203<1294 1395> 745 203<1294 1396>
LayerCount: 2
Fore
SplineSet
403 952 m 2
 449 1294 l 2
 457 1353 466 1376 489 1401 c 0
 516 1428 549 1442 582 1442 c 0
 621 1442 651 1413 651 1376 c 0
 651 1356 645 1337 627 1294 c 2
 471 934 l 2
 465 918 454 911 442 911 c 2
 416 911 l 2
 404 911 399 916 399 928 c 0
 399 932 399 932 403 952 c 2
698 952 m 2
 745 1294 l 2
 753 1353 761 1376 786 1401 c 0
 813 1428 846 1442 879 1442 c 0
 918 1442 948 1413 948 1378 c 0
 948 1358 942 1339 924 1294 c 2
 768 934 l 2
 760 918 751 911 739 911 c 2
 713 911 l 2
 699 911 694 916 694 928 c 0
 694 932 694 932 698 952 c 2
EndSplineSet
EndChar

StartChar: numbersign
Encoding: 35 35 3
Width: 983
GlyphClass: 2
Flags: HMW
HStem: -31 43G<127 131 131 180 472 477 477 524> 451 131<115 299 164 258 164 350 391 608 737 834> 754 158<212 401 268 352 268 444 494 705 842 915>
VStem: 463 90<-10 -10 -10 -4 -10 -4>
LayerCount: 2
Fore
SplineSet
258 451 m 1
 123 451 l 2
 107 451 100 455 100 465 c 0
 100 469 102 475 104 481 c 2
 127 555 l 2
 133 575 141 582 164 582 c 2
 299 582 l 1
 352 754 l 1
 219 754 l 2
 205 754 197 762 197 774 c 0
 197 778 199 785 201 791 c 2
 227 881 l 2
 235 906 243 911 268 911 c 2
 401 911 l 1
 535 1335 l 2
 539 1349 543 1354 555 1354 c 2
 614 1354 l 2
 620 1354 629 1345 629 1339 c 2
 629 1339 627 1335 627 1329 c 2
 494 911 l 1
 754 911 l 1
 891 1337 l 2
 895 1349 897 1352 909 1352 c 2
 963 1354 l 2
 971 1354 977 1347 977 1341 c 0
 977 1339 975 1333 973 1325 c 2
 842 911 l 1
 954 911 l 2
 985 911 995 907 995 893 c 0
 995 889 995 885 993 881 c 2
 967 791 l 2
 957 760 948 754 915 754 c 2
 793 754 l 1
 737 582 l 1
 860 582 l 2
 889 582 895 579 895 567 c 0
 895 565 895 565 889 547 c 2
 864 469 l 2
 860 453 857 451 834 451 c 2
 696 451 l 1
 553 -10 l 2
 549 -26 542 -31 524 -31 c 2
 477 -31 l 2
 467 -31 463 -24 463 -14 c 2
 463 -4 l 1
 608 451 l 1
 350 451 l 1
 203 -20 l 2
 201 -26 192 -31 180 -31 c 2
 131 -31 l 2
 123 -31 115 -24 115 -16 c 0
 115 -10 115 -6 117 -2 c 2
 258 451 l 1
391 582 m 1
 649 582 l 1
 705 754 l 1
 444 754 l 1
 391 582 l 1
EndSplineSet
EndChar

StartChar: dollar
Encoding: 36 36 4
Width: 980
GlyphClass: 2
Flags: HW
HStem: -16 82<438 512 438 529>
VStem: 106 158<233 299> 313 143<1054 1085> 686 143<287 348> 821 172
LayerCount: 2
Fore
SplineSet
375 -14 m 1xf0
 338 -147 l 2
 332 -167 327 -172 313 -172 c 2
 279 -172 l 2
 271 -172 264 -168 264 -162 c 0
 264 -160 266 -151 268 -139 c 2
 307 -6 l 1
 188 33 106 150 106 281 c 0
 106 349 144 397 195 397 c 0
 240 397 262 365 264 299 c 0
 264 168 277 135 334 92 c 1
 494 668 l 1
 444 737 l 1
 422 770 l 2
 336 889 313 942 313 1028 c 0
 313 1143 375 1249 479 1319 c 0
 547 1362 594 1376 690 1382 c 1
 721 1489 l 2
 725 1501 729 1505 743 1505 c 2
 776 1505 l 2
 788 1505 793 1501 793 1495 c 0
 793 1491 793 1487 791 1483 c 2
 762 1374 l 1
 846 1354 887 1329 934 1280 c 0
 971 1237 993 1190 993 1149 c 0
 993 1100 952 1061 901 1061 c 0
 852 1061 829 1087 821 1159 c 0xe8
 813 1227 796 1251 737 1290 c 1
 604 807 l 1
 797 563 829 504 829 391 c 0
 829 182 633 -16 426 -16 c 0
 403 -16 398 -16 375 -14 c 1xf0
545 600 m 1
 397 68 l 1
 415 66 432 66 444 66 c 0
 579 66 686 172 686 307 c 0xf0
 686 389 672 422 545 600 c 1
547 864 m 1
 668 1300 l 1
 596 1292 563 1280 526 1247 c 0
 481 1208 457 1151 457 1090 c 0
 457 1018 477 964 547 864 c 1
EndSplineSet
EndChar

StartChar: percent
Encoding: 37 37 5
Width: 1585
GlyphClass: 2
Flags: HW
HStem: -14 66<1085 1180 1085 1219> 621 66<1200 1290> 676 66<411 504 411 547> 1317 66<526 615>
VStem: 201 137<876 1005 858 1061> 248 115<-55 -55> 694 137<1052 1187 1001 1200> 874 137<185 311 166 368> 1356 111<1391 1391> 1370 137<357 493 307 504>
LayerCount: 2
Fore
SplineSet
1356 1391 m 1x9780
 1466 1391 l 1
 362 -55 l 1
 248 -55 l 1
 1356 1391 l 1x9780
1272 686 m 0xd340
 1401 686 1507 565 1507 420 c 0
 1507 195 1319 -14 1118 -14 c 0
 981 -14 874 106 874 264 c 0
 874 471 1077 686 1272 686 c 0xd340
1257 621 m 0
 1142 621 1012 405 1012 217 c 0
 1012 115 1052 51 1118 51 c 0
 1241 51 1370 258 1370 457 c 0
 1370 551 1323 621 1257 621 c 0
596 1382 m 0
 725 1382 831 1262 831 1112 c 0
 831 891 644 676 451 676 c 0
 308 676 201 794 201 956 c 0xbb
 201 1165 403 1382 596 1382 c 0
584 1317 m 0
 469 1317 338 1099 338 909 c 0
 338 807 379 741 442 741 c 0
 565 741 694 950 694 1153 c 0
 694 1247 647 1317 584 1317 c 0
EndSplineSet
Substitution2: "cv04CharacterVariants04 subtable" percent.cv01
EndChar

StartChar: ampersand
Encoding: 38 38 6
Width: 1396
GlyphClass: 2
Flags: HMW
HStem: -41 117<553 703 553 758> 641 119 852 152<750 765> 1382 68<705 796>
VStem: 98 162<367 515> 387 152<1102 1204 1102 1209> 1047 66<332 401>
LayerCount: 2
Fore
SplineSet
983 514 m 1
 737 412 l 2
 721 404 713 401 707 401 c 0
 701 401 696 404 692 414 c 2
 670 455 l 2
 666 463 666 463 666 467 c 0
 666 471 666 471 680 475 c 2
 1008 598 l 2
 1133 645 1241 692 1333 739 c 0
 1370 757 1374 760 1382 760 c 0
 1392 760 1399 749 1401 731 c 2
 1409 684 l 2
 1411 670 1411 670 1411 666 c 0
 1411 654 1405 649 1378 641 c 0
 1222 594 1122 563 1081 549 c 2
 1051 539 l 1
 1098 476 1112 439 1112 367 c 0
 1112 142 893 -41 623 -41 c 0
 334 -41 98 172 98 432 c 0
 98 598 179 742 326 842 c 0
 373 875 414 895 502 928 c 1
 412 1004 387 1046 387 1124 c 0
 387 1294 582 1450 797 1450 c 0
 944 1450 1049 1388 1049 1300 c 0
 1049 1265 1022 1241 985 1241 c 0
 952 1241 932 1255 903 1292 c 0
 848 1364 821 1382 770 1382 c 0
 639 1382 539 1276 539 1133 c 0
 539 1072 557 1030 612 967 c 1
 684 996 721 1004 778 1004 c 0
 850 1004 891 981 891 942 c 0
 891 893 811 852 719 852 c 0
 672 852 641 860 575 891 c 1
 374 809 260 659 260 473 c 0
 260 260 445 76 662 76 c 0
 746 76 850 109 926 160 c 0
 1002 211 1047 291 1047 373 c 0
 1047 430 1028 471 983 514 c 1
EndSplineSet
EndChar

StartChar: quoteright
Encoding: 8217 8217 7
Width: 491
GlyphClass: 2
Flags: HMW
HStem: 881 68 1382 41G<384 458>
VStem: 459 131<1134 1166>
LayerCount: 2
Fore
SplineSet
233 934 m 2
 233 948 l 1
 378 981 459 1049 459 1141 c 0
 459 1192 446 1209 356 1264 c 0
 325 1282 311 1302 311 1331 c 0
 311 1382 357 1423 412 1423 c 0
 504 1423 590 1327 590 1223 c 0
 590 1045 443 899 244 881 c 1
 238 895 233 916 233 934 c 2
EndSplineSet
EndChar

StartChar: parenleft
Encoding: 40 40 8
Width: 491
GlyphClass: 2
Flags: HMW
VStem: 35 121<-42 113 -118 231>
LayerCount: 2
Fore
SplineSet
223 -508 m 2
 195 -518 l 2
 191 -520 180 -522 174 -522 c 0
 166 -522 158 -514 150 -498 c 2
 139 -477 l 2
 76 -344 35 -133 35 49 c 0
 35 414 168 837 385 1163 c 0
 481 1306 576 1407 709 1507 c 0
 779 1562 803 1577 815 1577 c 0
 823 1577 831 1567 829 1561 c 2
 827 1556 l 1
 823 1530 l 2
 819 1503 819 1503 809 1491 c 2
 764 1448 l 2
 627 1325 508 1155 385 901 c 0
 238 594 156 262 156 -37 c 0
 156 -199 180 -352 223 -469 c 0
 227 -479 229 -490 229 -496 c 0
 229 -502 227 -506 223 -508 c 2
EndSplineSet
EndChar

StartChar: parenright
Encoding: 41 41 9
Width: 491
GlyphClass: 2
Flags: HMW
VStem: 399 121<943 1097 823 1176>
LayerCount: 2
Fore
SplineSet
334 1563 m 2
 360 1573 l 2
 366 1575 375 1577 383 1577 c 0
 391 1577 398 1568 406 1552 c 2
 416 1530 l 2
 477 1405 520 1188 520 1006 c 0
 520 641 387 217 170 -109 c 0
 74 -252 -21 -355 -150 -453 c 0
 -222 -508 -246 -522 -258 -522 c 0
 -266 -522 -274 -512 -272 -504 c 2
 -268 -475 l 1
 -264 -453 l 2
 -258 -441 -254 -436 -209 -395 c 0
 -70 -268 47 -102 170 154 c 0
 320 461 399 791 399 1096 c 0
 399 1256 377 1397 334 1522 c 0
 330 1534 328 1544 328 1550 c 0
 328 1556 330 1561 334 1563 c 2
EndSplineSet
EndChar

StartChar: asterisk
Encoding: 42 42 10
Width: 983
GlyphClass: 2
Flags: HW
HStem: 780 178 938 152<987 1031> 1382 41G<751 792>
VStem: 672 160<672 846> 676 186 707 156
LayerCount: 2
Fore
SplineSet
1012 1090 m 0x60
 1051 1090 1071 1065 1071 1020 c 0
 1071 967 1051 938 1012 938 c 0
 963 938 864 967 772 1008 c 0
 752 1016 743 1024 743 1032 c 0
 743 1042 751 1049 774 1053 c 0
 917 1084 959 1090 1012 1090 c 0x60
768 1423 m 0
 815 1423 862 1391 862 1356 c 0
 862 1319 813 1241 731 1145 c 0
 706 1116 700 1110 690 1110 c 0
 680 1110 676 1116 676 1130 c 0x28
 676 1163 697 1311 707 1352 c 0x24
 721 1409 733 1423 768 1423 c 0
408 1331 m 0
 441 1331 481 1292 547 1196 c 0
 586 1139 604 1108 604 1096 c 0
 604 1088 598 1081 590 1081 c 0
 582 1081 539 1100 461 1137 c 0
 355 1188 326 1210 326 1243 c 0
 326 1280 373 1331 408 1331 c 0
575 1004 m 0
 585 1004 594 997 594 989 c 0
 594 981 590 975 545 926 c 0
 441 815 402 780 373 780 c 0
 338 780 295 831 295 872 c 0
 295 905 330 931 410 958 c 0xa0
 473 981 557 1004 575 1004 c 0
696 950 m 0
 704 950 709 944 721 926 c 0
 793 803 831 719 831 688 c 0
 831 655 788 627 739 627 c 0
 690 627 672 669 672 778 c 0x30
 672 913 678 950 696 950 c 0
EndSplineSet
EndChar

StartChar: plus
Encoding: 43 43 11
Width: 1585
GlyphClass: 2
Flags: HMW
HStem: -20 43G<764 772 772 858> 438 131<308 750 317 750 881 1315>
VStem: 750 131<8 438 569 997>
LayerCount: 2
Fore
SplineSet
881 569 m 1
 1315 569 l 2
 1333 569 1339 563 1339 545 c 2
 1339 463 l 2
 1339 445 1333 438 1315 438 c 2
 881 438 l 1
 881 8 l 2
 881 -12 874 -20 858 -20 c 2
 772 -20 l 2
 756 -20 750 -12 750 8 c 2
 750 438 l 1
 317 438 l 2
 299 438 293 445 293 463 c 2
 293 545 l 2
 293 563 299 569 317 569 c 2
 750 569 l 1
 750 997 l 2
 750 1017 756 1026 772 1026 c 2
 858 1026 l 2
 874 1026 881 1017 881 997 c 2
 881 569 l 1
EndSplineSet
EndChar

StartChar: comma
Encoding: 44 44 12
Width: 491
GlyphClass: 2
Flags: HMW
HStem: -299 68
VStem: 209 131<-46 -12>
LayerCount: 2
Fore
SplineSet
-16 -246 m 2
 -16 -231 l 1
 127 -200 209 -131 209 -37 c 0
 209 12 196 27 106 84 c 0
 75 102 61 123 61 150 c 0
 61 203 107 244 162 244 c 0
 254 244 340 145 340 43 c 0
 340 -135 189 -283 -6 -299 c 1
 -12 -285 -16 -264 -16 -246 c 2
EndSplineSet
EndChar

StartChar: hyphen
Encoding: 45 45 13
Width: 491
GlyphClass: 2
Flags: HMW
HStem: 426 119<106 385 184 326>
VStem: 88 336<431 539>
LayerCount: 2
Fore
SplineSet
184 545 m 2
 385 545 l 2
 420 545 424 543 424 535 c 0
 424 531 424 531 416 506 c 2
 399 465 l 2
 383 426 383 426 326 426 c 2
 119 426 l 2
 94 426 88 428 88 434 c 0
 88 440 88 440 98 463 c 2
 125 520 l 2
 135 545 135 545 184 545 c 2
EndSplineSet
EndChar

StartChar: period
Encoding: 46 46 14
Width: 491
GlyphClass: 2
Flags: HMW
HStem: -31 262<126 181>
VStem: 35 236<70 134>
LayerCount: 2
Fore
SplineSet
162 231 m 0
 228 231 270 183 270 109 c 0
 270 31 217 -31 145 -31 c 0
 77 -31 35 18 35 96 c 0
 35 172 90 231 162 231 c 0
EndSplineSet
EndChar

StartChar: slash
Encoding: 47 47 15
Width: 1019
GlyphClass: 2
Flags: HMW
VStem: -16 113<-123 -123> 1155 125<1481 1481>
LayerCount: 2
Fore
SplineSet
1155 1481 m 1
 1280 1481 l 1
 96 -123 l 1
 -16 -123 l 1
 1155 1481 l 1
EndSplineSet
EndChar

StartChar: zero
Encoding: 48 48 16
Width: 980
GlyphClass: 2
Flags: HMW
HStem: -16 160<430 467> 1214 160<653 696>
VStem: 127 94<429 467> 903 96<884 930>
LayerCount: 2
Fore
SplineSet
698 1374 m 0
 772 1374 836 1349 891 1296 c 0
 916 1271 936 1246 948 1219 c 0
 983 1145 999 1065 999 975 c 0
 999 793 963 606 887 424 c 0
 819 262 739 146 649 70 c 0
 579 13 506 -16 428 -16 c 0
 352 -16 286 10 233 63 c 0
 161 135 127 248 127 410 c 0
 127 525 150 656 193 799 c 0
 252 998 334 1147 438 1251 c 0
 522 1335 608 1374 698 1374 c 0
659 1214 m 0
 583 1214 518 1185 459 1130 c 0
 383 1060 321 954 276 811 c 0
 239 694 221 587 221 489 c 0
 221 368 246 280 291 223 c 0
 334 170 393 143 467 143 c 0
 543 143 611 172 670 227 c 0
 746 299 805 406 850 547 c 0
 887 660 903 768 903 870 c 0
 903 989 881 1080 836 1135 c 0
 793 1188 733 1214 659 1214 c 0
EndSplineSet
Substitution2: "onumOldstyleFigureslookup subtable" zero.onum
Substitution2: "supsSuperscriptlookup subtable" zerosuperior
EndChar

StartChar: one
Encoding: 49 49 17
Width: 980
GlyphClass: 2
Flags: HMW
HStem: -10 55<170 184 170 690> 1321 41G<823 854 854 864>
LayerCount: 2
Fore
SplineSet
676 1184 m 1
 608 1151 565 1128 545 1120 c 0
 482 1091 444 1073 438 1071 c 0
 418 1061 407 1059 403 1059 c 0
 397 1059 391 1055 389 1055 c 2
 387 1055 l 1
 385 1055 l 2
 383 1055 381 1059 381 1061 c 2
 383 1073 l 1
 385 1098 l 2
 385 1106 389 1112 391 1114 c 0
 393 1116 412 1127 451 1143 c 0
 490 1157 539 1182 598 1217 c 0
 666 1258 715 1294 752 1325 c 0
 781 1350 803 1362 823 1362 c 2
 854 1362 l 2
 874 1362 883 1358 883 1350 c 0
 883 1346 881 1337 877 1325 c 2
 569 240 l 2
 551 168 541 127 541 119 c 0
 541 103 547 88 559 78 c 0
 584 58 625 47 678 47 c 0
 711 47 725 43 725 39 c 2
 725 33 l 1
 725 27 l 1
 721 4 l 2
 719 -6 706 -10 690 -10 c 2
 184 -10 l 2
 166 -10 156 -8 156 -4 c 0
 156 -2 158 4 158 10 c 2
 162 33 l 2
 162 39 168 43 170 45 c 0
 172 45 186 49 215 49 c 0
 283 51 327 71 352 104 c 0
 368 124 391 185 420 281 c 2
 676 1184 l 1
EndSplineSet
Substitution2: "onumOldstyleFigureslookup subtable" one.onum
Substitution2: "cv01CharacterVariants01 subtable" one.cv01
Substitution2: "supsSuperscriptlookup subtable" onesuperior
EndChar

StartChar: two
Encoding: 50 50 18
Width: 980
GlyphClass: 2
Flags: HMW
HStem: 0 154<295 809> 1223 150<589 599>
VStem: 750 176<1012 1032>
LayerCount: 2
Fore
SplineSet
90 0 m 1
 90 55 l 1
 170 125 258 209 354 309 c 0
 504 463 607 590 662 690 c 0
 721 796 750 899 750 997 c 0
 750 1067 733 1120 700 1161 c 0
 667 1202 626 1223 571 1223 c 0
 497 1223 428 1198 358 1151 c 0
 344 1141 313 1114 266 1069 c 0
 264 1067 260 1065 258 1065 c 0
 256 1065 250 1067 246 1071 c 2
 227 1087 l 2
 219 1093 215 1100 215 1104 c 0
 215 1112 229 1128 256 1157 c 0
 391 1300 524 1372 653 1372 c 0
 735 1372 799 1345 848 1292 c 0
 901 1235 926 1155 926 1055 c 0
 926 969 903 881 860 793 c 0
 790 656 665 506 487 338 c 0
 374 232 311 170 295 154 c 1
 899 154 l 1
 809 0 l 1
 90 0 l 1
EndSplineSet
Substitution2: "onumOldstyleFigureslookup subtable" two.onum
Substitution2: "supsSuperscriptlookup subtable" twosuperior
EndChar

StartChar: three
Encoding: 51 51 19
Width: 980
GlyphClass: 2
Flags: HW
HStem: -16 119<152 329> 1257 117<562 703>
VStem: 668 190<507 562> 756 172<1059 1194>
LayerCount: 2
Fore
SplineSet
662 834 m 1xd0
 715 803 753 775 784 748 c 0
 821 715 844 678 850 637 c 0
 854 610 858 582 858 553 c 0
 858 406 793 280 664 178 c 0
 596 125 516 80 426 41 c 0
 334 2 252 -16 178 -16 c 0
 125 -16 80 -7 43 16 c 0
 12 36 -2 68 -2 109 c 0
 -2 136 4 158 18 174 c 0
 32 192 53 203 78 203 c 0
 111 203 145 184 184 147 c 0
 207 127 226 113 240 109 c 0
 254 105 271 102 291 102 c 0
 367 102 435 127 496 180 c 0
 543 221 581 274 616 342 c 0
 651 412 668 478 668 537 c 0xe0
 668 588 649 633 612 670 c 0
 575 709 534 727 489 727 c 0
 479 727 459 723 432 713 c 0
 426 711 422 709 422 709 c 2
 418 709 416 715 414 723 c 2
 410 737 l 1
 410 741 l 2
 410 749 416 762 430 768 c 0
 489 799 545 831 590 864 c 0
 701 942 756 1020 756 1098 c 0
 756 1143 742 1179 711 1210 c 0
 680 1243 639 1257 588 1257 c 0
 537 1257 489 1241 446 1210 c 0
 436 1202 414 1184 379 1149 c 0
 373 1143 369 1139 367 1139 c 2
 367 1139 362 1141 356 1145 c 2
 338 1155 l 2
 330 1161 326 1167 326 1171 c 0
 326 1175 337 1192 360 1223 c 0
 391 1266 432 1298 481 1325 c 0
 540 1358 603 1374 666 1374 c 0
 742 1374 803 1356 854 1317 c 0
 903 1278 928 1227 928 1161 c 0
 928 1108 914 1063 883 1024 c 0
 840 967 766 904 662 834 c 1xd0
EndSplineSet
Substitution2: "onumOldstyleFigureslookup subtable" three.onum
Substitution2: "supsSuperscriptlookup subtable" threesuperior
EndChar

StartChar: four
Encoding: 52 52 20
Width: 980
GlyphClass: 2
Flags: HMW
HStem: 0 43G<459 489 459 547> 412 119<262 285 285 561 743 930 930 938> 1333 41G<922 942 942 952>
LayerCount: 2
Fore
SplineSet
938 412 m 1
 707 412 l 1
 600 45 l 2
 594 22 588 6 584 4 c 0
 580 2 567 0 547 0 c 2
 489 0 l 2
 464 0 453 6 453 12 c 2
 455 23 l 1
 459 43 l 1
 561 412 l 1
 143 412 l 2
 114 412 98 414 94 416 c 0
 90 418 88 426 88 436 c 2
 88 485 l 2
 88 499 92 510 94 516 c 0
 96 518 108 532 131 557 c 2
 864 1335 l 2
 884 1353 897 1366 899 1368 c 0
 903 1372 914 1374 922 1374 c 2
 942 1374 l 2
 962 1374 973 1368 973 1358 c 0
 973 1354 969 1341 963 1321 c 2
 743 530 l 1
 930 530 l 2
 955 530 967 526 967 520 c 0
 967 518 964 506 958 483 c 2
 938 412 l 1
594 530 m 1
 764 1094 l 2
 766 1110 768 1122 768 1126 c 2
 770 1133 l 2
 770 1135 768 1137 766 1137 c 0
 764 1137 755 1130 745 1120 c 2
 287 612 l 2
 256 577 240 557 240 547 c 0
 240 537 248 530 262 530 c 2
 285 530 l 1
 594 530 l 1
EndSplineSet
Substitution2: "onumOldstyleFigureslookup subtable" four.onum
Substitution2: "supsSuperscriptlookup subtable" foursuperior
EndChar

StartChar: five
Encoding: 53 53 21
Width: 980
GlyphClass: 2
Flags: HMW
HStem: -6 43G<140 151> 1217 141<589 610 610 809>
VStem: 326 164<992 1143> 641 188<561 636>
LayerCount: 2
Fore
SplineSet
575 1358 m 2
 903 1358 l 2
 930 1358 942 1354 942 1350 c 0
 942 1348 940 1339 932 1329 c 2
 874 1245 l 2
 864 1231 858 1221 852 1219 c 0
 848 1217 832 1217 809 1217 c 2
 610 1217 l 2
 567 1217 538 1208 524 1198 c 0
 501 1182 489 1157 489 1128 c 0
 489 1108 500 1085 520 1067 c 0
 524 1063 551 1043 598 1004 c 0
 684 932 741 866 774 807 c 0
 811 741 829 674 829 606 c 0
 829 491 776 385 670 285 c 0
 607 226 514 164 391 98 c 0
 348 75 297 52 244 29 c 0
 189 6 155 -6 145 -6 c 0
 135 -6 129 0 125 12 c 2
 117 33 l 2
 115 39 113 45 113 47 c 0
 113 55 124 70 147 80 c 0
 235 125 317 174 393 223 c 0
 465 272 524 329 573 397 c 0
 618 458 641 524 641 598 c 0
 641 674 604 749 528 823 c 0
 491 860 439 903 367 952 c 0
 340 970 326 987 326 997 c 0
 326 1001 336 1018 354 1051 c 2
 506 1323 l 2
 516 1341 526 1354 530 1356 c 0
 534 1358 548 1358 575 1358 c 2
EndSplineSet
Substitution2: "onumOldstyleFigureslookup subtable" five.onum
Substitution2: "supsSuperscriptlookup subtable" fivesuperior
EndChar

StartChar: six
Encoding: 54 54 22
Width: 980
GlyphClass: 2
Flags: HMW
HStem: -27 68<438 507 438 523> 635 92<575 589> 1298 63
VStem: 111 172<303 338 241 474> 756 186<371 451>
LayerCount: 2
Fore
SplineSet
315 571 m 1
 409 675 516 727 635 727 c 0
 727 727 801 700 860 647 c 0
 915 598 942 524 942 430 c 0
 942 299 891 188 791 100 c 0
 695 14 586 -27 461 -27 c 0
 361 -27 275 10 207 84 c 0
 141 156 111 245 111 360 c 0
 111 587 197 793 367 977 c 0
 510 1131 713 1253 971 1343 c 0
 1006 1355 1028 1362 1036 1362 c 0
 1046 1362 1053 1356 1053 1346 c 2
 1053 1325 l 2
 1053 1319 1051 1313 1049 1311 c 0
 1047 1309 1036 1302 1026 1298 c 0
 897 1243 791 1182 705 1116 c 0
 566 1010 455 883 377 731 c 0
 350 674 327 620 315 571 c 1
561 635 m 0
 489 635 428 608 375 553 c 0
 314 490 283 398 283 279 c 0
 283 203 299 145 332 104 c 0
 365 61 410 41 467 41 c 0
 547 41 611 75 662 145 c 0
 725 231 756 322 756 420 c 0
 756 481 737 532 700 573 c 0
 663 614 616 635 561 635 c 0
EndSplineSet
Substitution2: "onumOldstyleFigureslookup subtable" six.onum
Substitution2: "supsSuperscriptlookup subtable" sixsuperior
EndChar

StartChar: seven
Encoding: 55 55 23
Width: 980
GlyphClass: 2
Flags: HMW
HStem: -4 43G<280 283> 1206 152<312 1065 426 797>
LayerCount: 2
Fore
SplineSet
426 1358 m 2
 1065 1358 l 2
 1090 1358 1106 1356 1110 1352 c 0
 1114 1350 1114 1345 1114 1341 c 0
 1114 1331 1104 1309 1081 1272 c 0
 1077 1264 1057 1230 1018 1171 c 2
 301 18 l 2
 293 4 285 -4 281 -4 c 0
 279 -4 270 0 256 4 c 2
 186 27 l 2
 176 29 170 35 170 39 c 0
 170 41 176 54 186 68 c 2
 852 1118 l 2
 870 1149 881 1170 881 1180 c 0
 881 1188 872 1196 862 1200 c 0
 854 1204 832 1206 797 1206 c 2
 326 1206 l 2
 299 1206 283 1208 281 1208 c 0
 279 1208 276 1213 276 1217 c 0
 276 1221 281 1233 291 1249 c 2
 336 1325 l 2
 344 1339 352 1350 360 1354 c 0
 366 1356 389 1358 426 1358 c 2
EndSplineSet
Substitution2: "onumOldstyleFigureslookup subtable" seven.onum
Substitution2: "supsSuperscriptlookup subtable" sevensuperior
EndChar

StartChar: eight
Encoding: 56 56 24
Width: 980
GlyphClass: 2
Flags: HMW
HStem: -16 66<410 465 410 492> 1309 66<648 694>
VStem: 111 141<242 287 230 314> 299 160<1007 1012> 670 170<325 351> 856 152<1055 1108>
LayerCount: 2
Fore
SplineSet
451 682 m 1
 414 717 385 747 367 776 c 0
 322 839 299 907 299 977 c 0
 299 1047 315 1116 352 1186 c 0
 389 1256 440 1304 512 1337 c 0
 565 1362 621 1374 676 1374 c 0
 774 1374 856 1343 922 1280 c 0
 979 1225 1008 1157 1008 1077 c 0
 1008 995 977 925 918 864 c 0
 865 811 786 753 682 696 c 1
 786 596 840 490 840 375 c 0
 840 275 801 184 723 104 c 0
 643 22 547 -16 436 -16 c 0
 332 -16 247 16 184 82 c 0
 135 133 111 201 111 283 c 0
 111 346 125 404 154 457 c 0
 193 529 293 604 451 682 c 1
627 745 m 2
 631 745 635 748 639 750 c 0
 670 762 696 780 725 805 c 0
 766 842 798 885 823 936 c 0
 846 985 856 1032 856 1077 c 0
 856 1138 840 1190 805 1237 c 0
 770 1284 723 1309 666 1309 c 0
 611 1309 563 1286 526 1241 c 0
 481 1186 459 1123 459 1047 c 0
 459 967 489 889 555 815 c 0
 569 799 587 780 610 760 c 0
 620 750 627 745 627 745 c 2
506 631 m 1
 492 625 l 2
 459 609 431 589 406 571 c 0
 357 530 320 481 291 422 c 0
 264 369 252 313 252 260 c 0
 252 201 268 150 305 109 c 0
 342 68 385 49 434 49 c 0
 495 49 549 76 596 129 c 0
 619 154 635 184 647 217 c 0
 661 254 670 284 670 313 c 0
 670 389 641 465 586 543 c 0
 572 563 551 585 528 608 c 2
 506 631 l 1
EndSplineSet
Substitution2: "onumOldstyleFigureslookup subtable" eight.onum
Substitution2: "supsSuperscriptlookup subtable" eightsuperior
EndChar

StartChar: nine
Encoding: 57 57 25
Width: 980
GlyphClass: 2
Flags: HMW
HStem: -4 43G<122 139> 631 92<556 569> 1319 66<656 701>
VStem: 219 186<906 986 906 992> 844 172<1018 1056 896 1115>
LayerCount: 2
Fore
SplineSet
829 786 m 1
 735 682 627 631 512 631 c 0
 457 631 405 643 356 668 c 0
 266 715 219 801 219 926 c 0
 219 1059 269 1169 365 1257 c 0
 410 1298 461 1331 520 1354 c 0
 575 1374 629 1384 684 1384 c 0
 778 1384 861 1350 924 1276 c 0
 985 1204 1016 1112 1016 999 c 0
 1016 792 948 602 813 432 c 0
 692 280 531 160 322 66 c 0
 218 19 152 -4 127 -4 c 0
 117 -4 111 0 111 12 c 2
 111 33 l 2
 111 45 119 55 135 63 c 0
 143 67 166 78 195 94 c 0
 281 139 342 176 379 199 c 0
 520 289 641 411 737 571 c 0
 780 643 811 714 829 786 c 1
676 1319 m 0
 602 1319 543 1282 494 1212 c 0
 435 1126 406 1036 406 936 c 0
 406 877 422 825 457 782 c 0
 490 741 531 723 582 723 c 0
 652 723 711 750 758 805 c 0
 815 871 844 960 844 1075 c 0
 844 1155 830 1212 801 1253 c 0
 770 1296 727 1319 676 1319 c 0
EndSplineSet
Substitution2: "onumOldstyleFigureslookup subtable" nine.onum
Substitution2: "supsSuperscriptlookup subtable" ninesuperior
EndChar

StartChar: colon
Encoding: 58 58 26
Width: 491
GlyphClass: 2
Flags: HW
HStem: -31 262<126 181> 645 262<327 382>
VStem: 35 236<70 134> 236 236<745 810>
LayerCount: 2
Fore
SplineSet
162 231 m 0xe0
 228 231 270 183 270 109 c 0
 270 31 217 -31 145 -31 c 0
 77 -31 35 18 35 96 c 0
 35 172 90 231 162 231 c 0xe0
362 907 m 0
 428 907 471 858 471 784 c 0
 471 706 418 645 346 645 c 0
 278 645 236 694 236 772 c 0xd0
 236 848 290 907 362 907 c 0
EndSplineSet
EndChar

StartChar: semicolon
Encoding: 59 59 27
Width: 491
GlyphClass: 2
Flags: HW
HStem: -299 68 645 262<342 397>
VStem: 205 131<-46 -12> 250 238<745 810>
LayerCount: 2
Fore
SplineSet
-20 -246 m 2xe0
 -20 -231 l 1
 123 -200 205 -131 205 -37 c 0
 205 12 192 27 102 84 c 0
 71 102 57 123 57 150 c 0
 57 203 103 244 158 244 c 0
 250 244 336 145 336 43 c 0
 336 -135 185 -283 -10 -299 c 1
 -16 -285 -20 -264 -20 -246 c 2xe0
379 907 m 0
 445 907 487 858 487 784 c 0
 487 706 432 645 362 645 c 0
 294 645 250 696 250 772 c 0xd0
 250 848 305 907 379 907 c 0
EndSplineSet
EndChar

StartChar: less
Encoding: 60 60 28
Width: 2039
GlyphClass: 2
Flags: HMW
HStem: -2 43G<1632 1632>
VStem: 408 176<612 612 612 686 612 686>
LayerCount: 2
Fore
SplineSet
408 541 m 1
 408 686 l 1
 1632 1229 l 1
 1632 1073 l 1
 584 612 l 1
 1632 152 l 1
 1632 -2 l 1
 408 541 l 1
EndSplineSet
EndChar

StartChar: equal
Encoding: 61 61 29
Width: 1585
GlyphClass: 2
Flags: HMW
HStem: 299 131<322 1325 332 1325 332 1325> 559 131<323 1325 332 1323>
LayerCount: 2
Fore
SplineSet
307 324 m 2
 307 406 l 2
 307 424 314 430 332 430 c 2
 1325 430 l 2
 1343 430 1350 424 1350 406 c 2
 1350 324 l 2
 1350 306 1343 299 1325 299 c 2
 330 299 l 2
 314 299 307 306 307 324 c 2
307 584 m 2
 307 666 l 2
 307 684 314 690 332 690 c 2
 1325 690 l 2
 1341 690 1348 684 1348 666 c 2
 1348 584 l 2
 1348 566 1341 559 1323 559 c 2
 332 559 l 2
 314 559 307 566 307 584 c 2
EndSplineSet
EndChar

StartChar: greater
Encoding: 62 62 30
Width: 2039
GlyphClass: 2
Flags: HMW
HStem: -2 43G<408 408>
VStem: 1456 176<612 612>
LayerCount: 2
Fore
SplineSet
1632 686 m 1
 1632 541 l 1
 408 -2 l 1
 408 152 l 1
 1456 612 l 1
 408 1073 l 1
 408 1229 l 1
 1632 686 l 1
EndSplineSet
EndChar

StartChar: question
Encoding: 63 63 31
Width: 718
GlyphClass: 2
Flags: HW
HStem: -31 262<223 274> 344 162 1305 143<561 579 454 615>
VStem: 131 236<70 128> 174 106<601 637 601 696> 705 106<1128 1215 1084 1219>
LayerCount: 2
Fore
SplineSet
256 231 m 0xf4
 319 231 367 179 367 109 c 0
 367 31 310 -31 240 -31 c 0
 179 -31 131 22 131 92 c 0
 131 164 190 231 256 231 c 0xf4
573 1305 m 0
 548 1305 535 1302 498 1294 c 0
 482 1290 467 1288 457 1288 c 0
 418 1288 383 1323 383 1364 c 0
 383 1415 422 1448 485 1448 c 0
 671 1448 811 1308 811 1122 c 0
 811 1046 786 971 745 918 c 0
 700 863 643 830 528 801 c 0
 393 764 356 750 319 713 c 0
 294 693 281 654 281 621 c 0
 281 582 303 543 338 520 c 0
 358 508 360 508 440 506 c 0
 497 504 522 483 522 434 c 0
 522 383 485 344 436 344 c 0
 319 344 174 525 174 668 c 0xec
 174 725 211 809 262 866 c 0
 307 915 331 926 485 971 c 0
 637 1016 705 1080 705 1178 c 0
 705 1260 657 1305 573 1305 c 0
EndSplineSet
EndChar

StartChar: at
Encoding: 64 64 32
Width: 1595
GlyphClass: 2
Flags: HMW
HStem: -285 106<662 916> 20 80<670 716> 897 80<949 998 884 1025> 1214 106<810 1140>
VStem: 18 137<230 508> 414 696<154 378> 1579 96<579 813>
LayerCount: 2
Fore
SplineSet
1466 29 m 1
 1536 -14 l 1
 1421 -104 1362 -143 1284 -182 c 0
 1145 -250 998 -285 836 -285 c 0
 371 -285 18 6 18 389 c 0
 18 627 121 871 295 1051 c 0
 469 1229 686 1321 934 1321 c 0
 1356 1321 1675 1039 1675 664 c 0
 1675 322 1401 2 1106 2 c 0
 1010 2 966 39 950 137 c 1
 841 51 764 20 668 20 c 0
 514 20 414 129 414 295 c 0
 414 461 483 638 608 788 c 0
 714 917 821 977 946 977 c 0
 1050 977 1112 938 1184 827 c 1
 1227 940 l 1
 1411 940 l 1
 1137 276 l 2
 1121 237 1110 197 1110 170 c 0
 1110 137 1134 115 1169 115 c 0
 1222 115 1308 161 1382 227 c 0
 1509 344 1579 497 1579 659 c 0
 1579 966 1309 1214 971 1214 c 0
 549 1214 156 821 156 399 c 0
 156 61 452 -178 870 -178 c 0
 1013 -178 1159 -145 1282 -88 c 0
 1333 -61 1380 -32 1466 29 c 1
989 897 m 0
 909 897 827 829 741 694 c 0
 655 559 586 371 578 252 c 0
 572 164 629 100 711 100 c 0
 807 100 879 166 965 326 c 0
 1051 486 1114 674 1114 764 c 0
 1114 840 1061 897 989 897 c 0
EndSplineSet
EndChar

StartChar: A
Encoding: 65 65 33
Width: 1435
GlyphClass: 2
Flags: HMW
HStem: -10 68<-94 -22 860 860> 559 80<517 547 547 891 510 895>
LayerCount: 2
Fore
SplineSet
895 559 m 1
 547 559 l 2
 488 559 469 557 457 547 c 0
 447 541 446 541 397 467 c 2
 283 287 l 2
 203 162 186 129 186 100 c 0
 186 67 217 57 305 55 c 0
 340 55 350 53 348 45 c 2
 346 29 l 1
 344 12 l 2
 344 -4 333 -10 315 -10 c 0
 307 -10 288 -10 272 -8 c 0
 215 -4 119 0 94 0 c 0
 55 0 51 0 -35 -8 c 0
 -47 -10 -68 -10 -86 -10 c 0
 -102 -10 -109 -6 -109 4 c 2
 -106 23 l 1
 -102 35 l 2
 -96 53 -94 55 -61 57 c 0
 19 57 41 76 131 207 c 2
 815 1278 l 2
 829 1307 846 1333 862 1356 c 0
 917 1454 940 1473 989 1475 c 1
 1098 217 l 2
 1108 100 1120 76 1171 66 c 0
 1224 56 1243 47 1241 35 c 2
 1239 20 l 1
 1235 2 l 2
 1233 -6 1224 -10 1210 -10 c 0
 1175 -10 1176 -10 1147 -4 c 0
 1133 -2 1112 0 1079 0 c 0
 1050 0 1005 -2 950 -4 c 2
 860 -10 l 1
 805 -12 l 1
 797 -12 l 2
 783 -12 770 -2 774 10 c 2
 774 12 l 1
 776 35 l 2
 778 58 780 57 827 57 c 0
 899 57 926 80 926 139 c 0
 926 164 926 168 920 256 c 2
 895 559 l 1
891 639 m 1
 858 1190 l 1
 510 639 l 1
 891 639 l 1
EndSplineSet
EndChar

StartChar: B
Encoding: 66 66 34
Width: 1171
GlyphClass: 2
Flags: HW
HStem: -10 66<432 546> 727 66<588 675> 1333 70<343 360> 1356 66<735 820 700 851>
VStem: 897 201<380 475 380 536> 1010 186<1042 1164 1033 1213>
LayerCount: 2
Fore
SplineSet
338 1356 m 1xd8
 342 1380 l 2
 344 1398 346 1403 360 1403 c 0xe8
 423 1411 657 1421 743 1421 c 0
 897 1421 987 1400 1071 1343 c 0
 1151 1290 1196 1210 1196 1118 c 0xd4
 1196 948 1063 828 795 758 c 1
 897 729 942 707 995 662 c 0
 1058 607 1098 520 1098 430 c 0
 1098 330 1049 226 971 160 c 0
 846 56 647 -10 444 -10 c 0
 413 -10 370 -8 311 -4 c 0
 268 -2 240 0 213 0 c 0
 195 0 183 0 70 -8 c 0
 54 -10 35 -10 25 -10 c 0
 5 -10 -2 -4 -4 14 c 2
 -4 35 l 1
 -4 43 l 2
 -4 55 0 55 53 59 c 0
 121 63 141 80 166 162 c 2
 473 1198 l 2
 483 1235 492 1274 492 1290 c 0
 492 1325 469 1339 414 1339 c 0
 394 1339 385 1339 365 1335 c 0
 357 1333 350 1333 346 1333 c 0xe8
 340 1333 336 1337 336 1343 c 2
 338 1356 l 1xd8
647 1217 m 2
 526 797 l 1
 561 793 578 793 598 793 c 0
 838 793 1010 940 1010 1145 c 0
 1010 1282 928 1356 774 1356 c 0xd4
 696 1356 682 1340 647 1217 c 2
506 721 m 1
 360 227 l 2
 350 192 342 147 342 127 c 0
 342 76 381 55 483 55 c 0
 721 55 897 223 897 446 c 0xc8
 897 624 778 727 571 727 c 0
 544 727 533 725 506 721 c 1
EndSplineSet
EndChar

StartChar: C
Encoding: 67 67 35
Width: 1435
GlyphClass: 2
Flags: HMW
HStem: -41 78<703 939 703 941> 1372 78<889 1060>
VStem: 162 207<424 730> 1442 117<1109 1249>
LayerCount: 2
Fore
SplineSet
1290 324 m 1
 1346 303 l 1
 1253 49 l 1
 1106 -19 1011 -41 870 -41 c 0
 448 -41 162 228 162 621 c 0
 162 840 243 1040 393 1194 c 0
 551 1352 780 1450 997 1450 c 0
 1151 1450 1356 1388 1499 1300 c 0
 1542 1273 1559 1257 1559 1241 c 0
 1559 1233 1558 1233 1542 1192 c 2
 1475 1018 l 1
 1421 1030 l 1
 1437 1073 1442 1095 1442 1122 c 0
 1442 1196 1403 1249 1309 1298 c 0
 1225 1343 1110 1372 1010 1372 c 0
 666 1372 369 1008 369 588 c 0
 369 256 559 37 848 37 c 0
 1030 37 1153 117 1290 324 c 1
EndSplineSet
EndChar

StartChar: D
Encoding: 68 68 36
Width: 1548
GlyphClass: 2
Flags: HMW
HStem: -10 68<556 654 477 739> 1372 78<728 920 675 958>
VStem: 1346 209<734 925 722 1024>
LayerCount: 2
Fore
SplineSet
221 371 m 2
 436 1147 l 2
 456 1223 467 1270 467 1290 c 0
 467 1329 434 1350 373 1350 c 0
 355 1350 327 1348 309 1346 c 0
 301 1344 295 1343 291 1343 c 0
 279 1343 274 1350 274 1360 c 0
 274 1364 274 1364 276 1378 c 2
 279 1393 l 2
 281 1409 285 1415 297 1417 c 0
 371 1433 594 1450 756 1450 c 0
 1084 1450 1260 1401 1397 1274 c 0
 1495 1180 1554 1016 1554 834 c 0
 1554 611 1481 426 1327 272 c 0
 1141 79 899 -10 580 -10 c 0
 533 -10 447 -8 367 -4 c 0
 304 -2 262 0 221 0 c 0
 196 0 149 -2 100 -4 c 0
 26 -8 -12 -10 -37 -10 c 0
 -51 -10 -53 -6 -53 14 c 2
 -55 29 l 1
 -55 39 l 2
 -55 47 -53 49 -39 53 c 0
 135 92 143 103 221 371 c 2
651 1288 m 2
 371 291 l 2
 351 217 340 173 340 150 c 0
 340 84 401 57 553 57 c 0
 756 57 897 102 1036 211 c 0
 1226 358 1346 608 1346 860 c 0
 1346 1188 1141 1372 776 1372 c 0
 680 1372 674 1368 651 1288 c 2
EndSplineSet
EndChar

StartChar: E
Encoding: 69 69 37
Width: 1208
GlyphClass: 2
Flags: HMW
HStem: -4 70 727 68<496 719 516 713> 1354 68<322 379>
VStem: 825 68<591 608> 1120 55<1139 1153>
LayerCount: 2
Fore
SplineSet
496 727 m 1
 369 289 l 2
 349 219 338 177 338 154 c 0
 338 119 360 92 399 78 c 0
 428 68 434 68 590 66 c 2
 659 66 l 2
 903 66 936 84 1075 289 c 1
 1133 274 l 1
 999 -10 l 1
 942 -8 907 -6 772 -6 c 2
 565 -4 l 2
 473 -2 407 0 391 0 c 0
 360 0 311 -2 250 -4 c 2
 127 -8 l 1
 12 -10 l 2
 2 -12 -8 -12 -12 -12 c 0
 -32 -12 -43 -8 -43 2 c 2
 -43 14 l 1
 -39 41 l 2
 -37 57 -37 59 -31 61 c 2
 -23 66 l 1
 63 68 l 2
 122 72 148 108 193 262 c 2
 446 1139 l 2
 466 1209 481 1275 481 1298 c 0
 481 1335 441 1356 367 1356 c 2
 344 1356 l 2
 336 1354 330 1354 326 1354 c 0
 318 1354 311 1358 311 1364 c 0
 311 1366 311 1368 317 1384 c 2
 324 1401 l 2
 330 1417 337 1421 360 1421 c 0
 397 1421 397 1421 641 1415 c 2
 797 1413 l 2
 836 1413 1083 1417 1114 1419 c 0
 1159 1421 1198 1421 1223 1421 c 0
 1239 1421 1249 1415 1249 1405 c 0
 1249 1403 1249 1402 1243 1382 c 2
 1176 1139 l 1
 1120 1153 l 1
 1112 1327 1096 1346 936 1346 c 2
 811 1346 l 2
 727 1346 715 1343 692 1329 c 0
 665 1313 660 1300 635 1210 c 2
 516 795 l 1
 719 795 l 2
 787 795 825 801 854 817 c 0
 887 835 889 840 928 918 c 0
 930 922 934 924 938 924 c 0
 940 924 940 924 952 920 c 2
 967 913 l 2
 981 907 985 905 985 897 c 0
 985 893 985 893 979 870 c 2
 893 608 l 2
 881 573 880 573 872 573 c 0
 868 573 866 574 854 578 c 2
 840 582 l 2
 830 584 825 588 825 594 c 2
 827 608 l 2
 833 626 840 660 840 680 c 0
 840 723 826 727 713 727 c 2
 496 727 l 1
EndSplineSet
EndChar

StartChar: F
Encoding: 70 70 38
Width: 1019
GlyphClass: 2
Flags: HMW
HStem: -10 70<-15 12> 723 70<535 731 516 750> 1350 72<327 367>
VStem: 940 59<899 899>
LayerCount: 2
Fore
SplineSet
535 793 m 1
 750 793 l 2
 867 793 897 809 940 899 c 0
 948 917 950 920 956 920 c 0
 960 920 969 917 971 915 c 2
 987 909 l 2
 997 905 999 901 999 897 c 0
 999 891 999 891 991 866 c 2
 913 598 l 2
 901 557 902 557 879 557 c 2
 862 561 l 2
 848 563 844 565 844 573 c 0
 844 581 846 594 850 608 c 0
 854 631 860 666 860 678 c 0
 860 715 840 723 731 723 c 2
 516 723 l 1
 383 270 l 2
 356 161 356 162 356 137 c 0
 356 88 400 61 492 57 c 0
 525 55 532 53 532 39 c 0
 532 35 530 29 528 25 c 2
 524 12 l 2
 516 -6 508 -10 483 -10 c 2
 209 0 l 2
 137 0 121 0 29 -8 c 0
 17 -10 -2 -10 -6 -10 c 0
 -24 -10 -31 -6 -31 6 c 0
 -31 10 -31 14 -29 18 c 2
 -27 35 l 2
 -21 55 -17 59 12 59 c 0
 127 61 156 92 209 270 c 2
 449 1104 l 2
 488 1266 487 1266 487 1284 c 0
 487 1325 445 1352 379 1352 c 2
 356 1352 l 2
 344 1350 334 1350 332 1350 c 0
 322 1350 315 1356 315 1364 c 2
 315 1364 315 1366 319 1382 c 2
 326 1403 l 2
 330 1415 340 1421 367 1421 c 2
 799 1411 l 2
 824 1411 942 1415 1169 1421 c 0
 1198 1421 1208 1415 1208 1399 c 0
 1208 1395 1208 1394 1204 1374 c 2
 1161 1169 l 2
 1155 1142 1155 1141 1139 1141 c 2
 1122 1143 l 2
 1104 1143 1098 1149 1098 1161 c 0
 1098 1163 1098 1172 1100 1180 c 2
 1100 1196 l 2
 1100 1255 1088 1294 1065 1317 c 0
 1040 1340 1013 1343 915 1343 c 2
 870 1343 l 2
 747 1343 720 1341 702 1329 c 0
 686 1319 677 1301 659 1235 c 2
 535 793 l 1
EndSplineSet
EndChar

StartChar: G
Encoding: 71 71 39
Width: 1585
GlyphClass: 2
Flags: HMW
HStem: -41 78<800 894 800 894> 553 66 1372 78<977 1117>
VStem: 166 207<540 680 505 733> 1438 68<999 1014>
LayerCount: 2
Fore
SplineSet
1505 999 m 1
 1438 1014 l 1
 1442 1042 l 2
 1446 1075 1450 1104 1450 1120 c 0
 1450 1167 1430 1214 1395 1247 c 0
 1317 1321 1178 1372 1057 1372 c 0
 897 1372 701 1276 578 1137 c 0
 453 996 373 781 373 580 c 0
 373 430 428 284 524 188 c 0
 610 100 748 37 852 37 c 0
 936 37 1024 70 1075 119 c 0
 1114 156 1142 211 1167 301 c 2
 1198 408 l 2
 1221 486 1221 486 1221 502 c 0
 1221 541 1192 553 1104 553 c 2
 1044 553 l 2
 976 553 969 555 969 569 c 0
 969 571 971 584 973 588 c 2
 977 602 l 2
 981 614 983 616 987 618 c 0
 993 620 997 621 1026 621 c 2
 1532 618 l 2
 1561 616 1561 616 1561 606 c 0
 1561 604 1561 600 1559 596 c 2
 1556 578 l 2
 1554 566 1554 565 1550 563 c 2
 1542 559 l 1
 1499 549 l 2
 1397 524 1389 516 1352 385 c 2
 1241 27 l 1
 1104 -14 944 -41 844 -41 c 0
 680 -41 489 41 360 166 c 0
 231 291 166 449 166 631 c 0
 166 836 249 1030 401 1180 c 0
 567 1340 823 1450 1036 1450 c 0
 1222 1450 1425 1379 1577 1260 c 1
 1505 999 l 1
EndSplineSet
EndChar

StartChar: H
Encoding: 72 72 40
Width: 1585
GlyphClass: 2
Flags: HMW
HStem: -10 70<-24 63> 713 82<508 1272> 1354 68
LayerCount: 2
Fore
SplineSet
532 795 m 1
 1272 795 l 1
 1372 1141 l 2
 1390 1202 1399 1247 1399 1276 c 0
 1399 1325 1362 1348 1274 1354 c 0
 1239 1356 1233 1358 1233 1370 c 0
 1233 1374 1233 1374 1239 1386 c 2
 1243 1399 l 2
 1249 1415 1260 1421 1280 1421 c 0
 1284 1421 1303 1421 1317 1419 c 0
 1419 1413 1474 1411 1548 1411 c 0
 1614 1411 1666 1413 1729 1419 c 0
 1739 1421 1755 1421 1759 1421 c 0
 1775 1421 1784 1415 1782 1403 c 0
 1782 1401 1782 1397 1780 1393 c 2
 1776 1376 l 2
 1772 1356 1766 1352 1737 1352 c 0
 1628 1348 1601 1317 1546 1141 c 2
 1298 272 l 2
 1282 215 1272 164 1272 135 c 0
 1272 86 1309 63 1395 57 c 0
 1430 55 1436 53 1436 41 c 0
 1436 37 1434 31 1432 25 c 2
 1425 12 l 2
 1419 -4 1409 -10 1391 -10 c 0
 1387 -10 1368 -10 1354 -8 c 0
 1254 -2 1194 0 1118 0 c 0
 1050 0 1034 0 940 -8 c 0
 930 -10 909 -10 901 -10 c 0
 883 -10 875 -4 877 6 c 0
 877 8 877 12 879 18 c 2
 883 35 l 2
 887 55 893 59 922 59 c 0
 1039 59 1067 90 1122 272 c 2
 1249 715 l 1
 508 713 l 1
 381 272 l 2
 363 209 354 164 354 135 c 0
 354 86 391 63 479 57 c 0
 514 55 520 53 520 41 c 0
 520 37 518 33 514 25 c 2
 510 12 l 2
 502 -4 493 -10 473 -10 c 0
 469 -10 450 -10 438 -8 c 0
 334 -2 279 0 203 0 c 0
 133 0 119 0 25 -8 c 0
 15 -10 -6 -10 -14 -10 c 0
 -32 -10 -39 -6 -39 6 c 0
 -39 10 -39 14 -37 18 c 2
 -35 35 l 2
 -29 55 -23 59 4 59 c 0
 123 59 152 88 207 272 c 2
 455 1141 l 2
 471 1198 481 1247 481 1276 c 0
 481 1325 444 1348 358 1354 c 0
 323 1356 317 1358 317 1370 c 0
 317 1374 318 1378 322 1386 c 2
 328 1399 l 2
 334 1415 344 1421 362 1421 c 0
 366 1421 385 1421 399 1419 c 0
 499 1413 559 1411 637 1411 c 0
 705 1411 719 1411 811 1419 c 0
 823 1421 844 1421 852 1421 c 0
 870 1421 879 1415 877 1405 c 0
 877 1403 876 1399 874 1393 c 2
 870 1376 l 2
 866 1356 860 1352 831 1352 c 0
 714 1352 686 1321 631 1141 c 2
 532 795 l 1
EndSplineSet
EndChar

StartChar: I
Encoding: 73 73 41
Width: 679
GlyphClass: 2
Flags: HMW
HStem: -10 66 1354 68
LayerCount: 2
Fore
SplineSet
207 270 m 2
 457 1141 l 2
 475 1200 483 1247 483 1276 c 0
 483 1323 446 1348 362 1354 c 0
 327 1356 322 1358 322 1370 c 0
 322 1374 322 1374 328 1386 c 2
 332 1399 l 2
 340 1415 349 1421 369 1421 c 0
 373 1421 392 1421 406 1419 c 0
 512 1413 557 1411 614 1411 c 0
 677 1411 790 1417 813 1421 c 0
 825 1423 827 1423 831 1423 c 0
 845 1423 852 1417 852 1405 c 0
 852 1401 852 1397 850 1393 c 2
 848 1376 l 2
 842 1356 838 1354 809 1352 c 0
 709 1340 684 1311 633 1141 c 2
 383 270 l 2
 365 207 356 164 356 135 c 0
 356 86 393 63 481 55 c 0
 491 53 496 49 496 41 c 0
 496 37 494 31 492 25 c 2
 485 12 l 2
 479 -4 469 -10 449 -10 c 0
 435 -10 430 -10 369 -4 c 0
 334 -2 292 0 233 0 c 0
 151 0 95 -2 27 -8 c 0
 17 -10 2 -10 -4 -10 c 0
 -20 -10 -27 -6 -27 6 c 0
 -27 10 -27 14 -25 18 c 2
 -23 35 l 2
 -17 55 -13 59 16 59 c 0
 125 63 154 94 207 270 c 2
EndSplineSet
EndChar

StartChar: J
Encoding: 74 74 42
Width: 641
GlyphClass: 2
Flags: HMW
HStem: -453 100<-7 2> 1356 66<300 301>
LayerCount: 2
Fore
SplineSet
131 -72 m 2
 422 1116 l 2
 442 1198 455 1261 455 1284 c 0
 455 1337 424 1352 301 1356 c 0
 287 1356 283 1358 283 1374 c 2
 283 1386 l 1
 287 1403 l 2
 291 1419 293 1421 307 1421 c 2
 582 1411 l 1
 764 1419 l 2
 778 1421 789 1421 797 1421 c 0
 807 1421 815 1417 815 1411 c 2
 813 1401 l 1
 803 1376 l 2
 797 1358 794 1356 778 1356 c 0
 665 1352 641 1323 598 1145 c 2
 377 217 l 2
 314 -47 313 -48 293 -109 c 0
 215 -324 78 -453 -74 -453 c 0
 -150 -453 -211 -405 -211 -346 c 0
 -211 -303 -174 -264 -133 -264 c 0
 -102 -264 -94 -268 -39 -334 c 0
 -29 -346 -14 -352 0 -352 c 0
 57 -352 80 -308 131 -72 c 2
EndSplineSet
EndChar

StartChar: K
Encoding: 75 75 43
Width: 1396
GlyphClass: 2
Flags: HMW
HStem: -10 68<801 866> 1350 72
VStem: -37 371<0 148>
LayerCount: 2
Fore
SplineSet
455 604 m 1
 360 270 l 2
 342 211 334 164 334 133 c 0
 334 86 371 63 459 57 c 0
 494 55 500 53 500 41 c 0
 500 37 500 37 494 25 c 2
 489 12 l 2
 481 -4 473 -10 453 -10 c 0
 449 -10 430 -10 416 -8 c 0
 324 -2 254 0 201 0 c 0
 148 0 124 -2 20 -8 c 0
 10 -10 -6 -10 -12 -10 c 0
 -30 -10 -37 -6 -37 6 c 0
 -37 10 -37 14 -35 18 c 2
 -33 35 l 2
 -29 53 -23 57 0 59 c 0
 102 63 131 94 184 270 c 2
 434 1141 l 2
 450 1198 461 1247 461 1276 c 0
 461 1317 430 1344 377 1350 c 0
 322 1356 313 1358 313 1370 c 0
 313 1374 315 1378 319 1386 c 2
 324 1399 l 2
 330 1413 340 1421 352 1421 c 0
 358 1421 369 1421 379 1419 c 0
 416 1415 551 1411 633 1411 c 0
 686 1411 701 1411 791 1419 c 0
 801 1421 821 1421 829 1421 c 0
 847 1421 854 1417 854 1405 c 2
 854 1393 l 1
 850 1376 l 2
 846 1356 840 1352 811 1352 c 0
 692 1352 665 1321 610 1141 c 2
 487 715 l 1
 1073 1178 l 2
 1159 1248 1198 1288 1198 1315 c 0
 1198 1342 1161 1356 1104 1356 c 0
 1059 1354 1049 1358 1049 1378 c 2
 1049 1403 l 2
 1049 1417 1055 1421 1073 1421 c 0
 1102 1421 1102 1421 1208 1415 c 0
 1253 1413 1289 1411 1303 1411 c 0
 1330 1411 1360 1413 1397 1415 c 0
 1442 1419 1474 1421 1501 1421 c 0
 1517 1421 1524 1419 1524 1411 c 0
 1524 1407 1524 1403 1522 1397 c 2
 1518 1380 l 2
 1516 1364 1513 1362 1507 1358 c 2
 1497 1354 l 1
 1452 1350 l 1
 1372 1313 1359 1305 1300 1260 c 2
 760 834 l 1
 1073 248 l 2
 1165 88 1190 63 1264 59 c 0
 1291 59 1292 57 1292 37 c 2
 1286 10 l 2
 1282 -8 1282 -10 1257 -10 c 0
 1234 -10 1235 -10 1165 -4 c 0
 1134 -2 1104 0 1073 0 c 0
 1046 0 1034 0 870 -8 c 0
 845 -10 821 -10 807 -10 c 0
 795 -10 791 -6 791 4 c 0
 791 6 791 8 793 12 c 2
 797 37 l 2
 801 57 800 57 829 57 c 2
 866 57 l 2
 932 57 963 69 963 92 c 0
 963 106 958 116 897 225 c 2
 616 725 l 1
 455 604 l 1
EndSplineSet
EndChar

StartChar: L
Encoding: 76 76 44
Width: 1208
GlyphClass: 2
Flags: HMW
HStem: -10 78 1350 72
LayerCount: 2
Fore
SplineSet
1079 276 m 1
 1135 254 l 1
 1030 33 l 2
 1010 -10 1009 -10 991 -10 c 0
 956 -10 850 -6 760 -2 c 0
 678 0 625 2 590 2 c 0
 400 2 113 -2 66 -6 c 0
 39 -8 8 -10 2 -10 c 0
 -14 -10 -20 -6 -20 6 c 0
 -20 10 -20 14 -18 18 c 2
 -16 35 l 2
 -10 53 -6 55 27 57 c 0
 138 71 140 75 199 270 c 2
 455 1139 l 2
 486 1254 485 1254 485 1274 c 0
 485 1315 452 1342 393 1350 c 0
 350 1356 346 1356 346 1368 c 0
 346 1372 348 1382 350 1386 c 2
 354 1397 l 2
 362 1415 371 1421 387 1421 c 0
 399 1421 434 1419 473 1415 c 0
 498 1413 528 1411 555 1411 c 0
 586 1411 711 1415 768 1419 c 2
 831 1421 l 2
 856 1421 864 1411 862 1391 c 2
 860 1378 l 2
 858 1355 856 1354 815 1356 c 0
 704 1354 696 1346 647 1188 c 2
 367 221 l 2
 357 186 350 159 350 145 c 0
 350 116 366 94 395 82 c 0
 420 72 461 68 563 68 c 0
 725 68 897 88 934 111 c 0
 952 121 1034 215 1079 276 c 1
EndSplineSet
EndChar

StartChar: M
Encoding: 77 77 45
Width: 1585
GlyphClass: 2
Flags: HMW
HStem: -10 66<-73 -23 956 965 1419 1421> 1352 70<414 594>
LayerCount: 2
Fore
SplineSet
737 317 m 1
 1354 1296 l 2
 1407 1380 1407 1381 1413 1391 c 0
 1431 1422 1432 1421 1446 1421 c 0
 1452 1421 1461 1421 1473 1419 c 0
 1498 1415 1545 1411 1559 1411 c 0
 1704 1421 1704 1421 1716 1421 c 0
 1730 1421 1739 1415 1737 1405 c 2
 1735 1399 l 1
 1735 1384 l 2
 1733 1357 1733 1358 1688 1358 c 0
 1608 1352 1579 1312 1544 1169 c 2
 1370 510 l 2
 1358 463 1347 416 1337 371 c 0
 1325 316 1312 260 1298 205 c 0
 1292 172 1286 137 1286 119 c 0
 1286 68 1308 57 1419 55 c 0
 1433 55 1436 53 1436 35 c 2
 1436 14 l 2
 1436 -6 1431 -10 1411 -10 c 0
 1388 -10 1327 -8 1280 -4 c 0
 1237 -2 1206 0 1192 0 c 0
 1188 0 1174 0 1024 -8 c 0
 997 -10 979 -10 965 -10 c 0
 947 -10 940 -2 942 18 c 2
 944 35 l 2
 944 51 949 55 965 55 c 0
 1045 59 1075 67 1098 96 c 0
 1125 137 1127 146 1190 453 c 0
 1210 555 1272 805 1305 924 c 0
 1346 1076 1360 1127 1368 1182 c 1
 645 35 l 1
 614 43 l 1
 561 1065 l 1
 319 483 l 2
 249 315 188 142 188 109 c 0
 188 70 211 59 311 55 c 0
 334 53 340 49 340 33 c 2
 338 14 l 2
 338 -4 328 -10 303 -10 c 0
 285 -10 285 -10 201 -4 c 0
 162 -2 133 0 117 0 c 0
 86 0 86 0 -18 -8 c 0
 -32 -10 -51 -10 -63 -10 c 0
 -81 -10 -88 -4 -88 8 c 2
 -88 14 l 1
 -86 31 l 2
 -84 41 -80 47 -78 49 c 0
 -72 55 -70 55 -23 55 c 0
 45 57 65 76 100 164 c 2
 143 262 l 1
 186 360 l 1
 207 410 l 1
 549 1239 l 1
 533 1325 500 1352 420 1352 c 0
 408 1352 397 1352 387 1350 c 0
 377 1348 371 1348 365 1348 c 0
 359 1348 354 1352 354 1360 c 2
 354 1370 l 1
 356 1389 l 2
 356 1416 389 1421 565 1421 c 0
 622 1421 645 1421 696 1417 c 1
 737 317 l 1
EndSplineSet
EndChar

StartChar: N
Encoding: 78 78 46
Width: 1511
GlyphClass: 2
Flags: HW
HStem: -14 43G<1151 1161 1161 1176 1291 1302> -10 63 1356 66
LayerCount: 2
Fore
SplineSet
1219 195 m 1x60
 1307 33 l 2
 1315 21 1317 12 1317 6 c 0
 1317 -8 1308 -14 1294 -14 c 0xa0
 1288 -14 1280 -14 1272 -12 c 0
 1249 -10 1233 -10 1221 -10 c 0x60
 1209 -10 1194 -10 1176 -14 c 2
 1161 -14 l 2xa0
 1141 -14 1122 6 1102 47 c 2
 623 1053 l 2
 611 1080 592 1106 586 1106 c 0
 578 1106 573 1097 567 1079 c 2
 557 1036 l 1
 315 199 l 2
 295 123 295 122 295 106 c 0
 295 71 326 57 406 53 c 0
 453 51 455 51 455 37 c 0
 455 33 455 29 453 27 c 2
 449 8 l 2
 445 -4 438 -10 424 -10 c 0
 404 -10 403 -10 305 -4 c 0
 262 -2 231 0 219 0 c 0
 192 0 90 -6 35 -10 c 2
 31 -10 l 2
 19 -10 14 -6 14 2 c 2
 16 16 l 1
 16 33 l 2
 20 56 23 57 74 57 c 0
 166 61 184 84 252 293 c 2
 518 1194 l 1
 473 1298 404 1348 289 1350 c 0
 260 1350 250 1356 252 1372 c 2
 254 1380 l 1
 256 1397 l 2
 258 1415 266 1421 289 1421 c 0
 303 1421 366 1417 397 1415 c 0
 432 1413 455 1411 467 1411 c 0
 477 1411 495 1413 518 1415 c 0
 561 1419 576 1421 594 1421 c 0
 623 1421 641 1401 676 1325 c 2
 1124 373 l 2
 1140 338 1159 311 1165 311 c 0
 1171 311 1172 311 1186 356 c 2
 1417 1169 l 2
 1446 1271 1446 1271 1446 1294 c 0
 1446 1333 1411 1356 1350 1356 c 2
 1327 1356 l 2
 1315 1354 1304 1354 1300 1354 c 0
 1286 1354 1278 1360 1278 1370 c 0
 1278 1372 1278 1376 1280 1382 c 2
 1284 1401 l 2
 1288 1415 1299 1421 1317 1421 c 0
 1337 1421 1395 1419 1438 1415 c 0
 1473 1413 1497 1411 1507 1411 c 0
 1519 1411 1527 1411 1642 1419 c 0
 1660 1421 1676 1421 1688 1421 c 0
 1698 1421 1706 1417 1706 1411 c 2
 1704 1395 l 1
 1704 1376 l 2
 1702 1362 1697 1358 1681 1356 c 0
 1560 1354 1550 1341 1495 1151 c 2
 1219 195 l 1x60
EndSplineSet
EndChar

StartChar: O
Encoding: 79 79 47
Width: 1624
GlyphClass: 2
Flags: HMW
HStem: -41 80<663 871 663 1028> 1370 80<897 1108>
VStem: 147 207<425 684 417 850> 1417 209<714 986 563 989>
LayerCount: 2
Fore
SplineSet
973 1450 m 0
 1360 1450 1626 1182 1626 791 c 0
 1626 336 1254 -41 803 -41 c 0
 410 -41 147 226 147 625 c 0
 147 1076 522 1450 973 1450 c 0
975 1370 m 0
 819 1370 671 1299 567 1174 c 0
 438 1020 354 785 354 584 c 0
 354 250 527 39 799 39 c 0
 944 39 1077 102 1186 219 c 0
 1333 381 1417 602 1417 825 c 0
 1417 1153 1241 1370 975 1370 c 0
EndSplineSet
EndChar

StartChar: P
Encoding: 80 80 48
Width: 1132
GlyphClass: 2
Flags: HW
HStem: -10 70<-12 67> 608 63<726 801 706 890> 1329 74 1341 80<702 823>
VStem: -27 373<0 152> 1022 188<978 1160>
LayerCount: 2
Fore
SplineSet
565 664 m 1xdc
 598 713 l 1
 641 686 684 672 727 672 c 0
 874 672 1022 874 1022 1081 c 0
 1022 1239 909 1341 737 1341 c 0xdc
 659 1341 650 1333 627 1245 c 2
 369 270 l 2
 355 215 346 166 346 137 c 0
 346 86 383 63 471 57 c 0
 506 55 512 53 512 39 c 0
 512 35 510 27 508 25 c 2
 504 12 l 2
 496 -4 487 -10 467 -10 c 0
 463 -10 444 -10 432 -8 c 0
 330 -2 273 0 205 0 c 0
 142 0 78 -2 25 -8 c 0
 13 -10 0 -10 -4 -10 c 0
 -20 -10 -27 -6 -27 6 c 0
 -27 8 -27 14 -25 18 c 2
 -23 35 l 2
 -19 55 -15 57 14 59 c 0
 118 59 148 94 197 270 c 2
 434 1163 l 2
 444 1204 457 1268 457 1286 c 0
 457 1321 432 1335 373 1335 c 0
 361 1335 348 1335 338 1333 c 0
 324 1331 311 1329 307 1329 c 0
 295 1329 291 1334 289 1354 c 2
 287 1372 l 1
 287 1378 l 2
 285 1392 295 1399 322 1403 c 0xec
 367 1407 669 1421 735 1421 c 0
 1046 1421 1210 1300 1210 1069 c 0
 1210 815 1012 608 768 608 c 0
 684 608 618 627 565 664 c 1xdc
EndSplineSet
EndChar

StartChar: Q
Encoding: 81 81 49
Width: 1622
GlyphClass: 2
Flags: HMW
HStem: -500 78<1269 1442> -41 80<737 810> 1372 80<926 1060>
VStem: 152 207<559 648 496 693> 1413 209<769 887 702 889>
LayerCount: 2
Fore
SplineSet
1542 -414 m 1
 1528 -481 l 1
 1434 -493 1366 -500 1325 -500 c 0
 1212 -500 1118 -463 1040 -385 c 0
 995 -340 948 -258 897 -141 c 0
 872 -88 854 -55 844 -49 c 0
 836 -43 822 -41 799 -41 c 0
 649 -41 516 0 401 84 c 0
 319 143 258 219 215 313 c 0
 172 403 152 503 152 614 c 0
 152 772 192 920 274 1053 c 0
 356 1186 463 1288 596 1360 c 0
 713 1421 838 1452 973 1452 c 0
 1174 1452 1333 1386 1454 1255 c 0
 1565 1134 1622 981 1622 793 c 0
 1622 613 1570 448 1466 305 c 0
 1357 158 1212 53 1032 -6 c 1
 1100 -153 1151 -254 1186 -299 c 0
 1247 -381 1328 -422 1430 -422 c 0
 1455 -422 1491 -418 1542 -414 c 1
977 1372 m 0
 875 1372 776 1343 688 1282 c 0
 588 1214 505 1110 444 969 c 0
 387 838 358 711 358 586 c 0
 358 406 406 264 500 162 c 0
 576 80 676 39 799 39 c 0
 946 39 1075 100 1184 221 c 0
 1254 297 1307 385 1346 483 c 0
 1391 596 1413 710 1413 827 c 0
 1413 950 1390 1059 1341 1151 c 0
 1263 1298 1143 1372 977 1372 c 0
EndSplineSet
Substitution2: "swshSwashlookup subtable" Q.swsh
EndChar

StartChar: R
Encoding: 82 82 50
Width: 1396
GlyphClass: 2
Flags: HW
HStem: -12 70<455 455> 700 68<512 541 494 578> 1348 57<299 309> 1356 66<754 855>
VStem: 1047 199<1060 1185>
LayerCount: 2
Fore
SplineSet
1270 57 m 1xd8
 1257 -8 l 1
 1130 -8 l 2
 952 -8 944 -2 883 154 c 2
 721 559 l 2
 672 680 647 700 541 700 c 2
 494 700 l 1
 371 270 l 2
 355 215 344 162 344 135 c 0
 344 90 383 61 453 57 c 0
 492 53 494 53 494 43 c 0
 494 37 491 29 489 25 c 2
 485 12 l 2
 477 -6 469 -12 455 -12 c 0
 447 -12 436 -12 426 -10 c 0
 379 -6 258 0 188 0 c 0
 129 0 115 0 23 -10 c 0
 11 -12 -11 -12 -29 -12 c 0
 -49 -12 -55 -8 -55 6 c 0
 -55 10 -55 14 -53 18 c 2
 -51 35 l 2
 -47 55 -41 59 -12 59 c 0
 123 61 144 84 201 270 c 2
 438 1098 l 2
 467 1198 477 1243 477 1276 c 0
 477 1323 457 1335 367 1343 c 2
 309 1348 l 2
 291 1350 289 1350 289 1358 c 2
 289 1368 l 1
 291 1386 l 2
 293 1396 295 1401 299 1405 c 2xe8
 315 1407 l 1
 367 1409 l 1
 676 1419 l 2
 719 1421 718 1421 788 1421 c 0
 1077 1421 1245 1310 1245 1122 c 0
 1245 997 1171 885 1044 817 c 0
 976 780 919 760 819 731 c 1
 864 688 903 608 985 387 c 0
 1079 111 1114 69 1270 57 c 1xd8
512 768 m 1
 578 768 l 2
 730 768 813 791 909 854 c 0
 995 911 1047 1008 1047 1112 c 0
 1047 1257 936 1356 774 1356 c 0xd8
 731 1356 700 1345 686 1329 c 0
 674 1317 673 1317 653 1243 c 2
 512 768 l 1
EndSplineSet
EndChar

StartChar: S
Encoding: 83 83 51
Width: 944
GlyphClass: 2
Flags: HW
HStem: -41 68<321 460 321 523> 1384 66<620 733 564 739>
VStem: 41 125<46 174> 129 61<285 291> 262 162<1057 1156> 674 172<238 338> 881 119<1222 1333>
LayerCount: 2
Fore
SplineSet
922 1112 m 1xee
 862 1128 l 1
 878 1189 881 1208 881 1235 c 0
 881 1315 790 1384 688 1384 c 0
 551 1384 424 1253 424 1112 c 0
 424 1001 482 907 670 698 c 0
 811 544 846 477 846 356 c 0
 846 118 659 -41 387 -41 c 0
 237 -41 41 23 41 70 c 0xee
 41 80 41 82 78 160 c 2
 129 291 l 2
 135 303 139 309 143 309 c 2
 143 309 148 309 152 307 c 2
 174 299 l 2
 188 295 190 293 190 287 c 0xde
 190 283 188 270 182 250 c 0
 172 215 166 184 166 164 c 0
 166 90 264 27 377 27 c 0
 543 27 674 143 674 293 c 0
 674 383 651 424 514 586 c 0
 309 826 262 909 262 1044 c 0
 262 1267 449 1450 680 1450 c 0
 786 1450 893 1415 981 1354 c 0
 993 1346 999 1337 999 1329 c 0
 999 1325 997 1317 993 1307 c 0
 983 1291 954 1216 934 1153 c 2
 922 1112 l 1xee
EndSplineSet
EndChar

StartChar: T
Encoding: 84 84 52
Width: 1245
GlyphClass: 2
Flags: HMW
HStem: -10 70<286 313> 1343 80<548 649 649 694 1080 1139 1139 1190>
VStem: 299 70<1473 1503> 1372 76<1167 1200> 1456 47
LayerCount: 2
Fore
SplineSet
535 1423 m 2
 1257 1423 l 2
 1376 1423 1409 1437 1456 1505 c 0
 1462 1511 1464 1513 1468 1513 c 0
 1495 1513 1513 1505 1513 1495 c 0
 1513 1489 1513 1489 1503 1450 c 2
 1448 1200 l 2
 1438 1153 1437 1153 1417 1153 c 0
 1388 1153 1372 1162 1372 1174 c 0
 1372 1180 1372 1186 1374 1194 c 0
 1376 1202 1376 1211 1376 1227 c 0
 1376 1315 1331 1343 1190 1343 c 2
 1139 1343 l 2
 1022 1343 1016 1339 987 1243 c 2
 707 272 l 2
 691 217 680 164 680 135 c 0
 680 86 717 63 803 57 c 0
 838 55 844 53 844 41 c 0
 844 37 842 31 840 25 c 2
 834 12 l 2
 828 -4 817 -10 799 -10 c 0
 795 -10 776 -10 762 -8 c 0
 658 -2 611 0 545 0 c 0
 477 0 473 0 348 -8 c 2
 295 -10 l 2
 277 -10 270 -6 270 6 c 0
 270 12 270 14 272 18 c 2
 274 35 l 2
 278 55 284 59 313 59 c 0
 446 61 471 84 528 272 c 2
 805 1229 l 2
 828 1303 827 1303 827 1315 c 0
 827 1342 819 1343 694 1343 c 2
 649 1343 l 2
 446 1343 359 1327 326 1280 c 0
 322 1274 285 1214 279 1204 c 0
 277 1198 272 1196 266 1196 c 2
 252 1196 l 1
 238 1198 l 2
 222 1200 217 1202 217 1210 c 0
 217 1214 217 1217 221 1227 c 2
 229 1249 l 1
 299 1473 l 2
 315 1518 316 1518 322 1518 c 0
 326 1518 326 1518 338 1516 c 2
 350 1513 l 2
 364 1511 369 1509 369 1497 c 0
 375 1434 398 1423 535 1423 c 2
EndSplineSet
EndChar

StartChar: U
Encoding: 85 85 53
Width: 1548
GlyphClass: 2
Flags: HMW
HStem: -41 92<650 795> 1352 70<334 342 842 866>
VStem: 227 188<226 296>
LayerCount: 2
Fore
SplineSet
252 432 m 2
 459 1198 l 2
 469 1237 475 1268 475 1286 c 0
 475 1335 440 1354 342 1352 c 0
 311 1352 303 1354 305 1368 c 2
 307 1376 l 1
 309 1397 l 2
 313 1420 317 1421 350 1421 c 0
 375 1421 459 1417 510 1415 c 0
 559 1413 593 1411 618 1411 c 0
 638 1411 672 1413 715 1415 c 0
 781 1419 827 1421 856 1421 c 0
 876 1421 883 1415 881 1399 c 2
 879 1370 l 2
 879 1354 874 1352 858 1352 c 0
 704 1352 684 1335 635 1159 c 2
 444 485 l 2
 430 432 416 342 416 299 c 0
 416 154 553 51 748 51 c 0
 992 51 1153 207 1243 537 c 2
 1399 1090 l 2
 1422 1166 1438 1251 1438 1284 c 0
 1438 1329 1420 1344 1354 1348 c 0
 1315 1352 1315 1352 1288 1354 c 0
 1278 1354 1274 1360 1274 1370 c 0
 1274 1372 1274 1376 1276 1378 c 2
 1282 1399 l 2
 1286 1417 1293 1421 1313 1421 c 0
 1338 1421 1395 1419 1440 1415 c 0
 1475 1413 1499 1411 1509 1411 c 0
 1521 1411 1546 1413 1579 1415 c 0
 1620 1419 1667 1421 1681 1421 c 0
 1699 1421 1708 1415 1708 1405 c 2
 1708 1399 l 1
 1706 1376 l 2
 1706 1366 1704 1362 1696 1358 c 2
 1686 1356 l 1
 1632 1348 l 2
 1566 1332 1548 1302 1513 1165 c 2
 1350 584 l 2
 1291 365 1229 233 1139 131 c 0
 1041 20 886 -41 702 -41 c 0
 421 -41 227 88 227 276 c 0
 227 315 238 375 252 432 c 2
EndSplineSet
EndChar

StartChar: V
Encoding: 86 86 54
Width: 1472
GlyphClass: 2
Flags: HMW
HStem: -39 43G<684 752 684 684> 1356 66<295 315>
LayerCount: 2
Fore
SplineSet
752 -39 m 1
 684 -39 l 1
 434 1239 l 2
 416 1341 410 1348 301 1356 c 0
 289 1356 281 1360 281 1368 c 2
 283 1382 l 1
 287 1403 l 2
 289 1415 297 1421 311 1421 c 0
 319 1421 322 1421 426 1415 c 0
 471 1413 504 1411 514 1411 c 0
 530 1411 561 1413 602 1415 c 0
 653 1419 723 1421 748 1421 c 0
 762 1421 768 1417 768 1405 c 2
 768 1397 l 1
 764 1378 l 2
 760 1364 760 1364 756 1360 c 0
 748 1356 747 1356 696 1354 c 0
 630 1354 602 1333 602 1284 c 0
 602 1268 606 1233 616 1184 c 2
 805 205 l 1
 1362 1079 l 2
 1471 1247 1479 1264 1479 1309 c 0
 1479 1346 1456 1354 1356 1356 c 0
 1342 1358 1337 1360 1335 1380 c 2
 1335 1397 l 1
 1333 1401 l 2
 1329 1413 1342 1421 1360 1421 c 0
 1383 1421 1383 1421 1489 1415 c 0
 1534 1413 1567 1411 1573 1411 c 0
 1581 1411 1610 1413 1645 1415 c 0
 1676 1419 1727 1421 1739 1421 c 0
 1749 1421 1757 1415 1755 1407 c 2
 1753 1403 l 1
 1751 1382 l 2
 1749 1366 1747 1364 1735 1360 c 0
 1665 1344 1632 1313 1544 1186 c 2
 752 -39 l 1
EndSplineSet
EndChar

StartChar: W
Encoding: 87 87 55
Width: 1964
GlyphClass: 2
Flags: HMW
HStem: -39 43G<702 782 702 702 1260 1335 1260 1260> 1354 68<855 858 1902 1904>
LayerCount: 2
Fore
SplineSet
1110 737 m 1
 1010 1202 l 2
 987 1325 956 1356 858 1354 c 0
 842 1354 840 1355 840 1378 c 2
 838 1401 l 2
 836 1415 846 1421 864 1421 c 0
 878 1421 879 1421 985 1415 c 0
 1032 1413 1069 1411 1085 1411 c 0
 1122 1411 1163 1413 1214 1419 c 2
 1253 1421 l 2
 1265 1421 1272 1417 1272 1403 c 2
 1272 1384 l 2
 1272 1361 1266 1358 1233 1356 c 0
 1190 1352 1167 1336 1167 1307 c 0
 1167 1297 1168 1296 1176 1235 c 2
 1229 934 l 1
 1380 1231 l 2
 1407 1284 1417 1311 1417 1325 c 0
 1417 1348 1405 1354 1350 1358 c 0
 1334 1360 1333 1359 1333 1382 c 2
 1333 1403 l 2
 1335 1417 1340 1421 1354 1421 c 0
 1368 1421 1368 1421 1448 1415 c 0
 1481 1413 1506 1411 1518 1411 c 0
 1528 1411 1536 1411 1647 1419 c 0
 1663 1421 1680 1421 1686 1421 c 0
 1698 1421 1700 1419 1702 1403 c 2
 1702 1384 l 2
 1702 1372 1702 1368 1700 1364 c 0
 1696 1358 1694 1358 1659 1354 c 0
 1569 1346 1510 1299 1442 1180 c 2
 1255 844 l 1
 1380 195 l 1
 1898 1098 l 2
 1968 1221 1995 1280 1995 1309 c 0
 1995 1338 1972 1354 1925 1354 c 0
 1878 1354 1874 1357 1874 1386 c 2
 1876 1405 l 2
 1878 1417 1882 1421 1898 1421 c 0
 1908 1421 1931 1419 1970 1415 c 0
 2003 1413 2028 1411 2040 1411 c 0
 2058 1411 2091 1413 2134 1419 c 0
 2165 1421 2183 1423 2206 1423 c 0
 2239 1423 2239 1424 2243 1401 c 2
 2243 1380 l 2
 2241 1368 2240 1366 2236 1362 c 2
 2222 1354 l 1
 2177 1343 l 2
 2148 1337 2128 1325 2114 1305 c 0
 2106 1293 2081 1250 2036 1176 c 2
 1335 -39 l 1
 1260 -39 l 1
 1133 639 l 1
 782 -39 l 1
 702 -39 l 1
 453 1163 l 2
 416 1337 408 1348 299 1356 c 0
 287 1356 283 1362 283 1376 c 2
 283 1399 l 2
 283 1417 287 1421 305 1421 c 0
 340 1421 373 1419 461 1415 c 0
 498 1413 525 1411 543 1411 c 0
 574 1411 576 1411 678 1419 c 0
 692 1421 707 1421 717 1421 c 0
 733 1421 743 1413 741 1403 c 2
 739 1399 l 1
 737 1386 l 2
 735 1357 727 1352 686 1352 c 0
 631 1354 608 1340 608 1303 c 0
 608 1293 609 1293 627 1178 c 2
 825 201 l 1
 1110 737 l 1
EndSplineSet
EndChar

StartChar: X
Encoding: 88 88 56
Width: 1435
GlyphClass: 2
Flags: HMW
HStem: -10 68<378 391 371 395> 1354 68<311 395>
LayerCount: 2
Fore
SplineSet
713 709 m 1
 553 1122 l 2
 475 1319 444 1354 346 1354 c 0
 293 1358 291 1358 291 1368 c 2
 293 1382 l 1
 299 1409 l 2
 301 1419 305 1421 317 1421 c 0
 344 1421 375 1419 455 1415 c 0
 500 1413 534 1411 563 1411 c 0
 586 1411 623 1413 668 1415 c 0
 729 1419 789 1421 805 1421 c 0
 819 1421 823 1417 821 1401 c 2
 819 1378 l 2
 817 1364 811 1358 795 1358 c 0
 711 1354 674 1338 674 1307 c 0
 674 1287 685 1247 705 1196 c 2
 848 827 l 1
 1167 1167 l 2
 1247 1253 1266 1280 1266 1309 c 0
 1266 1340 1233 1356 1174 1356 c 0
 1127 1358 1122 1358 1122 1374 c 2
 1122 1386 l 1
 1126 1405 l 2
 1130 1417 1135 1421 1149 1421 c 0
 1165 1421 1165 1421 1282 1415 c 0
 1331 1413 1366 1411 1378 1411 c 0
 1407 1411 1418 1411 1518 1419 c 0
 1534 1421 1551 1421 1563 1421 c 0
 1575 1421 1583 1417 1583 1411 c 2
 1581 1403 l 1
 1581 1382 l 2
 1581 1368 1577 1364 1559 1360 c 0
 1455 1335 1425 1317 1331 1221 c 2
 879 752 l 1
 1085 236 l 2
 1148 80 1174 61 1305 55 c 0
 1313 53 1317 51 1317 45 c 0
 1317 41 1317 37 1315 33 c 2
 1309 8 l 2
 1303 -6 1298 -10 1282 -10 c 0
 1262 -10 1259 -10 1163 -4 c 0
 1118 -2 1086 0 1057 0 c 0
 1039 0 891 -6 858 -8 c 0
 835 -10 817 -10 803 -10 c 0
 785 -10 776 -4 776 8 c 0
 776 10 776 14 778 18 c 2
 782 35 l 2
 784 47 787 51 793 53 c 0
 799 57 801 57 846 59 c 0
 912 61 946 78 946 111 c 0
 946 131 946 131 897 252 c 2
 743 625 l 1
 358 225 l 2
 276 137 276 138 276 111 c 0
 276 74 305 59 371 57 c 0
 412 57 426 53 424 41 c 0
 424 39 422 33 420 27 c 2
 416 12 l 2
 412 -6 405 -10 385 -10 c 0
 371 -10 371 -10 262 -4 c 0
 215 -2 182 0 170 0 c 0
 152 0 141 0 16 -8 c 0
 -2 -10 -21 -10 -29 -10 c 0
 -41 -10 -43 -4 -43 10 c 2
 -41 27 l 2
 -41 37 -39 41 -37 43 c 2
 -27 49 l 2
 -13 53 2 55 14 59 c 0
 65 69 162 137 242 221 c 2
 713 709 l 1
EndSplineSet
EndChar

StartChar: Y
Encoding: 89 89 57
Width: 1359
GlyphClass: 2
Flags: HMW
HStem: -10 68 1354 68
LayerCount: 2
Fore
SplineSet
487 270 m 2
 555 477 l 2
 582 559 594 614 594 651 c 0
 594 698 574 772 543 842 c 2
 393 1180 l 2
 323 1340 312 1350 203 1352 c 0
 180 1352 172 1356 172 1368 c 0
 172 1374 172 1376 174 1380 c 2
 178 1403 l 2
 182 1417 189 1421 207 1421 c 0
 227 1421 227 1421 377 1415 c 0
 436 1413 479 1411 483 1411 c 0
 497 1411 610 1417 641 1419 c 0
 659 1421 676 1421 686 1421 c 0
 702 1421 713 1415 711 1403 c 2
 711 1397 l 1
 709 1374 l 2
 707 1362 702 1358 694 1356 c 0
 686 1354 670 1352 639 1350 c 0
 559 1346 528 1334 528 1305 c 0
 528 1295 528 1295 555 1221 c 2
 725 821 l 2
 750 751 754 743 762 743 c 0
 768 743 768 743 838 815 c 2
 1167 1147 l 2
 1226 1206 1274 1278 1274 1309 c 0
 1274 1340 1249 1348 1130 1354 c 0
 1116 1354 1108 1360 1108 1368 c 0
 1108 1370 1108 1374 1110 1382 c 2
 1114 1401 l 2
 1116 1415 1124 1421 1147 1421 c 0
 1165 1421 1206 1419 1274 1415 c 0
 1317 1413 1350 1411 1366 1411 c 0
 1382 1411 1493 1415 1604 1421 c 0
 1618 1421 1620 1419 1620 1407 c 2
 1620 1382 l 2
 1620 1359 1609 1356 1556 1354 c 0
 1478 1348 1466 1339 1372 1245 c 2
 846 717 l 2
 805 674 782 647 776 639 c 0
 770 631 766 620 762 606 c 2
 743 539 l 1
 666 270 l 2
 646 204 637 164 637 133 c 0
 637 86 672 63 760 57 c 0
 795 55 801 53 801 41 c 0
 801 37 799 31 797 25 c 2
 791 12 l 2
 785 -4 774 -10 756 -10 c 0
 752 -10 733 -10 719 -8 c 0
 613 -2 567 0 487 0 c 0
 413 0 397 0 301 -8 c 2
 254 -10 l 2
 236 -10 231 -6 229 6 c 2
 229 18 l 1
 233 35 l 2
 239 55 245 59 274 59 c 0
 403 63 424 84 487 270 c 2
EndSplineSet
EndChar

StartChar: Z
Encoding: 90 90 58
Width: 1284
GlyphClass: 2
Flags: HMW
HStem: 2 70<411 649> 1341 80<467 1255 610 997>
VStem: 334 63
LayerCount: 2
Fore
SplineSet
1196 244 m 2
 1114 -10 l 1
 1038 -6 991 -4 862 -4 c 2
 621 -2 l 2
 525 0 459 2 434 2 c 0
 387 2 203 -4 166 -8 c 2
 125 -10 l 2
 105 -10 94 -4 94 8 c 0
 94 16 101 27 117 45 c 0
 123 49 131 60 141 78 c 2
 1004 1280 l 2
 1039 1323 1038 1323 1038 1331 c 0
 1038 1339 1036 1341 997 1341 c 2
 541 1341 l 2
 394 1341 378 1334 319 1223 c 0
 299 1186 295 1180 287 1180 c 0
 285 1180 282 1180 272 1184 c 2
 254 1192 l 2
 238 1200 238 1200 238 1206 c 0
 238 1212 240 1221 248 1239 c 0
 266 1280 334 1487 334 1501 c 0
 338 1519 342 1526 352 1526 c 2
 373 1526 l 2
 389 1526 391 1523 397 1509 c 0
 424 1439 469 1421 610 1421 c 2
 1255 1421 l 2
 1300 1421 1309 1417 1309 1403 c 0
 1309 1391 1305 1383 1282 1350 c 2
 426 174 l 2
 412 154 395 134 379 111 c 0
 373 103 369 94 369 88 c 0
 369 74 387 72 528 72 c 0
 770 72 961 92 1012 125 c 0
 1047 145 1100 215 1141 291 c 0
 1145 299 1149 301 1155 301 c 0
 1159 301 1163 301 1167 299 c 2
 1186 293 l 2
 1200 289 1204 287 1204 281 c 0
 1204 277 1204 277 1196 244 c 2
EndSplineSet
EndChar

StartChar: bracketleft
Encoding: 91 91 59
Width: 491
GlyphClass: 2
Flags: HMW
HStem: -352 61<227 246 246 247> 1397 66<599 639 639 715>
VStem: -162 154<-358 -251>
LayerCount: 2
Fore
SplineSet
-150 -309 m 2
 356 1409 l 2
 372 1462 373 1462 430 1462 c 2
 731 1462 l 2
 758 1462 764 1460 764 1448 c 0
 764 1444 764 1444 760 1434 c 2
 754 1413 l 2
 752 1399 746 1397 715 1397 c 2
 639 1397 l 2
 559 1397 517 1388 492 1368 c 0
 467 1350 463 1341 432 1237 c 2
 12 -184 l 2
 -4 -233 -8 -246 -8 -256 c 0
 -8 -283 16 -291 88 -291 c 2
 246 -291 l 2
 277 -291 281 -293 281 -303 c 0
 281 -307 281 -309 279 -317 c 2
 272 -334 l 2
 266 -352 266 -352 227 -352 c 2
 -125 -367 l 1
 -145 -367 l 2
 -157 -367 -162 -362 -162 -354 c 0
 -162 -344 -162 -342 -150 -309 c 2
EndSplineSet
EndChar

StartChar: backslash
Encoding: 92 92 60
Width: 1019
GlyphClass: 2
Flags: HMW
VStem: 352 518
LayerCount: 2
Fore
SplineSet
752 -70 m 2
 356 1427 l 2
 354 1435 352 1446 352 1452 c 0
 352 1468 361 1475 381 1475 c 2
 424 1475 l 2
 455 1475 459 1471 469 1434 c 2
 864 -66 l 2
 868 -78 870 -88 870 -96 c 0
 870 -110 862 -117 844 -117 c 2
 788 -117 l 2
 765 -117 762 -113 752 -70 c 2
EndSplineSet
EndChar

StartChar: bracketright
Encoding: 93 93 61
Width: 491
GlyphClass: 2
Flags: HMW
HStem: -367 66<-249 -143 -219 -143 -143 -104 -219 66> 1386 61<233 268 250 268 250 408>
VStem: 504 154<1346 1454>
LayerCount: 2
Fore
SplineSet
645 1405 m 2
 137 -313 l 2
 123 -364 121 -367 66 -367 c 2
 -236 -367 l 2
 -263 -367 -268 -364 -268 -352 c 0
 -268 -348 -268 -348 -264 -338 c 2
 -260 -317 l 2
 -256 -303 -252 -301 -219 -301 c 2
 -143 -301 l 2
 -65 -301 -21 -292 4 -272 c 0
 27 -254 32 -243 63 -141 c 2
 483 1280 l 2
 501 1333 504 1340 504 1352 c 0
 504 1379 480 1386 408 1386 c 2
 250 1386 l 2
 217 1386 215 1389 215 1401 c 0
 215 1403 215 1403 217 1411 c 2
 223 1430 l 2
 229 1448 231 1448 268 1448 c 2
 618 1462 l 1
 641 1462 l 2
 653 1462 657 1458 657 1450 c 0
 657 1440 657 1438 645 1405 c 2
EndSplineSet
EndChar

StartChar: asciicircum
Encoding: 94 94 62
Width: 1019
GlyphClass: 2
Flags: HMW
HStem: 993 543<98 571 451 924>
VStem: 451 121<1536 1536>
LayerCount: 2
Fore
SplineSet
924 1085 m 1
 924 993 l 1
 758 1009 635 1068 539 1174 c 0
 531 1184 520 1192 512 1200 c 1
 502 1192 493 1184 483 1174 c 0
 385 1065 266 1009 98 993 c 1
 98 1085 l 1
 284 1179 441 1378 451 1536 c 1
 571 1536 l 1
 581 1380 738 1181 924 1085 c 1
EndSplineSet
EndChar

StartChar: underscore
Encoding: 95 95 63
Width: 1019
GlyphClass: 2
Flags: HMW
HStem: -512 104<-2 1022 -2 1022>
LayerCount: 2
Fore
SplineSet
-2 -408 m 1
 1022 -408 l 1
 1022 -512 l 1
 -2 -512 l 1
 -2 -408 l 1
EndSplineSet
EndChar

StartChar: quoteleft
Encoding: 8216 8216 64
Width: 491
GlyphClass: 2
Flags: HMW
HStem: 881 43G<443 517> 1356 68
VStem: 311 131<1150 1169>
LayerCount: 2
Fore
SplineSet
657 1423 m 1
 665 1403 668 1388 668 1370 c 0
 668 1368 668 1362 666 1356 c 0
 525 1325 442 1255 442 1161 c 0
 442 1138 453 1112 467 1096 c 0
 481 1082 482 1081 545 1040 c 0
 576 1022 590 1002 590 975 c 0
 590 924 544 881 489 881 c 0
 397 881 311 977 311 1081 c 0
 311 1257 462 1407 657 1423 c 1
EndSplineSet
EndChar

StartChar: a
Encoding: 97 97 65
Width: 944
GlyphClass: 2
Flags: HMW
HStem: -35 141<62 241> 723 121 870 41G<809 843>
VStem: -4 152<167 183> 512 143<36 232> 854 39<244 279>
LayerCount: 2
Fore
SplineSet
860 293 m 1
 897 262 l 1
 893 244 l 2
 887 221 887 221 754 59 c 0
 709 2 643 -35 590 -35 c 0
 543 -35 512 7 512 66 c 0
 512 129 519 156 578 381 c 1
 357 72 231 -35 92 -35 c 0
 33 -35 -4 21 -4 113 c 0
 -4 254 94 440 254 602 c 0
 404 752 565 844 682 844 c 0
 700 844 712 842 745 836 c 1
 758 860 l 2
 778 901 790 911 827 911 c 0
 858 911 870 905 870 889 c 0
 870 883 868 872 864 864 c 0
 747 590 655 284 655 180 c 0
 655 147 668 129 688 129 c 0
 713 129 735 141 772 178 c 0
 803 207 850 267 854 279 c 2
 860 293 l 1
594 723 m 0
 490 729 344 617 244 455 c 0
 187 363 147 259 147 193 c 0
 147 142 170 106 203 106 c 0
 279 106 397 213 524 397 c 0
 600 506 662 627 662 672 c 0
 662 703 637 721 594 723 c 0
EndSplineSet
Substitution2: "smcpLowercasetoSmallCapitalslookup subtable" a.smcp
EndChar

StartChar: b
Encoding: 98 98 66
Width: 980
GlyphClass: 2
Flags: HMW
HStem: -35 92<306 374 306 416> 864 41G<781 902> 1489 47<317 324>
VStem: 84 147<56 186> 444 215<1403 1576> 860 160<645 729>
LayerCount: 2
Fore
SplineSet
317 1489 m 1
 324 1536 l 1
 375 1544 l 2
 410 1548 440 1552 469 1556 c 0
 504 1564 536 1573 569 1579 c 0
 600 1587 609 1587 621 1587 c 2
 639 1587 l 2
 651 1587 659 1581 659 1571 c 0
 659 1567 657 1558 653 1548 c 0
 649 1538 645 1525 641 1511 c 2
 606 1407 l 1
 313 455 l 1
 551 777 706 905 856 905 c 0
 948 905 1020 817 1020 702 c 0
 1020 399 573 -35 258 -35 c 0
 166 -35 84 25 84 88 c 0
 84 111 84 110 145 319 c 2
 236 608 l 2
 285 772 354 1018 389 1163 c 0
 401 1212 414 1262 428 1313 c 0
 438 1352 444 1390 444 1415 c 0
 444 1462 419 1477 317 1489 c 1
793 803 m 0
 703 811 520 649 360 418 c 0
 270 289 231 211 231 162 c 0
 231 101 275 57 338 57 c 0
 410 57 508 120 604 229 c 0
 758 401 860 589 860 700 c 0
 860 757 834 799 793 803 c 0
EndSplineSet
Substitution2: "smcpLowercasetoSmallCapitalslookup subtable" b.smcp
EndChar

StartChar: c
Encoding: 99 99 67
Width: 755
GlyphClass: 2
Flags: HMW
HStem: -35 117<344 401> 838 68<527 581>
VStem: 61 162<240 367 240 432> 641 143<780 795>
LayerCount: 2
Fore
SplineSet
594 176 m 1
 629 145 l 1
 547 16 463 -35 340 -35 c 0
 172 -35 61 86 61 268 c 0
 61 596 309 905 571 905 c 0
 694 905 784 850 784 774 c 0
 784 727 756 696 709 696 c 0
 668 696 643 727 641 780 c 0
 641 809 639 817 629 823 c 0
 617 831 592 838 569 838 c 0
 485 838 401 780 340 682 c 0
 268 567 223 424 223 309 c 0
 223 170 291 82 397 82 c 0
 469 82 528 110 594 176 c 1
EndSplineSet
Substitution2: "smcpLowercasetoSmallCapitalslookup subtable" c.smcp
EndChar

StartChar: d
Encoding: 100 100 68
Width: 1019
GlyphClass: 2
Flags: HMW
HStem: -35 143<257 266> 864 41G<461 634> 1473 47<766 772 772 772 772 805>
VStem: 25 164<187 283 187 375> 582 150<31 183> 895 203<1388 1571>
LayerCount: 2
Fore
SplineSet
766 1473 m 1
 772 1520 l 1
 809 1524 953 1555 1012 1571 c 0
 1043 1581 1049 1583 1057 1583 c 0
 1059 1583 1059 1583 1071 1581 c 2
 1083 1579 l 2
 1093 1577 1098 1575 1098 1567 c 0
 1098 1559 1096 1548 1092 1532 c 2
 756 295 l 2
 731 193 731 192 731 174 c 0
 731 151 750 129 770 129 c 0
 809 129 844 164 928 289 c 2
 956 330 l 1
 1001 305 l 1
 954 227 l 2
 854 59 750 -35 666 -35 c 0
 617 -35 582 4 582 57 c 0
 582 106 590 137 649 340 c 2
 668 399 l 1
 467 86 336 -35 197 -35 c 0
 88 -35 25 51 25 201 c 0
 25 549 317 905 604 905 c 0
 663 905 702 893 768 852 c 1
 868 1262 l 2
 895 1375 895 1374 895 1401 c 0
 895 1450 866 1473 805 1473 c 2
 766 1473 l 1
578 838 m 0
 508 842 421 784 360 692 c 0
 258 536 188 346 188 219 c 0
 188 156 230 109 285 109 c 0
 340 109 395 148 475 238 c 0
 596 377 711 600 711 696 c 0
 711 772 654 834 578 838 c 0
EndSplineSet
Substitution2: "smcpLowercasetoSmallCapitalslookup subtable" d.smcp
EndChar

StartChar: e
Encoding: 101 101 69
Width: 755
GlyphClass: 2
Flags: HMW
HStem: -35 117<324 371> 846 59<498 568>
VStem: 47 162<228 312 228 346> 631 141<688 772>
LayerCount: 2
Fore
SplineSet
614 199 m 1
 655 166 l 1
 633 133 l 2
 557 29 434 -35 307 -35 c 0
 143 -35 47 76 47 262 c 0
 47 430 114 610 229 743 c 0
 319 849 434 905 561 905 c 0
 690 905 772 841 772 741 c 0
 772 563 569 449 217 424 c 1
 211 358 209 332 209 293 c 0
 209 164 273 82 375 82 c 0
 453 82 533 117 588 172 c 2
 614 199 l 1
229 473 m 1
 241 475 244 475 258 475 c 0
 315 479 373 492 424 512 c 0
 563 565 631 639 631 737 c 0
 631 807 598 846 539 846 c 0
 418 846 309 715 229 473 c 1
EndSplineSet
Substitution2: "smcpLowercasetoSmallCapitalslookup subtable" e.smcp
EndChar

StartChar: f
Encoding: 102 102 70
Width: 565
GlyphClass: 2
Flags: HMW
HStem: -545 119<-249 -100> 797 80<118 291 154 268 438 582 582 584> 1503 80<772 778>
VStem: 838 145
LayerCount: 2
Fore
SplineSet
268 797 m 1
 131 797 l 2
 104 797 98 799 98 807 c 0
 98 809 98 813 100 817 c 2
 104 827 l 1
 113 856 l 2
 119 874 121 877 154 877 c 2
 291 877 l 1
 317 977 l 2
 366 1165 442 1329 532 1438 c 0
 606 1526 719 1583 825 1583 c 0
 913 1583 983 1530 983 1462 c 0
 983 1411 944 1370 895 1370 c 0
 864 1370 848 1384 838 1423 c 0
 822 1486 803 1503 754 1503 c 0
 650 1503 580 1386 492 1075 c 2
 438 877 l 1
 614 877 l 2
 634 877 641 874 641 868 c 0
 641 866 641 864 639 860 c 2
 635 850 l 1
 627 819 l 2
 621 799 609 793 584 797 c 2
 582 797 l 1
 418 797 l 1
 256 197 l 2
 193 -36 110 -236 18 -377 c 0
 -50 -479 -141 -545 -221 -545 c 0
 -276 -545 -317 -508 -317 -459 c 0
 -317 -414 -287 -381 -244 -381 c 0
 -219 -381 -205 -387 -182 -403 c 0
 -157 -421 -147 -426 -133 -426 c 0
 -67 -426 -4 -278 94 109 c 2
 268 797 l 1
EndSplineSet
Substitution2: "smcpLowercasetoSmallCapitalslookup subtable" f.smcp
EndChar

StartChar: g
Encoding: 103 103 71
Width: 868
GlyphClass: 2
Flags: HW
HStem: -545 80<304 468 304 499> 240 68<387 444> 745 94<748 811> 838 68<435 510 364 524>
VStem: -47 131<-311 -232> 92 143<472 518 424 649> 141 139<83 173> 641 129<-362 -281>
LayerCount: 2
Fore
SplineSet
909 842 m 1xed
 879 748 l 1
 748 745 l 1
 771 692 776 659 776 606 c 0
 776 508 744 430 672 360 c 0
 596 284 493 240 395 240 c 0
 379 240 361 242 330 246 c 1
 291 201 281 185 281 162 c 0
 281 127 327 90 477 12 c 0
 715 -113 770 -168 770 -285 c 0
 770 -443 617 -545 381 -545 c 0
 139 -545 -47 -422 -47 -262 c 0
 -47 -203 -20 -143 23 -102 c 0
 46 -79 86 -57 178 -10 c 0
 190 -4 203 2 213 8 c 1
 164 39 141 67 141 98 c 0xeb
 141 129 182 180 272 260 c 1
 149 311 92 402 92 543 c 0
 92 756 250 905 477 905 c 0
 543 905 600 893 643 868 c 0
 702 837 702 838 741 838 c 2xdd
 811 840 l 1
 909 842 l 1xed
475 838 m 0xdd
 395 838 334 801 295 729 c 0
 258 657 236 565 236 471 c 0
 236 377 299 307 385 307 c 0
 520 307 635 469 635 655 c 0
 635 768 573 838 475 838 c 0xdd
270 -25 m 1
 260 -31 260 -31 250 -35 c 0
 139 -90 84 -162 84 -248 c 0
 84 -375 213 -465 395 -465 c 0
 540 -465 641 -405 641 -319 c 0
 641 -241 538 -162 270 -25 c 1
EndSplineSet
Substitution2: "smcpLowercasetoSmallCapitalslookup subtable" g.smcp
EndChar

StartChar: h
Encoding: 104 104 72
Width: 980
GlyphClass: 2
Flags: HMW
HStem: -35 129<490 589> 782 123<690 830> 1475 49<270 285>
VStem: 16 106 397 209<1378 1570> 782 162<664 713>
LayerCount: 2
Fore
SplineSet
571 1583 m 2
 594 1581 606 1575 606 1565 c 0
 606 1561 604 1552 602 1542 c 0
 555 1401 514 1263 481 1126 c 1
 258 406 l 1
 377 584 479 710 565 788 c 0
 651 866 733 905 811 905 c 0
 850 905 882 887 907 850 c 0
 932 813 944 764 944 705 c 0
 944 623 926 530 889 430 c 0
 854 328 804 231 745 141 c 0
 708 86 668 43 627 12 c 0
 582 -19 543 -35 504 -35 c 0
 477 -35 456 -26 438 -12 c 0
 420 2 412 21 412 41 c 0
 412 66 418 86 434 102 c 0
 446 118 464 127 487 127 c 0
 501 127 514 123 528 115 c 0
 551 101 567 94 573 94 c 0
 604 94 639 131 674 203 c 0
 701 262 725 340 750 440 c 0
 770 540 782 619 782 678 c 0
 782 748 764 782 727 782 c 0
 653 782 562 710 451 569 c 0
 310 387 213 223 162 78 c 0
 144 27 131 -4 123 -16 c 0
 113 -30 100 -37 84 -37 c 0
 68 -37 53 -30 37 -20 c 0
 25 -10 16 2 16 16 c 0
 16 34 23 61 33 94 c 0
 45 131 51 152 53 158 c 0
 63 191 76 229 86 272 c 2
 256 821 l 2
 289 927 319 1042 352 1167 c 0
 381 1292 397 1366 397 1391 c 0
 397 1418 389 1438 369 1450 c 0
 353 1462 317 1471 270 1475 c 1
 285 1524 l 1
 377 1538 456 1555 524 1575 c 0
 544 1581 555 1583 557 1583 c 2
 571 1583 l 2
EndSplineSet
Substitution2: "smcpLowercasetoSmallCapitalslookup subtable" h.smcp
EndChar

StartChar: i
Encoding: 105 105 73
Width: 604
GlyphClass: 2
Flags: HW
HStem: -35 141<169 341> 764 141<285 440> 1274 186<465 516>
VStem: 100 172<28 161> 334 170<721 848> 397 186<1342 1393>
LayerCount: 2
Fore
SplineSet
188 678 m 1xf8
 131 711 l 1
 240 838 338 905 418 905 c 0
 463 905 504 868 504 827 c 0
 504 786 480 718 326 315 c 0
 281 196 272 170 272 152 c 0
 272 129 294 106 319 106 c 0
 362 106 426 162 508 268 c 2
 532 299 l 1
 571 260 l 1
 541 217 l 2
 437 72 293 -35 197 -35 c 0
 142 -35 100 2 100 53 c 0
 100 90 102 96 145 209 c 0
 184 305 282 567 315 657 c 0
 327 686 334 713 334 729 c 0
 334 745 315 764 297 764 c 0
 272 764 233 733 188 678 c 1xf8
489 1460 m 0
 542 1460 584 1419 584 1366 c 0
 584 1315 542 1274 489 1274 c 0
 440 1274 397 1317 397 1368 c 0xf4
 397 1417 438 1460 489 1460 c 0
EndSplineSet
Substitution2: "smcpLowercasetoSmallCapitalslookup subtable" i.smcp
EndChar

StartChar: j
Encoding: 106 106 74
Width: 491
GlyphClass: 2
Flags: HW
HStem: -545 115<-180 -81> 760 145<214 367> 1278 186<433 481>
VStem: 260 166<712 844> 365 186<1347 1396>
LayerCount: 2
Fore
SplineSet
-23 -299 m 2xf0
 193 436 l 2
 201 475 209 510 219 541 c 0
 225 568 234 593 240 618 c 0
 256 675 260 700 260 723 c 0
 260 743 245 760 227 760 c 0
 200 760 188 752 137 705 c 2
 98 666 l 2
 94 660 90 657 86 657 c 2
 86 657 84 660 76 666 c 2
 63 680 l 2
 61 682 55 692 55 694 c 0
 55 698 75 723 98 748 c 0
 198 854 277 905 340 905 c 0
 393 905 426 870 426 817 c 0
 426 764 412 693 377 578 c 2
 182 -59 l 2
 92 -354 -43 -545 -162 -545 c 0
 -199 -545 -225 -514 -225 -475 c 0
 -225 -430 -199 -391 -170 -391 c 0
 -158 -391 -152 -395 -117 -420 c 0
 -109 -426 -100 -430 -94 -430 c 0
 -67 -430 -52 -401 -23 -299 c 2xf0
459 1464 m 0
 510 1464 551 1423 551 1372 c 0
 551 1321 508 1278 455 1278 c 0
 406 1278 365 1319 365 1370 c 0xe8
 365 1421 408 1464 459 1464 c 0
EndSplineSet
Substitution2: "smcpLowercasetoSmallCapitalslookup subtable" j.smcp
EndChar

StartChar: k
Encoding: 107 107 75
Width: 1019
GlyphClass: 2
Flags: HMW
HStem: -35 117<604 756> 434 57 797 109<701 752> 1485 49<276 287>
VStem: 831 150<679 722>
LayerCount: 2
Fore
SplineSet
276 1485 m 1
 287 1534 l 1
 385 1550 438 1561 506 1581 c 0
 539 1591 551 1593 561 1593 c 2
 573 1593 l 1
 588 1591 l 2
 598 1589 602 1587 602 1581 c 0
 602 1577 600 1571 598 1565 c 0
 586 1522 571 1481 559 1436 c 2
 313 600 l 1
 487 815 624 905 778 905 c 0
 893 905 981 824 981 715 c 0
 981 643 940 579 862 526 c 0
 770 467 672 442 492 434 c 1
 525 401 551 352 588 254 c 0
 641 115 668 82 731 82 c 0
 780 82 862 136 913 199 c 2
 930 221 l 1
 961 184 l 1
 946 160 l 2
 932 137 912 113 887 86 c 0
 807 4 733 -35 655 -35 c 0
 553 -35 506 20 440 215 c 0
 393 360 346 426 272 453 c 1
 154 39 l 2
 136 -20 125 -35 96 -35 c 0
 51 -35 20 -17 20 12 c 0
 20 30 20 30 43 106 c 2
 346 1194 l 2
 375 1294 393 1378 393 1407 c 0
 393 1454 362 1475 276 1485 c 1
295 502 m 1
 408 492 414 492 461 492 c 0
 680 492 831 573 831 690 c 0
 831 753 785 797 719 797 c 0
 598 797 451 695 295 502 c 1
EndSplineSet
Substitution2: "smcpLowercasetoSmallCapitalslookup subtable" k.smcp
EndChar

StartChar: l
Encoding: 108 108 76
Width: 565
GlyphClass: 2
Flags: HMW
HStem: -35 154<116 287> 1481 45
VStem: 51 172<27 176> 410 211<1378 1575>
LayerCount: 2
Fore
SplineSet
471 281 m 1
 508 244 l 1
 483 213 l 2
 440 162 364 88 305 43 c 0
 233 -14 188 -35 137 -35 c 0
 94 -35 51 6 51 47 c 0
 51 70 51 69 84 190 c 2
 377 1231 l 2
 395 1292 410 1366 410 1391 c 0
 410 1442 369 1471 287 1481 c 1
 289 1501 291 1512 297 1526 c 1
 309 1528 l 1
 412 1546 l 2
 426 1548 497 1567 524 1575 c 0
 553 1583 559 1585 569 1585 c 0
 573 1585 574 1585 584 1583 c 2
 602 1583 l 2
 616 1581 621 1579 621 1571 c 0
 621 1569 620 1569 614 1546 c 2
 256 309 l 2
 233 229 223 189 223 164 c 0
 223 137 241 119 268 119 c 0
 305 119 344 145 422 227 c 2
 471 281 l 1
EndSplineSet
Substitution2: "smcpLowercasetoSmallCapitalslookup subtable" l.smcp
EndChar

StartChar: m
Encoding: 109 109 77
Width: 1660
GlyphClass: 2
Flags: HMW
HStem: -35 43G<117 153 640 673 1196 1243> 795 109
VStem: 303 117<653 819> 594 145 821 115<697 824> 1393 143<742 743>
LayerCount: 2
Fore
SplineSet
915 641 m 2
 899 563 l 1
 993 669 1024 703 1071 748 c 0
 1169 844 1301 905 1405 905 c 0
 1483 905 1536 852 1536 776 c 0
 1536 708 1530 690 1440 473 c 2
 1407 393 l 1
 1393 354 l 1
 1356 258 l 2
 1344 229 1337 202 1337 186 c 0
 1337 168 1352 154 1370 154 c 0
 1405 154 1430 172 1559 297 c 1
 1595 258 l 1
 1540 199 1510 165 1444 106 c 0
 1329 2 1270 -35 1217 -35 c 0
 1176 -35 1145 -6 1145 35 c 0
 1145 64 1174 146 1268 375 c 0
 1356 596 1393 696 1393 727 c 0
 1393 760 1354 795 1317 795 c 0
 1204 795 1045 649 922 438 c 0
 881 368 784 176 739 74 c 0
 702 -12 686 -35 659 -35 c 0
 620 -35 594 -15 594 14 c 0
 594 32 594 33 647 174 c 0
 735 401 821 674 821 721 c 0
 821 762 789 795 750 795 c 0
 670 795 557 688 436 498 c 0
 354 367 324 305 250 123 c 0
 201 2 172 -35 133 -35 c 0
 100 -35 72 -11 72 16 c 0
 72 43 72 45 217 385 c 0
 262 489 303 629 303 678 c 0
 303 717 285 739 254 739 c 0
 213 739 184 713 135 623 c 0
 125 605 121 600 115 600 c 0
 113 600 108 602 104 604 c 2
 84 616 l 2
 78 620 76 625 76 629 c 0
 76 631 76 635 80 639 c 0
 90 662 103 680 113 694 c 0
 125 712 135 734 145 752 c 0
 196 840 275 903 332 903 c 0
 383 903 420 854 420 784 c 0
 420 739 416 718 385 573 c 1
 563 792 715 903 836 903 c 0
 895 903 936 859 936 791 c 0
 936 760 927 700 915 641 c 2
EndSplineSet
Substitution2: "smcpLowercasetoSmallCapitalslookup subtable" m.smcp
EndChar

StartChar: n
Encoding: 110 110 78
Width: 1132
GlyphClass: 2
Flags: HMW
HStem: -35 172<669 851> 799 106<813 823>
VStem: 322 117<672 826> 870 154<718 822>
LayerCount: 2
Fore
SplineSet
135 621 m 1
 94 653 l 1
 182 823 268 905 360 905 c 0
 407 905 438 861 438 793 c 0
 438 742 436 727 389 543 c 1
 592 793 744 905 883 905 c 0
 963 905 1024 854 1024 791 c 0
 1024 732 1001 662 901 424 c 0
 840 279 805 180 805 162 c 0
 805 148 815 137 831 137 c 0
 870 137 936 180 1014 258 c 2
 1032 276 l 1
 1069 240 l 1
 1040 207 l 2
 993 152 906 74 834 25 c 0
 768 -18 731 -35 688 -35 c 0
 649 -35 616 -4 616 31 c 0
 616 60 617 59 719 315 c 0
 848 634 870 698 870 737 c 0
 870 768 840 799 807 799 c 0
 705 799 549 653 410 424 c 0
 357 338 332 287 266 133 c 0
 209 -4 189 -35 156 -35 c 0
 117 -35 80 -13 80 12 c 0
 80 24 80 25 238 406 c 0
 281 521 322 655 322 688 c 0
 322 719 299 743 272 743 c 0
 231 743 201 715 135 621 c 1
EndSplineSet
Substitution2: "smcpLowercasetoSmallCapitalslookup subtable" n.smcp
EndChar

StartChar: o
Encoding: 111 111 79
Width: 944
GlyphClass: 2
Flags: HMW
HStem: -35 66<330 422 330 501> 838 68<524 608>
VStem: 78 152<226 342 199 409> 713 162<570 657 402 694>
LayerCount: 2
Fore
SplineSet
559 905 m 0
 741 905 874 758 874 557 c 0
 874 248 633 -35 369 -35 c 0
 195 -35 78 115 78 338 c 0
 78 479 140 637 242 748 c 0
 336 854 442 905 559 905 c 0
563 838 m 0
 485 838 413 793 358 705 c 0
 282 584 229 407 229 276 c 0
 229 120 283 31 377 31 c 0
 467 31 557 102 612 221 c 0
 675 354 713 508 713 633 c 0
 713 756 653 838 563 838 c 0
EndSplineSet
Substitution2: "smcpLowercasetoSmallCapitalslookup subtable" o.smcp
EndChar

StartChar: p
Encoding: 112 112 80
Width: 944
GlyphClass: 2
Flags: HMW
HStem: -569 53<-164 -164 -164 -158> -35 80<361 409> 784 92
VStem: 756 162<564 666>
LayerCount: 2
Fore
SplineSet
315 801 m 1
 336 877 l 2
 373 1024 383 1038 444 1038 c 0
 489 1038 508 1029 508 1004 c 0
 508 990 508 989 492 926 c 2
 467 831 l 1
 625 868 666 877 721 877 c 0
 834 877 918 774 918 639 c 0
 918 485 825 289 682 135 c 0
 576 22 465 -35 352 -35 c 0
 313 -35 289 -28 242 -8 c 1
 145 -311 l 2
 120 -387 111 -426 111 -446 c 0
 111 -487 137 -506 211 -514 c 0
 252 -518 256 -518 256 -528 c 2
 256 -539 l 1
 254 -557 l 2
 252 -565 250 -569 240 -569 c 0
 238 -569 162 -565 12 -559 c 0
 -19 -559 -25 -561 -127 -567 c 0
 -141 -569 -154 -569 -162 -569 c 0
 -174 -569 -176 -565 -176 -551 c 2
 -176 -537 l 2
 -176 -531 -174 -522 -172 -520 c 2
 -164 -516 l 1
 -119 -508 l 2
 -72 -496 -61 -487 -43 -436 c 0
 -27 -389 -10 -340 4 -291 c 2
 141 166 l 2
 178 285 178 285 295 719 c 1
 232 701 159 672 59 627 c 1
 43 684 l 1
 74 702 159 740 315 801 c 1
444 756 m 1
 309 250 l 2
 289 176 287 163 287 143 c 0
 287 88 332 45 391 45 c 0
 467 45 548 106 616 219 c 0
 702 360 756 512 756 616 c 0
 756 714 692 784 606 784 c 0
 559 784 528 779 444 756 c 1
EndSplineSet
Substitution2: "smcpLowercasetoSmallCapitalslookup subtable" p.smcp
EndChar

StartChar: q
Encoding: 113 113 81
Width: 983
GlyphClass: 2
Flags: HW
HStem: -541 53 -37 80<213 274> 862 41G<956 977 977 985>
VStem: 799 199<604 897> 926 63<860 879>
LayerCount: 2
Fore
SplineSet
881 811 m 1xe8
 926 879 l 2xe8
 940 899 944 903 956 903 c 2
 977 903 l 2
 993 903 997 901 997 893 c 0xf0
 997 887 995 883 989 860 c 2
 788 197 l 2
 759 109 758 98 711 -90 c 0
 701 -129 688 -170 676 -217 c 0
 639 -346 631 -381 631 -408 c 0
 631 -455 662 -481 723 -487 c 0
 754 -489 756 -492 758 -496 c 0
 760 -498 760 -500 760 -512 c 2
 760 -526 l 2
 758 -536 753 -541 743 -541 c 0
 702 -541 657 -539 614 -537 c 0
 573 -535 544 -532 530 -532 c 0
 516 -532 485 -535 444 -539 c 0
 389 -543 352 -545 319 -545 c 0
 303 -545 301 -542 301 -526 c 2
 301 -508 l 2
 301 -488 301 -487 358 -483 c 0
 426 -481 444 -461 487 -330 c 2
 700 319 l 1
 493 67 348 -37 201 -37 c 0
 97 -37 20 66 20 205 c 0
 20 512 395 905 686 905 c 0
 758 905 811 881 881 811 c 1xe8
688 838 m 0
 602 844 479 758 377 623 c 0
 252 457 164 273 152 152 c 0
 146 91 185 43 242 43 c 0
 443 43 799 481 799 727 c 0xf0
 799 790 756 834 688 838 c 0
EndSplineSet
Substitution2: "smcpLowercasetoSmallCapitalslookup subtable" q.smcp
EndChar

StartChar: r
Encoding: 114 114 82
Width: 792
GlyphClass: 2
Flags: HW
HStem: -35 43G<190 230> 741 164<223 349> 764 141
VStem: 139 193 317 117<605 794>
LayerCount: 2
Fore
SplineSet
106 625 m 1xc8
 68 649 l 1
 172 839 235 905 315 905 c 0
 383 905 434 838 434 750 c 0xc8
 434 711 422 614 408 559 c 2
 391 485 l 1
 426 561 459 616 537 727 c 0
 625 858 682 905 750 905 c 0
 811 905 856 864 856 809 c 0
 856 754 811 713 754 713 c 0
 723 713 701 725 678 752 c 0
 672 760 666 764 662 764 c 0
 646 764 613 733 580 684 c 0
 474 530 426 430 332 162 c 0
 275 2 252 -35 209 -35 c 0
 172 -35 139 -16 139 4 c 0xb0
 139 16 140 17 160 78 c 2
 236 309 l 2
 299 499 317 576 317 635 c 0
 317 703 291 741 246 741 c 0
 201 741 178 723 106 625 c 1xc8
EndSplineSet
Substitution2: "smcpLowercasetoSmallCapitalslookup subtable" r.smcp
EndChar

StartChar: s
Encoding: 115 115 83
Width: 604
GlyphClass: 2
Flags: HMW
HStem: -35 119<108 270> 825 80<340 483>
VStem: 125 117<579 730> 371 141<178 309>
LayerCount: 2
Fore
SplineSet
66 166 m 0
 93 166 98 164 143 119 c 0
 163 99 205 84 236 84 c 0
 306 84 371 145 371 211 c 0
 371 260 359 278 248 401 c 0
 150 510 125 551 125 606 c 0
 125 669 164 754 219 811 c 0
 276 872 352 905 434 905 c 0
 532 905 596 868 596 809 c 0
 596 762 569 725 532 725 c 0
 503 725 498 731 459 782 c 0
 439 809 406 825 371 825 c 0
 310 825 242 759 242 700 c 0
 242 665 271 623 367 514 c 0
 494 371 512 340 512 279 c 0
 512 218 469 138 397 70 c 0
 323 -2 248 -35 160 -35 c 0
 56 -35 -6 10 -6 88 c 0
 -6 133 23 166 66 166 c 0
EndSplineSet
Substitution2: "smcpLowercasetoSmallCapitalslookup subtable" s.smcp
EndChar

StartChar: t
Encoding: 116 116 84
Width: 641
GlyphClass: 2
Flags: HMW
HStem: -35 131<172 343> 799 78<159 313 190 289 442 606 606 623 623 633>
VStem: 92 160<33 167>
LayerCount: 2
Fore
SplineSet
289 799 m 1
 176 799 l 2
 141 799 135 801 135 811 c 0
 135 817 135 821 137 825 c 2
 145 856 l 2
 151 876 153 877 190 877 c 2
 313 877 l 1
 344 991 l 2
 369 1083 383 1100 436 1100 c 0
 469 1100 492 1087 492 1067 c 0
 492 1061 489 1050 487 1040 c 2
 475 1001 l 1
 442 877 l 1
 623 877 l 2
 666 877 672 874 672 860 c 0
 672 854 672 850 670 844 c 2
 664 819 l 2
 660 807 657 805 649 801 c 0
 647 799 643 799 633 799 c 2
 606 799 l 1
 424 799 l 1
 285 297 l 2
 252 178 252 179 252 156 c 0
 252 121 276 96 315 96 c 0
 370 96 458 149 532 227 c 2
 557 252 l 1
 594 213 l 1
 567 180 l 2
 553 164 510 121 477 94 c 0
 379 8 289 -35 207 -35 c 0
 137 -35 92 4 92 61 c 0
 92 86 94 98 117 174 c 2
 289 799 l 1
EndSplineSet
Substitution2: "smcpLowercasetoSmallCapitalslookup subtable" t.smcp
EndChar

StartChar: u
Encoding: 117 117 85
Width: 1056
GlyphClass: 2
Flags: HMW
HStem: -35 174<617 788> 731 174<263 428>
VStem: 68 174<24 210>
LayerCount: 2
Fore
SplineSet
961 348 m 1
 1006 319 l 1
 985 289 l 2
 915 183 886 143 827 86 c 0
 753 8 682 -35 633 -35 c 0
 602 -35 569 2 569 37 c 0
 569 64 569 64 635 254 c 2
 750 563 l 1
 412 196 400 185 281 76 c 0
 199 4 148 -33 125 -33 c 0
 100 -33 68 8 68 39 c 0
 68 90 117 246 178 391 c 2
 260 582 l 2
 289 648 299 680 299 698 c 0
 299 716 286 731 272 731 c 0
 254 731 232 719 195 684 c 0
 168 659 162 653 156 653 c 0
 154 653 153 654 145 662 c 2
 135 670 l 2
 131 674 127 680 127 682 c 0
 127 694 174 748 233 803 c 0
 317 881 359 905 410 905 c 0
 447 905 475 881 475 850 c 0
 475 834 458 768 446 737 c 2
 272 299 l 2
 249 244 242 217 242 203 c 0
 242 191 256 176 266 176 c 0
 295 176 434 309 551 446 c 0
 694 618 764 713 846 852 c 0
 866 887 888 905 915 905 c 0
 944 905 969 883 969 858 c 0
 969 846 956 805 940 758 c 2
 805 395 l 2
 737 209 735 202 735 184 c 0
 735 159 752 139 770 139 c 0
 807 139 848 183 944 324 c 2
 961 348 l 1
EndSplineSet
Substitution2: "smcpLowercasetoSmallCapitalslookup subtable" u.smcp
EndChar

StartChar: v
Encoding: 118 118 86
Width: 1056
GlyphClass: 2
Flags: HMW
HStem: -35 139<476 506> 770 135<296 323 293 364>
VStem: 63 92<553 693> 270 131<203 268> 944 117<666 671>
LayerCount: 2
Fore
SplineSet
666 905 m 1
 684 870 l 1
 512 688 401 447 401 248 c 0
 401 158 442 104 510 104 c 0
 692 104 944 414 944 637 c 0
 944 705 921 745 868 770 c 1
 862 782 860 791 860 801 c 0
 860 864 899 905 954 905 c 0
 1022 905 1061 850 1061 756 c 0
 1061 576 955 340 791 158 c 0
 678 31 562 -35 451 -35 c 0
 347 -35 270 62 270 197 c 0
 270 340 337 486 532 762 c 1
 479 764 l 2
 420 768 372 770 354 770 c 0
 237 770 156 725 156 662 c 0
 156 642 159 632 186 612 c 0
 204 596 211 585 211 569 c 0
 211 530 176 498 133 498 c 0
 92 498 63 530 63 575 c 0
 63 651 111 740 207 846 c 0
 250 895 270 905 315 905 c 0
 329 905 362 903 391 901 c 0
 424 897 453 895 465 895 c 0
 483 895 508 897 545 899 c 0
 586 901 598 901 666 905 c 1
EndSplineSet
Substitution2: "smcpLowercasetoSmallCapitalslookup subtable" v.smcp
EndChar

StartChar: w
Encoding: 119 119 87
Width: 1472
GlyphClass: 2
Flags: HW
HStem: -33 133<495 504> 770 119<464 563 513 543> 782 123<287 311 287 318> 797 109<982 1001>
VStem: 70 78<558 694> 256 141<207 226> 717 90 1036 70<728 754> 1376 92<599 678>
LayerCount: 2
Fore
SplineSet
543 770 m 1xcf80
 477 770 l 2xcf80
 450 770 426 772 397 774 c 0
 358 780 325 782 311 782 c 0
 227 782 147 725 147 664 c 0
 147 637 154 626 174 614 c 0
 201 598 211 582 211 553 c 0
 211 516 186 492 147 492 c 0
 98 492 70 529 70 588 c 0
 70 674 113 760 201 848 c 0
 248 893 268 905 305 905 c 0xaf80
 317 905 371 901 428 893 c 0
 457 891 493 889 532 889 c 0xcf80
 593 889 619 891 672 905 c 1
 696 868 l 1
 626 798 590 753 551 692 c 0
 465 555 397 359 397 246 c 0
 397 168 458 100 530 100 c 0
 591 100 662 137 717 203 c 1
 723 404 776 624 856 774 c 0
 903 866 953 905 1012 905 c 0
 1067 905 1106 859 1106 793 c 0
 1106 664 1020 492 834 250 c 1
 863 148 908 98 969 98 c 0
 1121 98 1376 442 1376 645 c 0
 1376 711 1348 749 1274 788 c 0
 1272 794 1272 799 1272 805 c 0
 1272 862 1309 905 1362 905 c 0x9f80
 1423 905 1468 844 1468 756 c 0
 1468 443 1122 -35 895 -35 c 0
 825 -35 776 13 733 119 c 1
 629 13 547 -33 461 -33 c 0
 342 -33 256 57 256 180 c 0
 256 272 285 367 334 451 c 2
 481 674 l 1
 543 770 l 1xcf80
817 313 m 1
 831 325 834 326 838 330 c 0
 858 350 891 396 928 451 c 0
 1008 576 1036 653 1036 735 c 0
 1036 772 1016 797 987 797 c 0x9f80
 895 797 807 598 807 387 c 0
 807 358 809 344 817 313 c 1
EndSplineSet
Substitution2: "smcpLowercasetoSmallCapitalslookup subtable" w.smcp
EndChar

StartChar: x
Encoding: 120 120 88
Width: 944
GlyphClass: 2
Flags: HMW
HStem: -35 135 776 129<245 255>
VStem: 799 119
LayerCount: 2
Fore
SplineSet
117 674 m 1
 76 694 l 1
 164 864 205 905 285 905 c 0
 369 905 424 837 457 696 c 0
 477 608 482 596 492 563 c 1
 512 590 l 1
 618 752 l 2
 686 854 755 905 829 905 c 0
 882 905 918 858 918 788 c 0
 918 729 893 692 852 692 c 0
 819 692 805 704 799 737 c 0
 793 770 784 782 766 782 c 0
 735 782 704 756 645 678 c 0
 602 619 547 538 510 477 c 1
 530 354 567 236 610 166 c 0
 637 119 663 100 696 100 c 0
 739 100 792 148 827 211 c 2
 848 250 l 1
 893 227 l 1
 881 197 l 2
 871 170 852 135 829 102 c 0
 770 10 707 -35 633 -35 c 0
 572 -35 524 2 487 78 c 0
 471 111 459 156 418 322 c 2
 410 354 l 1
 351 254 258 125 199 59 c 0
 144 -4 102 -29 55 -29 c 0
 14 -29 -10 4 -10 57 c 0
 -10 104 12 135 47 135 c 0
 65 135 75 132 104 109 c 0
 112 103 121 100 127 100 c 0
 172 100 262 215 389 432 c 1
 346 639 282 776 227 776 c 0
 192 776 162 748 117 674 c 1
EndSplineSet
Substitution2: "smcpLowercasetoSmallCapitalslookup subtable" x.smcp
EndChar

StartChar: y
Encoding: 121 121 89
Width: 905
GlyphClass: 2
Flags: HMW
HStem: -530 150<-10 136> 762 143<226 278>
VStem: 397 123<55 55 55 325> 737 137<825 837 682 855>
LayerCount: 2
Fore
SplineSet
70 557 m 1
 20 573 l 1
 98 804 176 905 276 905 c 0
 376 905 450 809 487 625 c 0
 514 506 518 432 518 147 c 2
 520 55 l 1
 672 288 754 500 754 662 c 0
 754 689 752 717 748 748 c 0
 742 785 737 818 737 834 c 0
 737 877 762 905 801 905 c 0
 842 905 874 864 874 809 c 0
 874 555 670 139 348 -254 c 0
 203 -434 84 -530 10 -530 c 0
 -31 -530 -59 -491 -59 -434 c 0
 -59 -379 -26 -346 31 -346 c 0
 54 -346 63 -350 96 -373 c 0
 102 -377 115 -381 121 -381 c 0
 152 -381 197 -350 248 -291 c 0
 371 -154 397 -78 397 135 c 0
 397 514 329 762 225 762 c 0
 172 762 136 713 70 557 c 1
EndSplineSet
Substitution2: "smcpLowercasetoSmallCapitalslookup subtable" y.smcp
EndChar

StartChar: z
Encoding: 122 122 90
Width: 868
GlyphClass: 2
Flags: HMW
HStem: -10 68<326 383 326 705> 809 66<469 487>
VStem: 109 53
LayerCount: 2
Fore
SplineSet
870 874 m 1
 872 838 l 1
 858 824 845 806 831 788 c 2
 680 623 l 1
 418 319 l 1
 203 66 l 1
 281 60 309 57 342 57 c 0
 424 57 505 68 571 84 c 0
 622 96 659 129 698 195 c 0
 721 232 732 242 748 242 c 0
 750 242 756 242 758 240 c 2
 768 238 l 2
 778 234 784 229 784 225 c 0
 784 221 778 204 770 184 c 2
 705 -10 l 1
 -16 -10 l 1
 -16 25 l 1
 664 805 l 1
 525 809 512 809 463 809 c 0
 252 809 242 805 162 662 c 1
 135 666 125 668 109 680 c 1
 188 944 l 1
 240 946 l 1
 275 874 274 874 469 874 c 2
 870 874 l 1
EndSplineSet
Substitution2: "smcpLowercasetoSmallCapitalslookup subtable" z.smcp
EndChar

StartChar: braceleft
Encoding: 123 123 91
Width: 905
GlyphClass: 2
Flags: HW
HStem: -483 51<598 608> 1499 51<1057 1067>
VStem: 244 199<-269 -198 -279 -161> 401 168<289 319 234 364>
LayerCount: 2
Fore
SplineSet
231 512 m 1xd0
 242 563 l 1
 494 684 543 754 545 1006 c 0
 549 1244 600 1346 764 1452 c 0
 858 1507 917 1525 1067 1550 c 1
 1057 1499 l 1
 856 1433 791 1342 750 1063 c 0
 713 752 662 686 336 541 c 1
 496 461 569 375 569 264 c 0xd0
 569 205 555 146 512 33 c 0
 455 -123 442 -166 442 -229 c 0
 442 -327 491 -387 608 -432 c 1
 598 -483 l 1
 381 -458 244 -347 244 -193 c 0xe0
 244 -130 269 -51 332 90 c 0
 385 207 401 260 401 317 c 0
 401 409 352 465 231 512 c 1xd0
EndSplineSet
EndChar

StartChar: bar
Encoding: 124 124 92
Width: 1019
GlyphClass: 2
Flags: HMW
VStem: 457 104<-512 1536 -512 1536>
LayerCount: 2
Fore
SplineSet
457 1536 m 1
 561 1536 l 1
 561 -512 l 1
 457 -512 l 1
 457 1536 l 1
EndSplineSet
EndChar

StartChar: braceright
Encoding: 125 125 93
Width: 905
GlyphClass: 2
Flags: HW
HStem: -483 51<-74 -63> 1499 51<385 395>
VStem: 422 168<746 774 701 834> 551 199<1265 1303 1228 1343>
LayerCount: 2
Fore
SplineSet
762 551 m 1xe0
 752 500 l 1
 500 381 451 309 449 59 c 0
 445 -177 393 -279 227 -385 c 0
 135 -438 78 -456 -74 -483 c 1
 -63 -432 l 1
 134 -371 203 -272 244 2 c 1
 279 311 329 377 657 522 c 1
 491 604 422 688 422 805 c 0xe0
 422 862 440 928 489 1057 c 0
 534 1178 551 1237 551 1292 c 0
 551 1394 502 1454 385 1499 c 1
 395 1550 l 1
 497 1538 555 1520 621 1475 c 0
 703 1422 750 1344 750 1262 c 0xd0
 750 1194 729 1127 659 977 c 0
 610 864 590 801 590 748 c 0
 590 656 639 598 762 551 c 1xe0
EndSplineSet
EndChar

StartChar: asciitilde
Encoding: 126 126 94
Width: 2039
GlyphClass: 2
Flags: HW
HStem: 1288 102<1197 1221> 1372 98<819 827>
LayerCount: 2
Fore
SplineSet
1421 1501 m 1x80
 1450 1483 l 1
 1387 1370 1269 1288 1171 1288 c 0x80
 1130 1288 1131 1288 979 1335 c 0
 887 1366 852 1372 803 1372 c 0
 731 1372 700 1353 616 1255 c 1
 588 1274 l 1
 664 1399 766 1470 872 1470 c 0x40
 915 1470 946 1464 1057 1427 c 0
 1145 1398 1178 1391 1217 1391 c 0
 1295 1391 1360 1427 1421 1501 c 1x80
EndSplineSet
EndChar

StartChar: exclamdown
Encoding: 161 161 95
Width: 528
GlyphClass: 2
Flags: HW
HStem: 664 244<382 415>
VStem: 289 217<766 807> 305 68<481 508>
LayerCount: 2
Fore
SplineSet
369 479 m 2xa0
 297 199 l 1
 260 27 l 1
 244 -59 l 2
 203 -278 179 -385 156 -440 c 0
 127 -516 90 -551 37 -551 c 0
 -14 -551 -47 -518 -47 -467 c 0
 -47 -393 -41 -374 129 27 c 1
 305 481 l 2
 321 522 322 522 332 522 c 2
 332 522 334 522 346 520 c 2
 356 518 l 2
 368 514 373 512 373 504 c 0
 373 500 371 489 369 479 c 2xa0
420 907 m 0
 475 907 506 870 506 807 c 0
 506 725 451 664 379 664 c 0
 326 664 289 705 289 766 c 0xc0
 289 848 344 907 420 907 c 0
EndSplineSet
EndChar

StartChar: cent
Encoding: 162 162 96
Width: 983
GlyphClass: 2
Flags: HW
HStem: -23 43G<248 315 248 248> 209 117<527 547> 940 199<809 891> 1079 68<715 743> 1339 41G<844 911 911 911>
VStem: 188 162<516 620 516 677> 801 143
LayerCount: 2
Fore
SplineSet
911 1380 m 1xde
 809 1139 l 1
 903 1114 944 1077 944 1018 c 0
 944 971 913 940 868 940 c 0xee
 821 940 817 946 801 1022 c 0
 797 1040 792 1047 776 1063 c 1
 469 338 l 1
 502 328 516 326 539 326 c 0
 617 326 678 352 750 420 c 1
 782 389 l 1
 696 260 612 209 481 209 c 0
 461 209 447 211 418 215 c 1
 315 -23 l 1
 248 -23 l 1
 356 233 l 1
 241 288 188 377 188 512 c 0
 188 842 447 1147 723 1147 c 2
 743 1147 l 1
 844 1380 l 1
 911 1380 l 1xde
416 371 m 1
 715 1079 l 1xde
 631 1075 574 1045 508 971 c 0
 418 867 350 686 350 553 c 0
 350 479 375 414 416 371 c 1
EndSplineSet
Substitution2: "cv02CharacterVariants02 subtable" cent.cv01
EndChar

StartChar: sterling
Encoding: 163 163 97
Width: 980
GlyphClass: 2
Flags: HW
HStem: -31 150<595 750> 291 172 684 84<176 178 178 332 492 676 676 678> 1298 84<720 766>
VStem: 332 160<684 768 768 768> 811 182 815 78<176 223>
LayerCount: 2
Fore
SplineSet
678 684 m 2xfc
 471 684 l 1
 401 438 369 338 322 242 c 1
 394 226 418 217 496 184 c 0
 631 129 668 119 721 119 c 0
 778 119 815 152 815 201 c 0
 815 246 793 268 725 291 c 0
 668 309 643 334 643 375 c 0
 643 426 684 463 739 463 c 0
 827 463 893 369 893 244 c 0xfa
 893 101 764 -31 623 -31 c 0
 568 -31 514 -12 451 31 c 0
 439 39 398 70 328 127 c 0
 314 137 299 148 283 158 c 1
 197 21 144 -31 78 -31 c 0
 39 -31 8 2 8 45 c 0
 8 94 35 143 84 184 c 0
 133 225 170 238 256 246 c 1
 301 371 320 475 332 684 c 1
 178 684 l 2
 166 684 156 692 156 702 c 2
 156 745 l 2
 156 757 164 768 176 768 c 2
 332 768 l 1
 361 977 375 1042 414 1128 c 0
 488 1292 609 1382 752 1382 c 0
 885 1382 993 1298 993 1198 c 0
 993 1145 956 1106 907 1106 c 0
 852 1106 817 1144 811 1212 c 0
 805 1273 786 1298 745 1298 c 0
 694 1298 639 1259 606 1198 c 0
 575 1145 575 1138 514 866 c 2
 492 768 l 1
 676 768 l 2
 696 768 705 764 705 752 c 2
 705 702 l 2
 705 688 698 684 678 684 c 2xfc
EndSplineSet
EndChar

StartChar: fraction
Encoding: 8260 8260 98
Width: 227
GlyphClass: 2
Flags: HMW
HStem: -31 43G<-387 -383 -383 -319>
LayerCount: 2
Fore
SplineSet
-385 16 m 2
 641 1337 l 2
 653 1349 659 1354 684 1354 c 2
 729 1354 l 2
 741 1354 754 1343 754 1333 c 0
 754 1327 749 1319 741 1309 c 2
 -276 2 l 2
 -296 -25 -305 -31 -319 -31 c 2
 -383 -31 l 2
 -391 -31 -401 -22 -401 -12 c 0
 -401 -6 -397 2 -385 16 c 2
EndSplineSet
EndChar

StartChar: yen
Encoding: 165 165 99
Width: 980
GlyphClass: 2
Flags: HMW
HStem: -12 72 342 74<190 401 211 381 569 739> 526 74<266 434 242 453 618 786> 1339 84<291 340>
LayerCount: 2
Fore
SplineSet
190 342 m 1
 211 416 l 1
 401 416 l 1
 434 526 l 1
 242 526 l 1
 266 600 l 1
 453 600 l 1
 473 666 l 1
 393 1192 l 2
 379 1278 357 1321 326 1329 c 2
 291 1339 l 2
 283 1343 276 1352 276 1362 c 0
 276 1370 281 1382 285 1386 c 2
 297 1399 l 2
 311 1415 326 1423 338 1423 c 0
 342 1423 350 1421 360 1419 c 0
 376 1413 401 1411 432 1411 c 0
 483 1411 531 1413 578 1419 c 0
 605 1423 612 1423 618 1423 c 0
 632 1423 643 1415 641 1407 c 2
 641 1407 641 1405 639 1401 c 2
 631 1370 l 2
 625 1356 620 1352 600 1348 c 0
 561 1340 541 1313 541 1274 c 0
 541 1266 543 1249 545 1235 c 2
 612 729 l 1
 942 1221 l 2
 967 1256 971 1268 971 1288 c 0
 971 1323 955 1333 883 1343 c 0
 873 1343 866 1352 866 1364 c 2
 866 1370 l 1
 874 1403 l 2
 876 1417 883 1423 895 1423 c 0
 899 1423 899 1423 938 1417 c 0
 961 1413 1015 1411 1087 1411 c 0
 1114 1411 1129 1413 1141 1415 c 0
 1161 1421 1178 1423 1184 1423 c 0
 1194 1423 1206 1411 1204 1403 c 2
 1204 1399 l 1
 1198 1368 l 2
 1194 1354 1190 1352 1167 1346 c 0
 1118 1330 1106 1319 1071 1268 c 2
 631 637 l 1
 618 600 l 1
 807 600 l 1
 786 526 l 1
 598 526 l 1
 569 416 l 1
 756 416 l 1
 739 342 l 1
 547 342 l 1
 504 188 l 2
 498 165 494 143 494 127 c 0
 494 82 516 65 590 59 c 0
 602 57 608 53 608 45 c 0
 608 41 608 37 606 33 c 2
 600 10 l 2
 598 -2 581 -12 565 -12 c 0
 557 -12 542 -10 526 -6 c 0
 501 -2 477 0 426 0 c 0
 369 0 277 -4 203 -10 c 0
 191 -12 176 -12 168 -12 c 0
 150 -12 139 -6 139 2 c 2
 141 14 l 1
 152 37 l 2
 160 57 166 60 215 66 c 0
 276 70 309 102 338 186 c 2
 381 342 l 1
 190 342 l 1
EndSplineSet
EndChar

StartChar: florin
Encoding: 402 402 100
Width: 980
GlyphClass: 2
Flags: HMW
HStem: -545 119<-71 78> 797 80<296 469 332 446 616 760 760 762> 1503 80<950 956>
VStem: 1016 145
LayerCount: 2
Fore
SplineSet
446 797 m 1
 309 797 l 2
 282 797 276 799 276 807 c 0
 276 809 277 813 279 817 c 2
 283 827 l 1
 291 856 l 2
 297 874 299 877 332 877 c 2
 469 877 l 1
 496 977 l 2
 545 1165 621 1329 711 1438 c 0
 785 1526 898 1583 1004 1583 c 0
 1092 1583 1161 1530 1161 1462 c 0
 1161 1411 1122 1370 1073 1370 c 0
 1042 1370 1026 1384 1016 1423 c 0
 1000 1486 981 1503 932 1503 c 0
 828 1503 758 1386 670 1075 c 2
 616 877 l 1
 793 877 l 2
 813 877 819 874 819 868 c 0
 819 866 819 864 817 860 c 2
 813 850 l 1
 805 819 l 2
 799 799 787 793 762 797 c 2
 760 797 l 1
 596 797 l 1
 434 197 l 2
 371 -36 289 -236 197 -377 c 0
 129 -479 37 -545 -43 -545 c 0
 -98 -545 -139 -508 -139 -459 c 0
 -139 -414 -109 -381 -66 -381 c 0
 -41 -381 -27 -387 -4 -403 c 0
 21 -421 31 -426 45 -426 c 0
 111 -426 174 -278 272 109 c 2
 446 797 l 1
EndSplineSet
EndChar

StartChar: section
Encoding: 167 167 101
Width: 980
GlyphClass: 2
Flags: HMW
HStem: -387 96<424 442> 1352 96<436 484>
VStem: 94 94<934 1029 934 1072> 262 88<1224 1226> 573 86<-173 -171 -173 -90> 752 96<49 164>
LayerCount: 2
Fore
SplineSet
221 -152 m 0
 258 -152 293 -174 334 -223 c 0
 381 -278 401 -291 446 -291 c 0
 520 -291 573 -234 573 -152 c 0
 573 -29 528 70 356 330 c 0
 155 631 94 774 94 934 c 0
 94 1210 311 1448 561 1448 c 0
 682 1448 780 1387 780 1311 c 0
 780 1264 737 1223 688 1223 c 0
 649 1223 628 1235 569 1298 c 0
 538 1333 502 1352 467 1352 c 0
 401 1352 350 1297 350 1225 c 0
 350 1123 418 985 590 729 c 0
 789 438 848 295 848 109 c 0
 848 -20 807 -129 719 -231 c 0
 621 -344 524 -387 360 -387 c 0
 219 -387 123 -330 123 -246 c 0
 123 -197 170 -152 221 -152 c 0
260 1229 m 0
 235 1229 188 1071 188 987 c 0
 188 881 215 785 276 664 c 0
 299 621 329 571 444 393 c 0
 639 88 670 25 670 -90 c 0
 670 -110 666 -150 662 -164 c 0
 660 -168 659 -170 659 -172 c 0
 659 -174 662 -176 664 -176 c 0
 668 -176 672 -170 688 -145 c 0
 721 -92 752 14 752 84 c 0
 752 244 692 383 528 623 c 0
 436 756 436 755 332 950 c 0
 260 1083 254 1100 254 1116 c 0
 260 1212 260 1213 260 1217 c 0
 262 1223 262 1223 262 1225 c 0
 262 1227 262 1229 260 1229 c 0
EndSplineSet
EndChar

StartChar: currency
Encoding: 164 164 102
Width: 980
GlyphClass: 2
Flags: HMW
HStem: 289 98<512 618> 1081 98<511 620 511 662>
VStem: 121 98<683 791> 913 98<682 791 682 829>
LayerCount: 2
Fore
SplineSet
78 1155 m 1
 143 1219 l 1
 279 1081 l 1
 373 1151 456 1180 565 1180 c 0
 674 1180 760 1151 852 1081 c 1
 989 1219 l 1
 1053 1155 l 1
 915 1018 l 1
 983 924 1012 843 1012 737 c 0
 1012 626 981 535 915 451 c 1
 1053 313 l 1
 989 250 l 1
 852 387 l 1
 743 313 671 289 565 289 c 0
 459 289 390 313 279 387 c 1
 141 250 l 1
 78 313 l 1
 215 451 l 1
 152 537 121 628 121 737 c 0
 121 843 147 924 215 1018 c 1
 78 1155 l 1
565 1081 m 0
 377 1081 219 925 219 739 c 0
 219 542 373 387 563 387 c 0
 758 387 913 540 913 733 c 0
 913 926 758 1081 565 1081 c 0
EndSplineSet
EndChar

StartChar: quotesingle
Encoding: 39 39 103
Width: 565
GlyphClass: 2
Flags: HMW
HStem: 911 530<412 603 418 603>
VStem: 451 203<1294 1395>
LayerCount: 2
Fore
SplineSet
406 952 m 2
 451 1294 l 2
 459 1353 469 1376 492 1401 c 0
 519 1428 551 1442 584 1442 c 0
 623 1442 653 1413 653 1376 c 0
 653 1356 647 1337 629 1294 c 2
 473 934 l 2
 467 918 456 911 444 911 c 2
 418 911 l 2
 406 911 401 916 401 928 c 0
 401 932 402 932 406 952 c 2
EndSplineSet
EndChar

StartChar: quotedblleft
Encoding: 8220 8220 104
Width: 831
GlyphClass: 2
Flags: HMW
HStem: 881 43G<384 458 742 816> 1356 68
VStem: 252 131<1143 1170> 610 131<1143 1170>
LayerCount: 2
Fore
SplineSet
967 1356 m 1
 820 1323 741 1255 741 1161 c 0
 741 1124 762 1091 797 1071 c 0
 883 1016 889 1012 889 975 c 0
 889 924 843 881 788 881 c 0
 696 881 610 977 610 1081 c 0
 610 1259 757 1405 958 1423 c 1
 962 1407 967 1388 967 1372 c 2
 967 1356 l 1
606 1356 m 0
 461 1323 383 1255 383 1161 c 0
 383 1124 403 1091 438 1071 c 0
 524 1018 530 1012 530 975 c 0
 530 924 485 881 430 881 c 0
 338 881 252 977 252 1081 c 0
 252 1259 399 1405 598 1423 c 1
 606 1405 608 1390 608 1372 c 0
 608 1370 608 1364 606 1356 c 0
EndSplineSet
EndChar

StartChar: guillemotleft
Encoding: 171 171 105
Width: 831
GlyphClass: 2
Flags: HMW
HStem: 152 670<432 463 463 725>
LayerCount: 2
Fore
SplineSet
758 821 m 1
 788 797 l 1
 551 487 l 1
 752 176 l 1
 725 152 l 1
 393 494 l 1
 758 821 l 1
463 821 m 1
 494 797 l 1
 256 487 l 1
 457 176 l 1
 432 152 l 1
 100 494 l 1
 463 821 l 1
EndSplineSet
EndChar

StartChar: guilsinglleft
Encoding: 8249 8249 106
Width: 604
GlyphClass: 2
Flags: HMW
HStem: 152 670<467 535>
VStem: 154 410<494 797>
LayerCount: 2
Fore
SplineSet
535 821 m 1
 563 797 l 1
 309 487 l 1
 494 176 l 1
 467 152 l 1
 154 494 l 1
 535 821 l 1
EndSplineSet
EndChar

StartChar: guilsinglright
Encoding: 8250 8250 107
Width: 604
GlyphClass: 2
Flags: HMW
HStem: 152 670<121 186>
VStem: 90 410<178 481>
LayerCount: 2
Fore
SplineSet
121 152 m 1
 90 178 l 1
 344 487 l 1
 160 797 l 1
 186 821 l 1
 500 481 l 1
 121 152 l 1
EndSplineSet
EndChar

StartChar: fi
Encoding: 64257 64257 108
Width: 1024
GlyphClass: 2
Flags: HW
HStem: -545 119<-241 -92> -35 141<577 752> 797 80<126 299 162 276 446 649 649 657> 864 41G<856 879> 1503 80<811 834>
VStem: 508 172<29 162> 750 168<752 862> 918 145
LayerCount: 2
Fore
SplineSet
446 877 m 1xed
 649 877 l 2xed
 706 877 760 883 817 897 c 0
 833 903 850 905 862 905 c 0
 895 905 918 881 918 844 c 0
 918 809 874 686 733 313 c 0
 686 192 680 172 680 152 c 0
 680 129 702 106 727 106 c 0
 776 106 856 191 946 334 c 1
 987 295 l 1
 835 68 717 -35 604 -35 c 0
 549 -35 508 4 508 53 c 0
 508 88 510 94 553 209 c 0
 662 490 684 553 731 690 c 0
 745 729 750 746 750 758 c 0xde
 750 789 741 793 657 797 c 2
 426 797 l 1
 264 197 l 2
 201 -36 119 -236 27 -377 c 0
 -41 -479 -133 -545 -213 -545 c 0
 -268 -545 -309 -508 -309 -459 c 0
 -309 -414 -279 -381 -236 -381 c 0
 -211 -381 -197 -387 -174 -403 c 0
 -149 -421 -139 -426 -125 -426 c 0
 -59 -426 4 -278 102 109 c 2
 276 797 l 1
 139 797 l 2
 112 797 106 799 106 807 c 0
 106 809 107 813 109 817 c 2
 113 827 l 1
 121 856 l 2
 127 874 129 877 162 877 c 2
 299 877 l 1
 326 977 l 2
 377 1174 461 1348 555 1452 c 0
 631 1536 746 1583 877 1583 c 0
 994 1583 1063 1538 1063 1462 c 0
 1063 1411 1022 1370 975 1370 c 0
 944 1370 928 1384 918 1423 c 0
 902 1480 867 1503 801 1503 c 0
 658 1503 594 1413 500 1075 c 2
 446 877 l 1xed
EndSplineSet
Ligature2: "ligaStandardLigatureslookup subtable" f i
EndChar

StartChar: fl
Encoding: 64258 64258 109
Width: 1099
GlyphClass: 2
Flags: HMW
HStem: -545 119<-230 -82> -35 154<607 778> 797 80<136 309 172 287 457 600 600 602> 1503 80<790 798>
VStem: 543 172<27 176>
LayerCount: 2
Fore
SplineSet
457 877 m 1
 633 877 l 2
 653 877 659 874 659 868 c 0
 659 866 659 864 657 860 c 2
 653 850 l 1
 645 819 l 2
 639 799 627 793 602 797 c 2
 600 797 l 1
 436 797 l 1
 274 197 l 2
 211 -36 129 -236 37 -377 c 0
 -31 -479 -123 -545 -203 -545 c 0
 -258 -545 -299 -508 -299 -459 c 0
 -299 -414 -268 -381 -225 -381 c 0
 -200 -381 -187 -387 -164 -403 c 0
 -139 -421 -129 -426 -115 -426 c 0
 -49 -426 15 -278 113 109 c 2
 287 797 l 1
 150 797 l 2
 123 797 117 799 117 807 c 0
 117 809 117 813 119 817 c 2
 123 827 l 1
 131 856 l 2
 137 874 139 877 172 877 c 2
 309 877 l 1
 336 977 l 2
 385 1165 461 1329 551 1438 c 0
 625 1526 738 1583 842 1583 c 0
 891 1583 934 1569 969 1538 c 1
 1020 1577 1038 1585 1063 1585 c 0
 1065 1585 1065 1585 1077 1583 c 2
 1094 1583 l 2
 1108 1581 1112 1579 1112 1571 c 0
 1112 1569 1112 1569 1106 1546 c 2
 748 309 l 2
 723 225 715 189 715 164 c 0
 715 137 733 119 760 119 c 0
 797 119 835 145 913 227 c 2
 963 281 l 1
 999 244 l 1
 975 213 l 2
 932 162 856 88 799 43 c 0
 727 -14 680 -35 629 -35 c 0
 586 -35 543 6 543 47 c 0
 543 67 542 67 575 190 c 2
 909 1370 l 1
 874 1378 866 1386 856 1423 c 0
 838 1489 823 1503 772 1503 c 0
 668 1503 598 1386 510 1075 c 2
 457 877 l 1
EndSplineSet
Ligature2: "ligaStandardLigatureslookup subtable" f l
EndChar

StartChar: endash
Encoding: 8211 8211 110
Width: 983
GlyphClass: 2
Flags: HMW
HStem: 426 119<92 901 170 844>
LayerCount: 2
Fore
SplineSet
170 545 m 2
 901 545 l 2
 940 545 942 543 942 535 c 0
 942 531 942 531 932 506 c 2
 915 465 l 2
 901 426 901 426 844 426 c 2
 104 426 l 2
 79 426 74 428 74 434 c 0
 74 440 74 440 84 463 c 2
 111 520 l 2
 121 545 121 545 170 545 c 2
EndSplineSet
EndChar

StartChar: dagger
Encoding: 8224 8224 111
Width: 983
GlyphClass: 2
Flags: HW
HStem: 821 188<226 267 927 974> 895 39<556 564 636 642> 1405 41G<567 633>
VStem: 492 217<1296 1359> 575 47<827 877>
LayerCount: 2
Fore
SplineSet
578 -457 m 1x68
 567 -176 l 2
 557 109 516 442 473 598 c 1
 549 719 575 786 575 866 c 0
 575 886 569 895 559 895 c 0x68
 553 895 542 893 532 889 c 0
 522 887 442 864 397 852 c 0
 325 832 279 821 256 821 c 0
 197 821 158 858 158 915 c 0
 158 972 195 1010 254 1010 c 0xa8
 291 1010 293 1010 367 987 c 0
 390 981 389 981 430 971 c 0
 473 957 503 948 532 940 c 0
 542 936 553 934 559 934 c 0
 569 934 575 940 575 948 c 0x68
 575 964 561 1018 532 1112 c 0
 505 1196 492 1270 492 1321 c 0
 492 1397 534 1446 600 1446 c 0
 666 1446 709 1397 709 1325 c 0
 709 1268 695 1194 670 1112 c 0
 639 1018 625 962 625 948 c 0
 625 940 631 934 641 934 c 0x70
 647 934 658 936 668 940 c 0
 793 981 905 1010 948 1010 c 0
 1003 1010 1042 970 1042 915 c 0
 1042 858 1003 821 944 821 c 0xb0
 895 821 895 821 666 889 c 0
 656 893 645 895 639 895 c 0
 629 895 623 886 623 866 c 0
 623 788 649 721 725 598 c 1
 680 422 643 115 633 -176 c 2
 623 -457 l 1
 578 -457 l 1x68
EndSplineSet
Substitution2: "cv03CharacterVariants03 subtable" dagger.cv01
EndChar

StartChar: daggerdbl
Encoding: 8225 8225 112
Width: 980
GlyphClass: 2
Flags: HW
HStem: 25 195<197 244 197 245 883 929> 823 195<197 242 193 244 885 926> 1401 41G<526 593>
VStem: 442 238<-313 -260> 532 53<205 221>
LayerCount: 2
Fore
SplineSet
535 147 m 1xf0
 532 205 l 2xe8
 528 361 512 439 444 627 c 1
 514 740 537 797 537 858 c 0
 537 868 537 879 535 895 c 1
 457 885 445 883 369 856 c 0
 316 836 262 823 225 823 c 0
 168 823 121 869 121 924 c 0
 121 977 164 1018 221 1018 c 0
 262 1018 322 1005 381 985 c 0
 453 958 461 956 535 946 c 1
 525 1030 518 1051 483 1143 c 0
 456 1213 442 1278 442 1325 c 0xf0
 442 1391 493 1442 559 1442 c 0
 627 1442 678 1389 678 1323 c 0
 678 1280 662 1211 637 1143 c 0
 600 1045 598 1030 586 946 c 1xe8
 662 956 671 958 743 985 c 0
 802 1005 864 1018 905 1018 c 0
 962 1018 1004 977 1004 922 c 0
 1004 867 956 823 895 823 c 0
 858 823 807 832 754 848 c 0
 680 868 668 871 588 879 c 1
 594 748 606 715 680 627 c 1xf0
 674 607 667 583 659 563 c 0
 591 358 586 330 586 221 c 2
 586 205 l 1xe8
 588 147 l 1
 668 155 678 159 754 186 c 0
 807 206 862 219 899 219 c 0
 958 219 1004 174 1004 117 c 0
 1004 64 962 25 903 25 c 0
 862 25 802 37 743 57 c 0
 671 82 662 86 588 96 c 1
 600 2 604 -14 637 -100 c 0
 666 -168 680 -232 680 -281 c 0
 680 -347 625 -401 555 -401 c 0
 492 -401 442 -353 442 -285 c 0
 442 -236 458 -168 483 -100 c 0
 518 -10 523 2 535 96 c 1
 461 86 447 82 381 57 c 0
 322 37 264 25 225 25 c 0
 168 25 121 68 121 123 c 0
 121 176 168 219 225 219 c 0
 262 219 316 206 371 186 c 0
 447 159 457 155 535 147 c 1xf0
EndSplineSet
EndChar

StartChar: periodcentered
Encoding: 183 183 113
Width: 240
VWidth: 1000
GlyphClass: 2
Flags: MW
HStem: 268 128<140.5 167.5>
VStem: 96 115<317.5 348.5>
LayerCount: 2
Fore
SplineSet
158 396 m 0
 190 396 211 372 211 337 c 0
 211 298 185 268 150 268 c 0
 117 268 96 292 96 330 c 0
 96 367 123 396 158 396 c 0
EndSplineSet
Validated: 1
EndChar

StartChar: paragraph
Encoding: 182 182 114
Width: 983
GlyphClass: 2
Flags: HW
HStem: 1442 84<707 1022 883 1022 883 883>
VStem: 176 530<975 1117> 627 80<-326 571 571 571> 803 80<-326 1442 -326 1442>
LayerCount: 2
Fore
SplineSet
1022 1526 m 1xd0
 1022 1442 l 1
 883 1442 l 1
 883 -326 l 1
 803 -326 l 1
 803 1442 l 1
 707 1442 l 1
 707 -326 l 1
 627 -326 l 1
 627 571 l 1xb0
 469 602 391 637 317 707 c 0
 227 791 176 911 176 1038 c 0
 176 1196 254 1341 381 1419 c 0
 494 1491 641 1526 834 1526 c 2
 1022 1526 l 1xd0
EndSplineSet
EndChar

StartChar: bullet
Encoding: 8226 8226 115
Width: 1019
GlyphClass: 2
Flags: HMW
HStem: 362 743<412 614>
VStem: 139 743<633 836 632 840>
LayerCount: 2
Fore
SplineSet
516 1106 m 0
 717 1106 883 936 883 735 c 0
 883 528 717 362 512 362 c 0
 303 362 139 528 139 737 c 0
 139 942 307 1106 516 1106 c 0
EndSplineSet
EndChar

StartChar: quotesinglbase
Encoding: 8218 8218 116
Width: 491
GlyphClass: 2
Flags: HMW
HStem: -379 68
VStem: 201 133<-124 -91>
LayerCount: 2
Fore
SplineSet
-29 -326 m 2
 -29 -311 l 1
 116 -280 201 -209 201 -117 c 0
 201 -66 186 -49 96 6 c 0
 65 24 51 45 51 72 c 0
 51 123 97 166 152 166 c 0
 246 166 334 69 334 -35 c 0
 334 -213 181 -363 -18 -379 c 1
 -24 -363 -29 -344 -29 -326 c 2
EndSplineSet
EndChar

StartChar: quotedblbase
Encoding: 8222 8222 117
Width: 831
GlyphClass: 2
Flags: HMW
HStem: -338 68
VStem: 168 131<-83 -50> 526 131<-83 -50>
LayerCount: 2
Fore
SplineSet
-57 -285 m 2
 -57 -270 l 1
 84 -241 168 -168 168 -76 c 0
 168 -25 156 -10 66 45 c 0
 35 63 20 86 20 113 c 0
 20 164 66 207 121 207 c 0
 213 207 299 110 299 6 c 0
 299 -172 150 -322 -47 -338 c 1
 -53 -324 -57 -303 -57 -285 c 2
311 -338 m 1
 305 -324 301 -299 301 -283 c 0
 301 -281 301 -276 303 -270 c 0
 444 -241 526 -170 526 -76 c 0
 526 -25 514 -10 424 45 c 0
 393 63 379 86 379 113 c 0
 379 166 424 207 479 207 c 0
 571 207 657 108 657 6 c 0
 657 -172 508 -322 311 -338 c 1
EndSplineSet
EndChar

StartChar: quotedblright
Encoding: 8221 8221 118
Width: 831
GlyphClass: 2
Flags: HMW
HStem: 881 68 1382 41G<394 468 753 826>
VStem: 469 131<1134 1166> 827 131<1134 1167>
LayerCount: 2
Fore
SplineSet
244 934 m 2
 244 948 l 1
 389 981 469 1049 469 1141 c 0
 469 1192 457 1209 367 1264 c 0
 336 1282 322 1302 322 1331 c 0
 322 1382 367 1423 422 1423 c 0
 514 1423 600 1327 600 1223 c 0
 600 1045 453 899 254 881 c 1
 248 895 244 916 244 934 c 2
612 881 m 1
 606 895 602 916 602 934 c 0
 602 936 602 942 604 948 c 0
 749 981 827 1049 827 1143 c 0
 827 1192 815 1209 725 1264 c 0
 692 1282 680 1302 680 1329 c 0
 680 1382 725 1423 780 1423 c 0
 872 1423 958 1327 958 1223 c 0
 958 1045 811 899 612 881 c 1
EndSplineSet
EndChar

StartChar: guillemotright
Encoding: 187 187 119
Width: 831
GlyphClass: 2
Flags: HMW
HStem: 152 670<88 123 123 381>
LayerCount: 2
Fore
SplineSet
88 152 m 1
 57 178 l 1
 297 487 l 1
 96 797 l 1
 123 821 l 1
 453 481 l 1
 88 152 l 1
381 152 m 1
 350 178 l 1
 590 487 l 1
 389 797 l 1
 416 821 l 1
 745 481 l 1
 381 152 l 1
EndSplineSet
EndChar

StartChar: ellipsis
Encoding: 8230 8230 120
Width: 1585
GlyphClass: 2
Flags: HMW
HStem: -31 242<147 213 670 735 1192 1258>
VStem: 59 242<58 124 56 125> 582 242<58 124> 1104 242<58 124 56 125>
LayerCount: 2
Fore
SplineSet
180 211 m 0
 248 211 301 158 301 90 c 0
 301 22 248 -31 178 -31 c 0
 112 -31 59 24 59 92 c 0
 59 158 114 211 180 211 c 0
1225 211 m 0
 1293 211 1346 158 1346 90 c 0
 1346 22 1293 -31 1225 -31 c 0
 1157 -31 1104 24 1104 92 c 0
 1104 158 1159 211 1225 211 c 0
702 211 m 0
 768 211 823 158 823 90 c 0
 823 22 768 -31 702 -31 c 0
 634 -31 582 24 582 92 c 0
 582 155 636 211 702 211 c 0
EndSplineSet
EndChar

StartChar: perthousand
Encoding: 8240 8240 121
Width: 2304
GlyphClass: 2
Flags: HW
HStem: -14 66<1090 1184 1090 1223 1815 1909> 621 66<1204 1294 1929 2019> 676 66<415 508 415 551> 1317 66<530 620>
VStem: 205 137<876 1005 858 1061> 252 115<-55 -55> 698 137<1052 1187 1001 1200> 879 137<185 311 166 368> 1360 111<1391 1391> 1374 137<357 493 307 504> 1604 137<185 311 166 368> 2099 137<358 493 307 504>
LayerCount: 2
Fore
SplineSet
1360 1391 m 1x97b0
 1470 1391 l 1
 367 -55 l 1
 252 -55 l 1
 1360 1391 l 1x97b0
1276 686 m 0xd370
 1405 686 1511 565 1511 420 c 0
 1511 195 1323 -14 1122 -14 c 0
 985 -14 879 106 879 264 c 0
 879 471 1081 686 1276 686 c 0xd370
1262 621 m 0
 1147 621 1016 405 1016 217 c 0
 1016 115 1056 51 1122 51 c 0
 1245 51 1374 258 1374 457 c 0
 1374 551 1328 621 1262 621 c 0
600 1382 m 0
 729 1382 836 1262 836 1112 c 0
 836 891 648 676 455 676 c 0
 312 676 205 794 205 956 c 0xbb30
 205 1165 407 1382 600 1382 c 0
588 1317 m 0
 473 1317 342 1099 342 909 c 0
 342 807 383 741 446 741 c 0
 569 741 698 950 698 1153 c 0
 698 1247 651 1317 588 1317 c 0
2001 686 m 0xd330
 2130 686 2236 565 2236 420 c 0
 2236 195 2048 -14 1847 -14 c 0
 1710 -14 1604 106 1604 264 c 0
 1604 471 1806 686 2001 686 c 0xd330
1987 621 m 0
 1872 621 1741 405 1741 217 c 0
 1741 115 1781 51 1847 51 c 0
 1970 51 2099 260 2099 457 c 0
 2099 551 2053 621 1987 621 c 0
EndSplineSet
EndChar

StartChar: questiondown
Encoding: 191 191 122
Width: 718
GlyphClass: 2
Flags: HW
HStem: -573 143<165 177 125 289> 371 160<303 303> 645 262<455 504>
VStem: -68 106<-340 -253 -342 -194> 362 236<745 807> 463 106<217 273>
LayerCount: 2
Fore
SplineSet
489 907 m 0xf8
 552 907 598 854 598 782 c 0
 598 708 539 645 469 645 c 0
 410 645 362 700 362 770 c 0
 362 844 419 907 489 907 c 0xf8
305 530 m 0
 416 536 569 352 569 211 c 0
 569 139 516 35 455 -16 c 0
 414 -49 395 -55 258 -96 c 0
 108 -139 39 -205 39 -301 c 0
 39 -383 84 -430 166 -430 c 0
 189 -430 213 -428 238 -422 c 0
 261 -416 277 -414 289 -414 c 0
 328 -414 360 -451 360 -492 c 0
 360 -543 322 -573 256 -573 c 0
 74 -573 -68 -432 -68 -248 c 0
 -68 -139 -21 -39 55 10 c 0
 108 45 108 45 313 102 c 0
 407 127 463 182 463 252 c 0xf4
 463 295 441 334 406 354 c 0
 386 366 373 369 303 371 c 0
 246 371 221 393 221 440 c 0
 221 491 254 526 305 530 c 0
EndSplineSet
EndChar

StartChar: grave
Encoding: 96 96 123
Width: 980
GlyphClass: 2
Flags: HMW
HStem: 1053 471<408 741>
VStem: 346 422<1073 1483>
LayerCount: 2
Fore
SplineSet
700 1081 m 2
 416 1364 l 2
 371 1409 346 1445 346 1468 c 0
 346 1497 385 1524 430 1524 c 0
 465 1524 493 1510 516 1483 c 0
 522 1477 522 1476 559 1417 c 2
 752 1106 l 2
 766 1086 768 1079 768 1075 c 0
 768 1071 766 1067 762 1065 c 2
 750 1057 l 2
 746 1053 743 1053 739 1053 c 0
 733 1053 718 1063 700 1081 c 2
EndSplineSet
EndChar

StartChar: acute
Encoding: 180 180 124
Width: 983
GlyphClass: 2
Flags: HMW
HStem: 1051 473<581 915>
VStem: 555 422<1071 1483>
LayerCount: 2
Fore
SplineSet
571 1104 m 2
 764 1417 l 2
 805 1483 805 1483 819 1495 c 0
 837 1513 862 1524 893 1524 c 0
 938 1524 977 1497 977 1468 c 0
 977 1443 952 1407 907 1364 c 2
 614 1075 l 2
 600 1059 588 1051 582 1051 c 0
 580 1051 575 1053 571 1057 c 2
 561 1063 l 2
 557 1065 555 1069 555 1073 c 0
 555 1077 559 1086 571 1104 c 2
EndSplineSet
EndChar

StartChar: circumflex
Encoding: 710 710 125
Width: 980
GlyphClass: 2
Flags: HMW
HStem: 1053 471<415 751>
VStem: 393 504<1071 1083>
LayerCount: 2
Fore
SplineSet
705 1335 m 1
 545 1159 l 2
 486 1093 438 1053 420 1053 c 0
 410 1053 393 1067 393 1075 c 0
 393 1091 393 1092 553 1309 c 1
 655 1464 l 2
 684 1507 704 1524 729 1524 c 0
 772 1524 799 1493 811 1427 c 0
 842 1269 850 1232 887 1126 c 0
 893 1108 897 1089 897 1077 c 0
 897 1063 886 1051 874 1051 c 0
 856 1051 842 1073 793 1165 c 2
 705 1335 l 1
EndSplineSet
EndChar

StartChar: tilde
Encoding: 732 732 126
Width: 980
GlyphClass: 2
Flags: HMW
HStem: 1051 131<736 811> 1229 131<547 554>
VStem: 354 623<1081 1332>
LayerCount: 2
Fore
SplineSet
575 1360 m 0
 612 1360 612 1360 723 1229 c 0
 743 1202 779 1182 797 1182 c 0
 826 1182 887 1249 928 1327 c 0
 936 1339 942 1346 950 1346 c 0
 964 1346 977 1337 977 1327 c 0
 977 1313 961 1276 924 1204 c 0
 871 1106 809 1051 752 1051 c 0
 721 1051 721 1051 604 1186 c 0
 571 1225 566 1229 543 1229 c 0
 502 1229 465 1188 406 1077 c 0
 402 1069 393 1061 389 1061 c 0
 377 1061 354 1077 354 1085 c 0
 354 1097 381 1161 408 1214 c 0
 457 1304 518 1360 575 1360 c 0
EndSplineSet
EndChar

StartChar: macron
Encoding: 175 175 127
Width: 983
GlyphClass: 2
Flags: HMW
HStem: 1249 98<406 928 434 899>
VStem: 406 522<1249 1348>
LayerCount: 2
Fore
SplineSet
406 1249 m 1
 434 1348 l 1
 928 1348 l 1
 899 1249 l 1
 406 1249 l 1
EndSplineSet
EndChar

StartChar: breve
Encoding: 728 728 128
Width: 983
GlyphClass: 2
Flags: HMW
HStem: 1128 94<620 690>
VStem: 438 88<1366 1403>
LayerCount: 2
Fore
SplineSet
438 1403 m 1
 526 1403 l 1
 526 1288 576 1223 664 1223 c 0
 748 1223 811 1280 866 1403 c 1
 954 1403 l 1
 923 1309 899 1263 850 1214 c 0
 797 1161 725 1128 655 1128 c 0
 553 1128 473 1192 446 1294 c 0
 438 1325 438 1329 438 1403 c 1
EndSplineSet
EndChar

StartChar: dotaccent
Encoding: 729 729 129
Width: 980
GlyphClass: 2
Flags: HMW
HStem: 1128 197<662 687>
VStem: 584 178<1213 1244>
LayerCount: 2
Fore
SplineSet
688 1325 m 0
 731 1325 762 1292 762 1245 c 0
 762 1182 714 1128 659 1128 c 0
 614 1128 584 1166 584 1217 c 0
 584 1272 635 1325 688 1325 c 0
EndSplineSet
EndChar

StartChar: dieresis
Encoding: 168 168 130
Width: 983
GlyphClass: 2
Flags: HMW
HStem: 1128 223<482 522 775 815>
VStem: 401 199<1214 1265> 694 199<1214 1265>
LayerCount: 2
Fore
SplineSet
512 1352 m 0
 561 1352 600 1306 600 1247 c 0
 600 1181 551 1128 494 1128 c 0
 441 1128 401 1174 401 1233 c 0
 401 1296 453 1352 512 1352 c 0
805 1352 m 0
 854 1352 893 1306 893 1247 c 0
 893 1181 843 1128 786 1128 c 0
 733 1128 694 1174 694 1233 c 0
 694 1296 746 1352 805 1352 c 0
EndSplineSet
EndChar

StartChar: ring
Encoding: 730 730 131
Width: 983
GlyphClass: 2
Flags: HMW
HStem: 1051 90<657 735 657 751> 1430 88<680 757>
VStem: 485 78<1235 1313 1235 1332> 848 78<1258 1338>
LayerCount: 2
Fore
SplineSet
725 1518 m 0
 838 1518 926 1426 926 1307 c 0
 926 1174 813 1051 688 1051 c 0
 571 1051 485 1141 485 1264 c 0
 485 1401 596 1518 725 1518 c 0
721 1430 m 0
 639 1430 563 1354 563 1272 c 0
 563 1198 620 1141 694 1141 c 0
 776 1141 848 1215 848 1303 c 0
 848 1375 793 1430 721 1430 c 0
EndSplineSet
EndChar

StartChar: cedilla
Encoding: 184 184 132
Width: 983
GlyphClass: 2
Flags: HMW
HStem: -371 59<302 344 302 376> -41 41G<381 438 438 438>
VStem: 414 113<-266 -229>
LayerCount: 2
Fore
SplineSet
438 0 m 1
 379 -90 l 1
 485 -117 526 -153 526 -223 c 0
 526 -311 440 -371 311 -371 c 0
 225 -371 174 -348 174 -313 c 0
 174 -293 193 -274 211 -274 c 0
 225 -274 225 -274 260 -299 c 0
 272 -307 290 -311 313 -311 c 0
 374 -311 414 -287 414 -246 c 0
 414 -213 379 -180 338 -176 c 0
 330 -176 310 -176 283 -178 c 2
 279 -178 l 2
 271 -178 258 -168 258 -158 c 0
 258 -156 260 -151 268 -143 c 2
 285 -123 l 1
 381 0 l 1
 438 0 l 1
EndSplineSet
EndChar

StartChar: hungarumlaut
Encoding: 733 733 133
Width: 980
GlyphClass: 2
Flags: HMW
HStem: 1051 473<472 807 773 777>
LayerCount: 2
Fore
SplineSet
463 1104 m 2
 655 1417 l 2
 696 1483 697 1483 711 1495 c 0
 729 1513 753 1524 784 1524 c 0
 829 1524 868 1497 868 1468 c 0
 868 1443 844 1407 799 1364 c 2
 506 1075 l 2
 492 1059 479 1051 473 1051 c 0
 471 1051 467 1053 463 1057 c 2
 453 1063 l 2
 449 1065 446 1069 446 1073 c 0
 446 1077 451 1086 463 1104 c 2
764 1104 m 2
 956 1417 l 2
 997 1483 998 1483 1012 1495 c 0
 1030 1515 1054 1524 1087 1524 c 0
 1130 1524 1169 1497 1169 1468 c 0
 1169 1443 1145 1407 1100 1364 c 2
 807 1075 l 2
 793 1059 780 1051 774 1051 c 0
 772 1051 768 1053 764 1057 c 2
 754 1063 l 2
 750 1065 748 1069 748 1073 c 0
 748 1077 752 1086 764 1104 c 2
EndSplineSet
EndChar

StartChar: ogonek
Encoding: 731 731 134
Width: 980
GlyphClass: 2
Flags: HMW
HStem: -324 88<450 585>
VStem: 338 131<-186 -145 -186 -139>
LayerCount: 2
Fore
SplineSet
522 33 m 1
 606 33 l 1
 590 17 573 -2 557 -20 c 0
 487 -94 469 -125 469 -166 c 0
 469 -207 510 -236 565 -236 c 0
 604 -236 633 -225 686 -188 c 1
 725 -223 l 1
 639 -295 574 -324 494 -324 c 0
 406 -324 338 -260 338 -178 c 0
 338 -100 366 -67 522 33 c 1
EndSplineSet
EndChar

StartChar: caron
Encoding: 711 711 135
Width: 980
GlyphClass: 2
Flags: HMW
HStem: 1069 473<480 645>
VStem: 465 504<1510 1520>
LayerCount: 2
Fore
SplineSet
657 1260 m 1
 817 1436 l 2
 878 1504 924 1542 942 1542 c 0
 952 1542 969 1528 969 1518 c 0
 969 1504 969 1503 809 1284 c 1
 774 1233 l 1
 707 1128 l 2
 678 1085 658 1069 633 1069 c 0
 590 1069 563 1099 551 1165 c 0
 541 1222 532 1259 526 1292 c 0
 520 1319 510 1349 475 1466 c 0
 467 1489 465 1501 465 1511 c 0
 465 1527 475 1542 485 1542 c 0
 505 1542 512 1531 569 1427 c 2
 657 1260 l 1
EndSplineSet
EndChar

StartChar: emdash
Encoding: 8212 8212 136
Width: 1585
GlyphClass: 2
Flags: HMW
HStem: 397 145<81 1499 96 1499>
LayerCount: 2
Fore
SplineSet
96 543 m 2
 1499 543 l 2
 1532 543 1536 538 1536 518 c 2
 1536 428 l 2
 1536 399 1534 397 1499 397 c 2
 96 397 l 2
 65 397 66 397 66 428 c 2
 66 518 l 2
 66 532 78 543 96 543 c 2
EndSplineSet
EndChar

StartChar: AE
Encoding: 198 198 137
Width: 1964
GlyphClass: 2
Flags: HW
HStem: -10 59 -10 76 723 68<776 1040 723 1057> 1346 66<1393 1526>
VStem: 1853 55<1139 1153>
LayerCount: 2
Fore
SplineSet
1210 727 m 1xb8
 1083 289 l 2
 1063 219 1053 175 1053 152 c 0
 1053 117 1075 90 1114 78 c 0
 1139 68 1192 66 1298 66 c 2
 1358 66 l 2x78
 1594 66 1630 84 1769 287 c 1
 1827 274 l 1
 1694 -10 l 1xb8
 1633 -8 1597 -6 1464 -6 c 2
 1257 -4 l 2
 1175 -2 1118 0 1102 0 c 0
 1084 0 1033 -2 965 -4 c 2
 815 -10 l 1
 715 -12 l 1
 705 -12 l 2
 691 -12 680 -6 682 2 c 2
 684 14 l 1
 686 41 l 2
 690 59 692 61 725 61 c 0
 836 65 852 84 907 262 c 2
 1040 723 l 1
 723 723 l 1
 315 252 l 2
 252 180 221 131 221 104 c 0
 221 71 248 59 344 53 c 0
 352 53 356 49 356 43 c 2
 354 33 l 1
 352 10 l 2
 350 -6 346 -10 330 -10 c 0x78
 314 -10 313 -10 221 -4 c 0
 180 -2 151 0 147 0 c 0
 28 -6 -65 -10 -96 -10 c 0
 -114 -10 -121 -6 -121 6 c 0
 -121 8 -121 8 -119 20 c 2
 -117 35 l 2
 -115 45 -113 47 -109 49 c 0
 -105 51 -97 53 -66 57 c 0
 40 71 55 82 137 174 c 2
 909 1090 l 2
 1007 1205 1047 1268 1047 1311 c 0
 1047 1350 1024 1356 891 1356 c 0
 879 1356 874 1362 874 1370 c 0
 874 1374 875 1376 877 1380 c 2
 881 1399 l 2
 887 1422 891 1423 922 1423 c 2
 1393 1411 l 2
 1510 1411 1786 1415 1847 1417 c 0
 1894 1419 1936 1421 1956 1421 c 0
 1974 1421 1985 1415 1985 1407 c 0
 1985 1405 1982 1401 1980 1395 c 2
 1976 1382 l 1
 1909 1139 l 1
 1853 1153 l 1
 1847 1325 1827 1346 1669 1346 c 2
 1526 1346 l 2
 1442 1346 1430 1343 1407 1329 c 0
 1380 1313 1375 1298 1348 1210 c 2
 1231 795 l 1
 1415 795 l 2
 1483 795 1521 801 1552 817 c 0
 1585 835 1587 840 1626 918 c 0
 1628 922 1632 924 1634 924 c 0
 1636 924 1638 924 1640 922 c 2
 1651 920 l 1
 1665 913 l 2
 1679 907 1683 905 1683 897 c 0
 1683 893 1683 893 1675 870 c 2
 1591 606 l 2
 1579 571 1579 571 1571 571 c 0
 1567 571 1562 571 1552 575 c 2
 1538 580 l 2
 1528 582 1524 586 1524 594 c 0
 1524 596 1524 600 1526 606 c 0
 1536 649 1536 656 1536 674 c 0
 1536 721 1536 721 1411 727 c 2
 1210 727 l 1xb8
1057 791 m 1
 1204 1303 l 1
 1155 1260 1116 1214 1030 1108 c 2
 776 791 l 1
 1057 791 l 1
EndSplineSet
EndChar

StartChar: ordfeminine
Encoding: 170 170 138
Width: 905
GlyphClass: 2
Flags: HMW
HStem: 686 113<289 449> 1341 41G<836 844 844 848 848 848>
VStem: 627 109<741 833> 739 170<1155 1369>
LayerCount: 2
Fore
SplineSet
811 1075 m 2
 752 895 l 2
 742 862 735 837 735 827 c 0
 735 813 748 799 760 799 c 0
 785 799 833 847 872 913 c 0
 882 927 889 936 897 936 c 0
 905 936 928 915 928 907 c 0
 928 893 874 823 827 776 c 0
 761 708 727 686 690 686 c 0
 651 686 627 717 627 766 c 0
 627 809 630 829 657 944 c 1
 520 772 405 686 313 686 c 0
 264 686 233 725 233 784 c 0
 233 893 309 1036 430 1161 c 0
 539 1270 657 1327 782 1327 c 2
 799 1327 l 1
 805 1335 811 1346 815 1358 c 0
 823 1374 830 1380 836 1382 c 2
 844 1382 l 1
 848 1382 l 1
 901 1378 l 2
 905 1378 909 1372 909 1366 c 0
 909 1360 907 1351 903 1343 c 0
 893 1325 856 1214 811 1075 c 2
698 1245 m 0
 643 1249 543 1188 473 1112 c 0
 414 1044 364 940 358 866 c 0
 354 827 374 799 403 799 c 0
 493 799 739 1099 739 1210 c 0
 739 1230 723 1243 698 1245 c 0
EndSplineSet
EndChar

StartChar: Lslash
Encoding: 321 321 139
Width: 1208
GlyphClass: 2
Flags: HMW
HStem: 2 66<512 607> 1350 72
LayerCount: 2
Fore
SplineSet
344 764 m 1
 455 1139 l 2
 486 1254 485 1254 485 1274 c 0
 485 1315 452 1342 393 1350 c 0
 350 1356 346 1356 346 1368 c 0
 346 1372 348 1382 350 1386 c 2
 354 1397 l 2
 362 1415 371 1421 387 1421 c 0
 399 1421 434 1419 473 1415 c 0
 498 1413 528 1411 555 1411 c 0
 586 1411 711 1415 768 1419 c 2
 831 1421 l 2
 856 1421 864 1411 862 1391 c 2
 860 1378 l 2
 858 1355 856 1354 815 1356 c 0
 704 1354 696 1346 647 1188 c 2
 553 866 l 1
 850 1032 l 1
 819 932 l 1
 524 766 l 1
 367 221 l 2
 357 186 350 159 350 145 c 0
 350 116 366 94 395 82 c 0
 420 72 461 68 563 68 c 0
 725 68 897 88 934 111 c 0
 952 121 1034 215 1079 276 c 1
 1135 254 l 1
 1030 33 l 2
 1010 -10 1009 -10 991 -10 c 0
 956 -10 850 -6 760 -2 c 0
 678 0 625 2 590 2 c 0
 400 2 113 -2 66 -6 c 0
 39 -8 8 -10 2 -10 c 0
 -14 -10 -20 -6 -20 6 c 0
 -20 10 -20 14 -18 18 c 2
 -16 35 l 2
 -10 53 -6 55 27 57 c 0
 138 71 140 75 199 270 c 2
 315 664 l 1
 123 555 l 1
 154 655 l 1
 344 764 l 1
EndSplineSet
EndChar

StartChar: Oslash
Encoding: 216 216 140
Width: 1624
GlyphClass: 2
Flags: HMW
HStem: -41 80<709 866 709 1023> 1370 80<893 1056>
VStem: 143 207<546 683 540 848> 1413 209<714 865 563 867>
LayerCount: 2
Fore
SplineSet
0 31 m 2
 248 236 l 1
 182 334 143 473 143 618 c 0
 143 1077 514 1450 971 1450 c 0
 1172 1450 1333 1382 1466 1241 c 1
 1692 1427 l 2
 1706 1437 1717 1442 1737 1442 c 2
 1782 1442 l 2
 1792 1442 1800 1435 1800 1427 c 0
 1800 1419 1796 1413 1790 1409 c 2
 1513 1180 l 1
 1587 1063 1622 941 1622 791 c 0
 1622 336 1250 -41 797 -41 c 0
 594 -41 424 31 297 172 c 1
 80 -8 l 2
 62 -24 47 -31 31 -31 c 2
 -18 -31 l 2
 -26 -31 -35 -22 -35 -16 c 0
 -35 -6 -20 15 0 31 c 2
385 348 m 1
 1346 1141 l 1
 1260 1299 1141 1370 971 1370 c 0
 815 1370 667 1299 565 1174 c 0
 432 1016 350 787 350 580 c 0
 350 500 360 430 385 348 c 1
1376 1065 m 1
 416 270 l 1
 498 116 625 39 793 39 c 0
 940 39 1073 100 1182 221 c 0
 1327 381 1413 604 1413 823 c 0
 1413 911 1403 983 1376 1065 c 1
EndSplineSet
EndChar

StartChar: OE
Encoding: 338 338 141
Width: 2115
GlyphClass: 2
Flags: HW
HStem: -41 78<752 862> -10 76<1356 1591 1473 1591 1591 1691> 727 68<1407 1606 1427 1602> 1346 68<1682 1722 1722 1729 1682 1853> 1370 80<1037 1116 823 1217>
VStem: 164 207<493 676 403 820> 2038 55<1139 1153>
LayerCount: 2
Fore
SplineSet
1407 727 m 1x36
 1280 289 l 2
 1260 219 1249 177 1249 154 c 0
 1249 119 1272 92 1311 78 c 0
 1336 70 1385 66 1473 66 c 2
 1591 66 l 2
 1790 66 1833 90 1970 287 c 1
 2028 274 l 1
 1892 -10 l 1
 1458 -10 l 2x76
 1253 -10 1235 -11 1016 -31 c 0
 944 -37 883 -41 842 -41 c 0
 662 -41 471 26 352 135 c 0
 229 246 164 402 164 584 c 0
 164 1057 575 1450 1071 1450 c 0xae
 1161 1450 1161 1450 1487 1425 c 0
 1579 1417 1665 1413 1700 1413 c 0
 1757 1413 1991 1417 2030 1419 c 2
 2138 1421 l 2
 2156 1421 2167 1415 2167 1405 c 0
 2167 1403 2167 1402 2161 1382 c 2
 2093 1139 l 1
 2038 1153 l 1
 2032 1325 2011 1346 1853 1346 c 2
 1722 1346 l 2
 1595 1346 1582 1337 1559 1251 c 2
 1427 795 l 1
 1606 795 l 2
 1674 795 1712 801 1743 817 c 0
 1774 835 1778 840 1817 918 c 0
 1819 922 1823 924 1827 924 c 2
 1827 924 1829 924 1831 922 c 2
 1839 920 l 1
 1855 913 l 2
 1869 907 1874 905 1874 897 c 0
 1874 895 1874 893 1866 870 c 2
 1780 608 l 2
 1770 575 1769 573 1761 573 c 0
 1755 573 1755 574 1743 578 c 2
 1729 582 l 2
 1717 586 1712 588 1712 596 c 0
 1712 598 1712 602 1714 608 c 0
 1722 635 1726 660 1726 680 c 0
 1726 723 1715 727 1602 727 c 2
 1407 727 l 1x36
1081 205 m 2
 1323 1049 l 2
 1362 1182 1364 1190 1364 1231 c 0
 1364 1327 1295 1370 1139 1370 c 0
 936 1370 772 1309 637 1184 c 0
 471 1030 371 792 371 559 c 0
 371 248 576 37 877 37 c 0xae
 953 37 1003 53 1032 84 c 0
 1050 107 1056 125 1081 205 c 2
EndSplineSet
EndChar

StartChar: ordmasculine
Encoding: 186 186 142
Width: 905
GlyphClass: 2
Flags: HMW
HStem: 686 55<462 563 462 600> 1327 55<604 671>
VStem: 256 125<882 940 846 1069> 754 125<1062 1199 1012 1220>
LayerCount: 2
Fore
SplineSet
633 1382 m 0
 776 1382 879 1274 879 1124 c 0
 879 899 697 686 504 686 c 0
 357 686 256 799 256 965 c 0
 256 1174 445 1382 633 1382 c 0
633 1327 m 0
 576 1327 526 1288 477 1210 c 0
 422 1120 381 985 381 895 c 0
 381 797 424 741 500 741 c 0
 627 741 754 954 754 1169 c 0
 754 1269 709 1327 633 1327 c 0
EndSplineSet
EndChar

StartChar: ae
Encoding: 230 230 143
Width: 1284
GlyphClass: 2
Flags: HW
HStem: -35 117<856 903> -35 141<73 255> 723 121 846 59<1055 1101>
VStem: -2 152<167 225 167 256> 580 162<229 285> 1163 141<688 772>
LayerCount: 2
Fore
SplineSet
881 864 m 2x7e
 864 827 l 1
 889 845 901 854 911 862 c 0
 950 889 1020 905 1090 905 c 0
 1223 905 1305 843 1305 741 c 0
 1305 563 1102 449 750 424 c 1
 744 358 741 334 741 295 c 0
 741 164 805 82 907 82 c 0
 985 82 1065 117 1120 172 c 2
 1147 199 l 1
 1188 166 l 1
 1163 133 l 2
 1087 29 967 -35 840 -35 c 0xbe
 674 -35 580 75 580 268 c 0
 580 301 582 330 588 373 c 1
 379 78 245 -35 106 -35 c 0
 38 -35 -2 21 -2 113 c 0
 -2 400 424 844 696 844 c 0
 714 844 729 842 760 836 c 1
 772 860 l 2
 795 903 807 911 844 911 c 0
 875 911 887 905 887 889 c 0
 887 881 885 872 881 864 c 2x7e
610 723 m 0
 504 729 352 617 248 455 c 0
 189 363 150 259 150 193 c 0
 150 142 176 106 217 106 c 0x7e
 293 106 410 211 541 397 c 0
 617 506 678 627 678 672 c 0
 678 703 653 721 610 723 c 0
762 473 m 1
 774 475 774 475 788 475 c 0
 845 479 905 492 956 512 c 0
 1093 563 1163 639 1163 737 c 0
 1163 807 1130 846 1071 846 c 0
 950 846 842 715 762 473 c 1
EndSplineSet
Substitution2: "smcpLowercasetoSmallCapitalslookup subtable" ae.smcp
EndChar

StartChar: dotlessi
Encoding: 305 305 144
Width: 604
GlyphClass: 2
Flags: HMW
HStem: -35 141<167 339> 764 141<281 438>
VStem: 98 172<28 161> 332 170<721 848>
LayerCount: 2
Fore
SplineSet
172 678 m 1
 129 711 l 1
 238 838 336 905 416 905 c 0
 461 905 502 868 502 827 c 0
 502 786 478 718 324 315 c 0
 279 196 270 170 270 152 c 0
 270 129 292 106 317 106 c 0
 360 106 418 162 516 299 c 1
 555 260 l 1
 432 74 299 -35 195 -35 c 0
 140 -35 98 2 98 53 c 0
 98 90 100 96 143 209 c 0
 182 305 280 567 313 657 c 0
 325 686 332 713 332 729 c 0
 332 745 313 764 295 764 c 0
 266 764 223 733 172 678 c 1
EndSplineSet
EndChar

StartChar: lslash
Encoding: 322 322 145
Width: 565
GlyphClass: 2
Flags: HMW
HStem: -35 154<133 305> 1481 45
VStem: 70 172<27 175> 428 211<1378 1575>
LayerCount: 2
Fore
SplineSet
293 862 m 1
 397 1231 l 2
 411 1288 428 1366 428 1391 c 0
 428 1442 387 1473 305 1481 c 1
 307 1501 309 1510 317 1526 c 1
 330 1528 l 1
 430 1546 l 2
 444 1548 520 1567 543 1575 c 0
 574 1583 578 1585 588 1585 c 0
 592 1585 592 1585 604 1583 c 2
 621 1583 l 2
 635 1581 639 1579 639 1571 c 0
 639 1569 639 1569 633 1546 c 2
 453 928 l 1
 657 1028 l 1
 635 942 l 1
 428 840 l 1
 274 309 l 2
 251 231 242 187 242 164 c 0
 242 137 260 119 287 119 c 0
 324 119 360 145 440 227 c 2
 489 281 l 1
 528 244 l 1
 502 213 l 2
 457 160 383 88 324 43 c 0
 252 -14 207 -35 156 -35 c 0
 111 -35 70 6 70 47 c 0
 70 70 69 69 102 190 c 2
 268 774 l 1
 70 676 l 1
 98 766 l 1
 293 862 l 1
EndSplineSet
Substitution2: "smcpLowercasetoSmallCapitalslookup subtable" lslash.smcp
EndChar

StartChar: oslash
Encoding: 248 248 146
Width: 944
GlyphClass: 2
Flags: HMW
HStem: -35 66<332 425 332 492> 838 68<499 590>
VStem: 68 152<295 311 256 480> 702 164<402 608>
LayerCount: 2
Fore
SplineSet
-33 18 m 2
 102 147 l 1
 77 208 68 260 68 330 c 0
 68 631 297 905 551 905 c 0
 649 905 725 869 786 793 c 1
 891 891 l 2
 903 901 918 907 938 907 c 2
 977 907 l 2
 985 907 991 901 991 893 c 0
 991 883 987 878 973 864 c 2
 827 727 l 1
 856 661 866 614 866 557 c 0
 866 248 624 -35 358 -35 c 0
 264 -35 202 -2 141 80 c 1
 49 -6 l 2
 29 -29 24 -31 10 -31 c 2
 -35 -31 l 2
 -47 -31 -57 -24 -57 -14 c 0
 -57 -6 -51 2 -33 18 c 2
219 256 m 1
 694 705 l 1
 667 799 627 838 553 838 c 0
 444 838 355 750 283 578 c 0
 242 472 219 367 219 256 c 1
702 608 m 1
 231 164 l 1
 254 76 299 31 365 31 c 0
 486 31 583 137 649 340 c 0
 682 436 698 524 702 608 c 1
EndSplineSet
Substitution2: "smcpLowercasetoSmallCapitalslookup subtable" oslash.smcp
EndChar

StartChar: oe
Encoding: 339 339 147
Width: 1396
GlyphClass: 2
Flags: HW
HStem: -35 66<308 403 308 413> -35 117<961 1008> 838 68<505 594>
VStem: 55 152<222 343 200 481> 711 127 1264 141<689 774>
LayerCount: 2
Fore
SplineSet
1253 199 m 1x7c
 1294 166 l 1
 1272 133 l 2
 1198 31 1071 -35 944 -35 c 0x7c
 821 -35 739 18 698 129 c 1
 596 20 477 -35 348 -35 c 0xbc
 176 -35 55 115 55 330 c 0
 55 633 287 905 543 905 c 0
 678 905 779 840 838 713 c 1
 944 844 1059 905 1198 905 c 0
 1327 905 1405 843 1405 741 c 0
 1405 563 1206 449 858 424 c 1
 842 365 838 336 838 291 c 0
 838 164 908 82 1014 82 c 0
 1090 82 1172 117 1227 172 c 2
 1253 199 l 1x7c
545 838 m 0
 465 838 393 793 338 705 c 0
 260 584 207 408 207 279 c 0
 207 121 260 31 356 31 c 0xbc
 450 31 547 102 604 221 c 0
 670 354 711 510 711 633 c 0
 711 754 643 838 545 838 c 0
868 473 m 1
 880 475 881 475 897 475 c 0
 952 479 1010 492 1061 512 c 0
 1198 565 1264 639 1264 739 c 0
 1264 809 1233 846 1178 846 c 0
 1057 846 948 715 868 473 c 1
EndSplineSet
Substitution2: "smcpLowercasetoSmallCapitalslookup subtable" oe.smcp
EndChar

StartChar: germandbls
Encoding: 223 223 148
Width: 1019
GlyphClass: 2
Flags: HMW
HStem: -522 111<-305 -166> 0 113<615 620> 1503 72<767 855>
VStem: 588 152<776 779> 752 137<260 306> 1042 156<1205 1316>
LayerCount: 2
Fore
SplineSet
29 0 m 1
 242 827 l 2
 297 1044 356 1198 432 1321 c 0
 528 1475 690 1575 844 1575 c 0
 1039 1575 1198 1438 1198 1274 c 0
 1198 1137 1125 1055 930 973 c 0
 795 918 739 865 739 791 c 0
 739 762 751 727 788 645 c 0
 860 493 889 406 889 340 c 0
 889 180 703 0 537 0 c 0
 471 0 416 43 416 94 c 0
 416 127 450 164 481 164 c 0
 501 164 526 155 557 137 c 0
 584 121 609 113 623 113 c 0
 652 113 700 145 725 182 c 0
 743 209 752 237 752 270 c 0
 752 342 735 385 618 643 c 0
 598 690 588 727 588 756 c 0
 588 803 627 866 686 915 c 0
 715 940 768 971 870 1024 c 0
 995 1085 1042 1147 1042 1245 c 0
 1042 1386 925 1503 784 1503 c 0
 678 1503 587 1429 528 1290 c 0
 483 1188 410 968 375 829 c 2
 184 80 l 2
 141 -84 62 -268 -16 -379 c 0
 -79 -471 -170 -522 -268 -522 c 0
 -342 -522 -389 -487 -389 -434 c 0
 -389 -395 -357 -358 -324 -358 c 0
 -304 -358 -279 -367 -250 -383 c 0
 -221 -401 -194 -412 -176 -412 c 0
 -156 -412 -127 -394 -109 -367 c 0
 -84 -332 -82 -326 29 0 c 1
EndSplineSet
Substitution2: "smcpLowercasetoSmallCapitalslookup subtable" germandbls.smcp
EndChar

StartChar: Adieresis
Encoding: 196 196 149
Width: 1435
GlyphClass: 2
Flags: HMW
HStem: -10 68<-94 -22 860 860> 559 80<517 547 547 891 510 895> 1542 217<768 809 1163 1204>
VStem: 680 217<1634 1676> 1075 217<1634 1676>
LayerCount: 2
Fore
SplineSet
895 559 m 1
 547 559 l 2
 488 559 469 557 457 547 c 0
 447 541 446 541 397 467 c 2
 283 287 l 2
 203 162 186 129 186 100 c 0
 186 67 217 57 305 55 c 0
 340 55 350 53 348 45 c 2
 346 29 l 1
 344 12 l 2
 344 -4 333 -10 315 -10 c 0
 307 -10 288 -10 272 -8 c 0
 215 -4 119 0 94 0 c 0
 55 0 51 0 -35 -8 c 0
 -47 -10 -68 -10 -86 -10 c 0
 -102 -10 -109 -6 -109 4 c 2
 -106 23 l 1
 -102 35 l 2
 -96 53 -94 55 -61 57 c 0
 19 57 41 76 131 207 c 2
 815 1278 l 2
 829 1307 846 1333 862 1356 c 0
 917 1454 940 1473 989 1475 c 1
 1098 217 l 2
 1108 100 1120 76 1171 66 c 0
 1224 56 1243 47 1241 35 c 2
 1239 20 l 1
 1235 2 l 2
 1233 -6 1224 -10 1210 -10 c 0
 1175 -10 1176 -10 1147 -4 c 0
 1133 -2 1112 0 1079 0 c 0
 1050 0 1005 -2 950 -4 c 2
 860 -10 l 1
 805 -12 l 1
 797 -12 l 2
 783 -12 770 -2 774 10 c 2
 774 12 l 1
 776 35 l 2
 778 58 780 57 827 57 c 0
 899 57 926 80 926 139 c 0
 926 164 926 168 920 256 c 2
 895 559 l 1
891 639 m 1
 858 1190 l 1
 510 639 l 1
 891 639 l 1
801 1759 m 0
 856 1759 897 1720 897 1667 c 0
 897 1601 839 1542 778 1542 c 0
 723 1542 680 1590 680 1647 c 0
 680 1706 735 1759 801 1759 c 0
1196 1759 m 0
 1251 1759 1292 1720 1292 1667 c 0
 1292 1601 1235 1542 1174 1542 c 0
 1121 1542 1075 1590 1075 1647 c 0
 1075 1706 1130 1759 1196 1759 c 0
EndSplineSet
EndChar

StartChar: Aacute
Encoding: 193 193 150
Width: 1435
GlyphClass: 2
Flags: HMW
HStem: -10 68<-94 -22 860 860> 559 80<517 547 547 891 510 895>
LayerCount: 2
Fore
SplineSet
895 559 m 1
 547 559 l 2
 488 559 469 557 457 547 c 0
 447 541 446 541 397 467 c 2
 283 287 l 2
 203 162 186 129 186 100 c 0
 186 67 217 57 305 55 c 0
 340 55 350 53 348 45 c 2
 346 29 l 1
 344 12 l 2
 344 -4 333 -10 315 -10 c 0
 307 -10 288 -10 272 -8 c 0
 215 -4 119 0 94 0 c 0
 55 0 51 0 -35 -8 c 0
 -47 -10 -68 -10 -86 -10 c 0
 -102 -10 -109 -6 -109 4 c 2
 -106 23 l 1
 -102 35 l 2
 -96 53 -94 55 -61 57 c 0
 19 57 41 76 131 207 c 2
 815 1278 l 2
 829 1307 846 1333 862 1356 c 0
 917 1454 940 1473 989 1475 c 1
 1098 217 l 2
 1108 100 1120 76 1171 66 c 0
 1224 56 1243 47 1241 35 c 2
 1239 20 l 1
 1235 2 l 2
 1233 -6 1224 -10 1210 -10 c 0
 1175 -10 1176 -10 1147 -4 c 0
 1133 -2 1112 0 1079 0 c 0
 1050 0 1005 -2 950 -4 c 2
 860 -10 l 1
 805 -12 l 1
 797 -12 l 2
 783 -12 770 -2 774 10 c 2
 774 12 l 1
 776 35 l 2
 778 58 780 57 827 57 c 0
 899 57 926 80 926 139 c 0
 926 164 926 168 920 256 c 2
 895 559 l 1
891 639 m 1
 858 1190 l 1
 510 639 l 1
 891 639 l 1
1178 1700 m 2
 981 1559 l 2
 967 1549 952 1542 944 1542 c 0
 940 1542 936 1544 934 1546 c 2
 920 1554 l 2
 908 1564 905 1565 905 1571 c 0
 905 1579 910 1588 920 1602 c 2
 1090 1812 l 2
 1178 1921 1200 1937 1255 1937 c 0
 1298 1937 1339 1903 1339 1868 c 0
 1339 1825 1311 1794 1178 1700 c 2
EndSplineSet
EndChar

StartChar: Agrave
Encoding: 192 192 151
Width: 1435
GlyphClass: 2
Flags: HMW
HStem: -10 68<-94 -22 860 860> 559 80<517 547 547 891 510 895>
LayerCount: 2
Fore
SplineSet
895 559 m 1
 547 559 l 2
 488 559 469 557 457 547 c 0
 447 541 446 541 397 467 c 2
 283 287 l 2
 203 162 186 129 186 100 c 0
 186 67 217 57 305 55 c 0
 340 55 350 53 348 45 c 2
 346 29 l 1
 344 12 l 2
 344 -4 333 -10 315 -10 c 0
 307 -10 288 -10 272 -8 c 0
 215 -4 119 0 94 0 c 0
 55 0 51 0 -35 -8 c 0
 -47 -10 -68 -10 -86 -10 c 0
 -102 -10 -109 -6 -109 4 c 2
 -106 23 l 1
 -102 35 l 2
 -96 53 -94 55 -61 57 c 0
 19 57 41 76 131 207 c 2
 815 1278 l 2
 829 1307 846 1333 862 1356 c 0
 917 1454 940 1473 989 1475 c 1
 1098 217 l 2
 1108 100 1120 76 1171 66 c 0
 1224 56 1243 47 1241 35 c 2
 1239 20 l 1
 1235 2 l 2
 1233 -6 1224 -10 1210 -10 c 0
 1175 -10 1176 -10 1147 -4 c 0
 1133 -2 1112 0 1079 0 c 0
 1050 0 1005 -2 950 -4 c 2
 860 -10 l 1
 805 -12 l 1
 797 -12 l 2
 783 -12 770 -2 774 10 c 2
 774 12 l 1
 776 35 l 2
 778 58 780 57 827 57 c 0
 899 57 926 80 926 139 c 0
 926 164 926 168 920 256 c 2
 895 559 l 1
891 639 m 1
 858 1190 l 1
 510 639 l 1
 891 639 l 1
969 1559 m 2
 772 1700 l 2
 639 1796 612 1823 612 1868 c 0
 612 1903 653 1937 696 1937 c 0
 749 1937 774 1918 860 1812 c 2
 1030 1602 l 2
 1040 1590 1044 1581 1044 1573 c 0
 1044 1565 1042 1562 1034 1556 c 2
 1018 1546 l 2
 1014 1544 1010 1542 1006 1542 c 0
 1000 1542 983 1551 969 1559 c 2
EndSplineSet
EndChar

StartChar: Acircumflex
Encoding: 194 194 152
Width: 1435
GlyphClass: 2
Flags: HMW
HStem: -10 68<-94 -22 860 860> 559 80<517 547 547 891 510 895>
LayerCount: 2
Fore
SplineSet
895 559 m 1
 547 559 l 2
 488 559 469 557 457 547 c 0
 447 541 446 541 397 467 c 2
 283 287 l 2
 203 162 186 129 186 100 c 0
 186 67 217 57 305 55 c 0
 340 55 350 53 348 45 c 2
 346 29 l 1
 344 12 l 2
 344 -4 333 -10 315 -10 c 0
 307 -10 288 -10 272 -8 c 0
 215 -4 119 0 94 0 c 0
 55 0 51 0 -35 -8 c 0
 -47 -10 -68 -10 -86 -10 c 0
 -102 -10 -109 -6 -109 4 c 2
 -106 23 l 1
 -102 35 l 2
 -96 53 -94 55 -61 57 c 0
 19 57 41 76 131 207 c 2
 815 1278 l 2
 829 1307 846 1333 862 1356 c 0
 917 1454 940 1473 989 1475 c 1
 1098 217 l 2
 1108 100 1120 76 1171 66 c 0
 1224 56 1243 47 1241 35 c 2
 1239 20 l 1
 1235 2 l 2
 1233 -6 1224 -10 1210 -10 c 0
 1175 -10 1176 -10 1147 -4 c 0
 1133 -2 1112 0 1079 0 c 0
 1050 0 1005 -2 950 -4 c 2
 860 -10 l 1
 805 -12 l 1
 797 -12 l 2
 783 -12 770 -2 774 10 c 2
 774 12 l 1
 776 35 l 2
 778 58 780 57 827 57 c 0
 899 57 926 80 926 139 c 0
 926 164 926 168 920 256 c 2
 895 559 l 1
891 639 m 1
 858 1190 l 1
 510 639 l 1
 891 639 l 1
999 1753 m 1
 737 1552 l 2
 727 1546 719 1542 713 1542 c 0
 703 1542 678 1563 678 1573 c 0
 678 1577 682 1583 690 1593 c 2
 961 1892 l 2
 996 1929 1007 1937 1032 1937 c 0
 1059 1937 1078 1923 1094 1886 c 2
 1231 1591 l 2
 1233 1585 1235 1579 1235 1577 c 0
 1235 1567 1206 1546 1190 1546 c 0
 1184 1546 1175 1553 1169 1561 c 2
 999 1753 l 1
EndSplineSet
EndChar

StartChar: Atilde
Encoding: 195 195 153
Width: 1435
GlyphClass: 2
Flags: HMW
HStem: -10 68<-94 -22 860 860> 559 80<517 547 547 891 510 895> 1542 141<1151 1156> 1704 141<877 943>
LayerCount: 2
Fore
SplineSet
895 559 m 1
 547 559 l 2
 488 559 469 557 457 547 c 0
 447 541 446 541 397 467 c 2
 283 287 l 2
 203 162 186 129 186 100 c 0
 186 67 217 57 305 55 c 0
 340 55 350 53 348 45 c 2
 346 29 l 1
 344 12 l 2
 344 -4 333 -10 315 -10 c 0
 307 -10 288 -10 272 -8 c 0
 215 -4 119 0 94 0 c 0
 55 0 51 0 -35 -8 c 0
 -47 -10 -68 -10 -86 -10 c 0
 -102 -10 -109 -6 -109 4 c 2
 -106 23 l 1
 -102 35 l 2
 -96 53 -94 55 -61 57 c 0
 19 57 41 76 131 207 c 2
 815 1278 l 2
 829 1307 846 1333 862 1356 c 0
 917 1454 940 1473 989 1475 c 1
 1098 217 l 2
 1108 100 1120 76 1171 66 c 0
 1224 56 1243 47 1241 35 c 2
 1239 20 l 1
 1235 2 l 2
 1233 -6 1224 -10 1210 -10 c 0
 1175 -10 1176 -10 1147 -4 c 0
 1133 -2 1112 0 1079 0 c 0
 1050 0 1005 -2 950 -4 c 2
 860 -10 l 1
 805 -12 l 1
 797 -12 l 2
 783 -12 770 -2 774 10 c 2
 774 12 l 1
 776 35 l 2
 778 58 780 57 827 57 c 0
 899 57 926 80 926 139 c 0
 926 164 926 168 920 256 c 2
 895 559 l 1
891 639 m 1
 858 1190 l 1
 510 639 l 1
 891 639 l 1
926 1845 m 0
 961 1845 961 1845 1104 1714 c 0
 1129 1691 1145 1683 1157 1683 c 0
 1188 1683 1252 1730 1311 1796 c 0
 1346 1833 1352 1839 1362 1839 c 0
 1374 1839 1397 1820 1397 1810 c 0
 1397 1796 1348 1716 1313 1671 c 0
 1243 1585 1183 1542 1128 1542 c 0
 1083 1542 1047 1567 965 1653 c 0
 932 1688 909 1704 893 1704 c 0
 860 1704 793 1647 725 1561 c 0
 715 1547 708 1542 700 1542 c 0
 684 1542 666 1557 666 1569 c 0
 666 1587 737 1698 780 1747 c 0
 839 1813 887 1845 926 1845 c 0
EndSplineSet
EndChar

StartChar: Aring
Encoding: 197 197 154
Width: 1435
GlyphClass: 2
Flags: HMW
HStem: -10 68<-94 -22 860 860> 559 80<517 547 547 891 510 895> 1511 102<1018 1090 1018 1109> 1858 102<1029 1099>
VStem: 846 84<1698 1763 1698 1790> 1188 84<1707 1773>
LayerCount: 2
Fore
SplineSet
895 559 m 1
 547 559 l 2
 488 559 469 557 457 547 c 0
 447 541 446 541 397 467 c 2
 283 287 l 2
 203 162 186 129 186 100 c 0
 186 67 217 57 305 55 c 0
 340 55 350 53 348 45 c 2
 346 29 l 1
 344 12 l 2
 344 -4 333 -10 315 -10 c 0
 307 -10 288 -10 272 -8 c 0
 215 -4 119 0 94 0 c 0
 55 0 51 0 -35 -8 c 0
 -47 -10 -68 -10 -86 -10 c 0
 -102 -10 -109 -6 -109 4 c 2
 -106 23 l 1
 -102 35 l 2
 -96 53 -94 55 -61 57 c 0
 19 57 41 76 131 207 c 2
 815 1278 l 2
 829 1307 846 1333 862 1356 c 0
 917 1454 940 1473 989 1475 c 1
 1098 217 l 2
 1108 100 1120 76 1171 66 c 0
 1224 56 1243 47 1241 35 c 2
 1239 20 l 1
 1235 2 l 2
 1233 -6 1224 -10 1210 -10 c 0
 1175 -10 1176 -10 1147 -4 c 0
 1133 -2 1112 0 1079 0 c 0
 1050 0 1005 -2 950 -4 c 2
 860 -10 l 1
 805 -12 l 1
 797 -12 l 2
 783 -12 770 -2 774 10 c 2
 774 12 l 1
 776 35 l 2
 778 58 780 57 827 57 c 0
 899 57 926 80 926 139 c 0
 926 164 926 168 920 256 c 2
 895 559 l 1
891 639 m 1
 858 1190 l 1
 510 639 l 1
 891 639 l 1
1077 1960 m 0
 1188 1960 1272 1868 1272 1745 c 0
 1272 1614 1172 1511 1047 1511 c 0
 930 1511 846 1601 846 1726 c 0
 846 1853 950 1960 1077 1960 c 0
1065 1858 m 0
 993 1858 930 1797 930 1731 c 0
 930 1665 983 1614 1053 1614 c 0
 1127 1614 1188 1673 1188 1741 c 0
 1188 1804 1133 1858 1065 1858 c 0
EndSplineSet
EndChar

StartChar: Ccedilla
Encoding: 199 199 155
Width: 1435
GlyphClass: 2
Flags: HMW
HStem: -467 66<729 776 729 794> -41 78<866 866> 1372 78<889 1060>
VStem: 162 207<438 730> 862 131<-327 -284> 1442 117<1109 1249>
LayerCount: 2
Fore
SplineSet
866 -41 m 1
 831 -111 l 1
 944 -138 993 -186 993 -270 c 0
 993 -383 875 -467 713 -467 c 0
 627 -467 565 -438 565 -395 c 0
 565 -372 583 -352 606 -352 c 0
 624 -352 625 -352 674 -387 c 0
 688 -395 712 -401 745 -401 c 0
 806 -401 862 -358 862 -309 c 0
 862 -258 809 -219 729 -213 c 0
 698 -209 684 -203 684 -195 c 0
 684 -189 690 -178 723 -141 c 0
 735 -127 758 -94 762 -88 c 2
 786 -37 l 1
 403 0 162 256 162 621 c 0
 162 840 243 1040 393 1194 c 0
 551 1352 780 1450 997 1450 c 0
 1151 1450 1356 1388 1499 1300 c 0
 1542 1273 1559 1257 1559 1241 c 0
 1559 1233 1558 1233 1542 1192 c 2
 1475 1018 l 1
 1421 1030 l 1
 1437 1073 1442 1095 1442 1122 c 0
 1442 1196 1403 1249 1309 1298 c 0
 1225 1343 1110 1372 1010 1372 c 0
 666 1372 369 1008 369 588 c 0
 369 256 559 37 848 37 c 0
 1030 37 1153 117 1290 324 c 1
 1346 303 l 1
 1253 49 l 1
 1120 -14 1016 -39 866 -41 c 1
EndSplineSet
EndChar

StartChar: Eth
Encoding: 208 208 156
Width: 1548
GlyphClass: 2
Flags: HMW
HStem: -10 68<555 654 477 739> 713 82<147 315 123 338> 1372 78<728 920 675 958>
VStem: 1346 209<735 925 723 1025>
LayerCount: 2
Fore
SplineSet
338 795 m 1
 436 1147 l 2
 456 1225 467 1270 467 1290 c 0
 467 1329 434 1350 373 1350 c 0
 355 1350 327 1348 309 1346 c 0
 301 1344 295 1343 291 1343 c 0
 279 1343 274 1350 274 1360 c 0
 274 1364 274 1364 276 1378 c 2
 279 1393 l 2
 281 1409 285 1415 297 1417 c 0
 371 1433 594 1450 756 1450 c 0
 1084 1450 1260 1401 1397 1274 c 0
 1495 1180 1554 1016 1554 834 c 0
 1554 613 1481 426 1327 272 c 0
 1141 79 899 -10 580 -10 c 0
 531 -10 447 -8 367 -4 c 0
 304 -2 262 0 221 0 c 0
 196 0 149 -2 100 -4 c 0
 26 -8 -12 -10 -37 -10 c 0
 -51 -10 -53 -6 -53 14 c 2
 -55 29 l 1
 -55 39 l 2
 -55 47 -53 49 -39 53 c 0
 135 92 143 103 221 373 c 2
 315 713 l 1
 123 713 l 1
 147 795 l 1
 338 795 l 1
512 795 m 1
 889 795 l 1
 864 715 l 1
 489 713 l 1
 371 291 l 2
 351 215 340 173 340 150 c 0
 340 84 401 57 553 57 c 0
 756 57 897 102 1036 211 c 0
 1226 358 1346 608 1346 862 c 0
 1346 1188 1141 1372 776 1372 c 0
 680 1372 674 1368 651 1288 c 2
 512 795 l 1
EndSplineSet
EndChar

StartChar: Edieresis
Encoding: 203 203 157
Width: 1208
GlyphClass: 2
Flags: HW
HStem: -4 70 727 68<496 719 516 713> 1354 68<322 379> 1542 217<699 740 1097 1137>
VStem: 612 215<1634 1676> 825 68<591 608> 1008 217<1634 1676> 1120 55<1139 1153>
LayerCount: 2
Fore
SplineSet
496 727 m 1xf8
 369 289 l 2
 349 219 338 177 338 154 c 0
 338 119 360 92 399 78 c 0
 428 68 434 68 590 66 c 2
 659 66 l 2
 903 66 936 84 1075 289 c 1
 1133 274 l 1
 999 -10 l 1
 942 -8 907 -6 772 -6 c 2
 565 -4 l 2
 473 -2 407 0 391 0 c 0
 360 0 311 -2 250 -4 c 2
 127 -8 l 1
 12 -10 l 2
 2 -12 -8 -12 -12 -12 c 0
 -32 -12 -43 -8 -43 2 c 2
 -43 14 l 1
 -39 41 l 2
 -37 57 -37 59 -31 61 c 2
 -23 66 l 1
 63 68 l 2
 122 72 148 108 193 262 c 2
 446 1139 l 2
 466 1209 481 1275 481 1298 c 0
 481 1335 441 1356 367 1356 c 2
 344 1356 l 2
 336 1354 330 1354 326 1354 c 0
 318 1354 311 1358 311 1364 c 0
 311 1366 311 1368 317 1384 c 2
 324 1401 l 2
 330 1417 337 1421 360 1421 c 0
 397 1421 397 1421 641 1415 c 2
 797 1413 l 2
 836 1413 1083 1417 1114 1419 c 0
 1159 1421 1198 1421 1223 1421 c 0
 1239 1421 1249 1415 1249 1405 c 0
 1249 1403 1249 1402 1243 1382 c 2
 1176 1139 l 1
 1120 1153 l 1
 1112 1327 1096 1346 936 1346 c 2
 811 1346 l 2
 727 1346 715 1343 692 1329 c 0
 665 1313 660 1300 635 1210 c 2
 516 795 l 1
 719 795 l 2
 787 795 825 801 854 817 c 0
 887 835 889 840 928 918 c 0
 930 922 934 924 938 924 c 0
 940 924 940 924 952 920 c 2
 967 913 l 2
 981 907 985 905 985 897 c 0
 985 893 985 893 979 870 c 2
 893 608 l 2
 881 573 880 573 872 573 c 0
 868 573 866 574 854 578 c 2
 840 582 l 2
 830 584 825 588 825 594 c 2xf5
 827 608 l 2
 833 626 840 660 840 680 c 0
 840 723 826 727 713 727 c 2
 496 727 l 1xf8
731 1759 m 0
 788 1759 827 1720 827 1667 c 0
 827 1601 772 1542 709 1542 c 0
 656 1542 612 1588 612 1647 c 0xf8
 612 1706 668 1759 731 1759 c 0
1128 1759 m 0
 1183 1759 1225 1720 1225 1667 c 0
 1225 1601 1167 1542 1106 1542 c 0
 1053 1542 1008 1590 1008 1647 c 0xf2
 1008 1706 1065 1759 1128 1759 c 0
EndSplineSet
EndChar

StartChar: Eacute
Encoding: 201 201 158
Width: 1208
GlyphClass: 2
Flags: HMW
HStem: -4 70 727 68<496 719 516 713> 1354 68<322 379>
VStem: 825 68<591 608> 1120 55<1139 1153>
LayerCount: 2
Fore
SplineSet
496 727 m 1
 369 289 l 2
 349 219 338 177 338 154 c 0
 338 119 360 92 399 78 c 0
 428 68 434 68 590 66 c 2
 659 66 l 2
 903 66 936 84 1075 289 c 1
 1133 274 l 1
 999 -10 l 1
 942 -8 907 -6 772 -6 c 2
 565 -4 l 2
 473 -2 407 0 391 0 c 0
 360 0 311 -2 250 -4 c 2
 127 -8 l 1
 12 -10 l 2
 2 -12 -8 -12 -12 -12 c 0
 -32 -12 -43 -8 -43 2 c 2
 -43 14 l 1
 -39 41 l 2
 -37 57 -37 59 -31 61 c 2
 -23 66 l 1
 63 68 l 2
 122 72 148 108 193 262 c 2
 446 1139 l 2
 466 1209 481 1275 481 1298 c 0
 481 1335 441 1356 367 1356 c 2
 344 1356 l 2
 336 1354 330 1354 326 1354 c 0
 318 1354 311 1358 311 1364 c 0
 311 1366 311 1368 317 1384 c 2
 324 1401 l 2
 330 1417 337 1421 360 1421 c 0
 397 1421 397 1421 641 1415 c 2
 797 1413 l 2
 836 1413 1083 1417 1114 1419 c 0
 1159 1421 1198 1421 1223 1421 c 0
 1239 1421 1249 1415 1249 1405 c 0
 1249 1403 1249 1402 1243 1382 c 2
 1176 1139 l 1
 1120 1153 l 1
 1112 1327 1096 1346 936 1346 c 2
 811 1346 l 2
 727 1346 715 1343 692 1329 c 0
 665 1313 660 1300 635 1210 c 2
 516 795 l 1
 719 795 l 2
 787 795 825 801 854 817 c 0
 887 835 889 840 928 918 c 0
 930 922 934 924 938 924 c 0
 940 924 940 924 952 920 c 2
 967 913 l 2
 981 907 985 905 985 897 c 0
 985 893 985 893 979 870 c 2
 893 608 l 2
 881 573 880 573 872 573 c 0
 868 573 866 574 854 578 c 2
 840 582 l 2
 830 584 825 588 825 594 c 2
 827 608 l 2
 833 626 840 660 840 680 c 0
 840 723 826 727 713 727 c 2
 496 727 l 1
1077 1700 m 2
 881 1559 l 2
 867 1549 850 1542 844 1542 c 0
 840 1542 835 1544 831 1546 c 2
 819 1554 l 2
 807 1562 805 1565 805 1573 c 0
 805 1581 809 1590 819 1602 c 2
 989 1812 l 2
 1061 1902 1065 1905 1092 1919 c 0
 1115 1931 1133 1937 1153 1937 c 0
 1196 1937 1237 1903 1237 1868 c 0
 1237 1825 1206 1792 1077 1700 c 2
EndSplineSet
EndChar

StartChar: Egrave
Encoding: 200 200 159
Width: 1208
GlyphClass: 2
Flags: HMW
HStem: -4 70 727 68<496 719 516 713> 1354 68<322 379>
VStem: 825 68<591 608> 1120 55<1139 1153>
LayerCount: 2
Fore
SplineSet
496 727 m 1
 369 289 l 2
 349 219 338 177 338 154 c 0
 338 119 360 92 399 78 c 0
 428 68 434 68 590 66 c 2
 659 66 l 2
 903 66 936 84 1075 289 c 1
 1133 274 l 1
 999 -10 l 1
 942 -8 907 -6 772 -6 c 2
 565 -4 l 2
 473 -2 407 0 391 0 c 0
 360 0 311 -2 250 -4 c 2
 127 -8 l 1
 12 -10 l 2
 2 -12 -8 -12 -12 -12 c 0
 -32 -12 -43 -8 -43 2 c 2
 -43 14 l 1
 -39 41 l 2
 -37 57 -37 59 -31 61 c 2
 -23 66 l 1
 63 68 l 2
 122 72 148 108 193 262 c 2
 446 1139 l 2
 466 1209 481 1275 481 1298 c 0
 481 1335 441 1356 367 1356 c 2
 344 1356 l 2
 336 1354 330 1354 326 1354 c 0
 318 1354 311 1358 311 1364 c 0
 311 1366 311 1368 317 1384 c 2
 324 1401 l 2
 330 1417 337 1421 360 1421 c 0
 397 1421 397 1421 641 1415 c 2
 797 1413 l 2
 836 1413 1083 1417 1114 1419 c 0
 1159 1421 1198 1421 1223 1421 c 0
 1239 1421 1249 1415 1249 1405 c 0
 1249 1403 1249 1402 1243 1382 c 2
 1176 1139 l 1
 1120 1153 l 1
 1112 1327 1096 1346 936 1346 c 2
 811 1346 l 2
 727 1346 715 1343 692 1329 c 0
 665 1313 660 1300 635 1210 c 2
 516 795 l 1
 719 795 l 2
 787 795 825 801 854 817 c 0
 887 835 889 840 928 918 c 0
 930 922 934 924 938 924 c 0
 940 924 940 924 952 920 c 2
 967 913 l 2
 981 907 985 905 985 897 c 0
 985 893 985 893 979 870 c 2
 893 608 l 2
 881 573 880 573 872 573 c 0
 868 573 866 574 854 578 c 2
 840 582 l 2
 830 584 825 588 825 594 c 2
 827 608 l 2
 833 626 840 660 840 680 c 0
 840 723 826 727 713 727 c 2
 496 727 l 1
938 1559 m 2
 741 1700 l 2
 606 1796 580 1825 580 1868 c 0
 580 1903 621 1937 664 1937 c 0
 719 1937 743 1918 829 1812 c 2
 997 1602 l 2
 1007 1592 1012 1581 1012 1573 c 0
 1012 1565 1009 1562 1001 1556 c 2
 985 1546 l 2
 983 1544 977 1542 975 1542 c 0
 967 1542 952 1551 938 1559 c 2
EndSplineSet
EndChar

StartChar: Ecircumflex
Encoding: 202 202 160
Width: 1208
GlyphClass: 2
Flags: HMW
HStem: -4 70 727 68<496 719 516 713> 1354 68<322 379>
VStem: 825 68<591 608> 1120 55<1139 1153>
LayerCount: 2
Fore
SplineSet
496 727 m 1
 369 289 l 2
 349 219 338 177 338 154 c 0
 338 119 360 92 399 78 c 0
 428 68 434 68 590 66 c 2
 659 66 l 2
 903 66 936 84 1075 289 c 1
 1133 274 l 1
 999 -10 l 1
 942 -8 907 -6 772 -6 c 2
 565 -4 l 2
 473 -2 407 0 391 0 c 0
 360 0 311 -2 250 -4 c 2
 127 -8 l 1
 12 -10 l 2
 2 -12 -8 -12 -12 -12 c 0
 -32 -12 -43 -8 -43 2 c 2
 -43 14 l 1
 -39 41 l 2
 -37 57 -37 59 -31 61 c 2
 -23 66 l 1
 63 68 l 2
 122 72 148 108 193 262 c 2
 446 1139 l 2
 466 1209 481 1275 481 1298 c 0
 481 1335 441 1356 367 1356 c 2
 344 1356 l 2
 336 1354 330 1354 326 1354 c 0
 318 1354 311 1358 311 1364 c 0
 311 1366 311 1368 317 1384 c 2
 324 1401 l 2
 330 1417 337 1421 360 1421 c 0
 397 1421 397 1421 641 1415 c 2
 797 1413 l 2
 836 1413 1083 1417 1114 1419 c 0
 1159 1421 1198 1421 1223 1421 c 0
 1239 1421 1249 1415 1249 1405 c 0
 1249 1403 1249 1402 1243 1382 c 2
 1176 1139 l 1
 1120 1153 l 1
 1112 1327 1096 1346 936 1346 c 2
 811 1346 l 2
 727 1346 715 1343 692 1329 c 0
 665 1313 660 1300 635 1210 c 2
 516 795 l 1
 719 795 l 2
 787 795 825 801 854 817 c 0
 887 835 889 840 928 918 c 0
 930 922 934 924 938 924 c 0
 940 924 940 924 952 920 c 2
 967 913 l 2
 981 907 985 905 985 897 c 0
 985 893 985 893 979 870 c 2
 893 608 l 2
 881 573 880 573 872 573 c 0
 868 573 866 574 854 578 c 2
 840 582 l 2
 830 584 825 588 825 594 c 2
 827 608 l 2
 833 626 840 660 840 680 c 0
 840 723 826 727 713 727 c 2
 496 727 l 1
997 1753 m 1
 733 1552 l 2
 723 1546 715 1542 709 1542 c 0
 699 1542 674 1563 674 1573 c 0
 674 1577 676 1581 688 1593 c 2
 956 1892 l 2
 991 1929 1003 1937 1028 1937 c 0
 1055 1937 1074 1923 1090 1886 c 2
 1227 1591 l 2
 1229 1585 1231 1579 1231 1577 c 0
 1231 1567 1202 1546 1186 1546 c 0
 1180 1546 1171 1553 1165 1561 c 2
 997 1753 l 1
EndSplineSet
EndChar

StartChar: Idieresis
Encoding: 207 207 161
Width: 679
GlyphClass: 2
Flags: HMW
HStem: -10 66 1354 68 1542 217<434 475 830 870>
VStem: 346 217<1634 1676> 743 215<1634 1676>
LayerCount: 2
Fore
SplineSet
207 270 m 2
 457 1141 l 2
 475 1202 483 1245 483 1276 c 0
 483 1323 446 1348 362 1354 c 0
 327 1356 322 1358 322 1370 c 0
 322 1374 322 1374 328 1386 c 2
 332 1399 l 2
 340 1415 349 1421 369 1421 c 0
 373 1421 392 1421 406 1419 c 0
 506 1413 557 1411 616 1411 c 0
 677 1411 790 1417 813 1421 c 0
 825 1423 827 1423 831 1423 c 0
 845 1423 852 1417 852 1405 c 0
 852 1401 852 1397 850 1393 c 2
 848 1376 l 2
 842 1356 838 1354 809 1352 c 0
 709 1342 686 1311 633 1141 c 2
 383 270 l 2
 365 209 356 164 356 133 c 0
 356 86 391 63 483 55 c 0
 491 53 496 49 496 41 c 0
 496 37 494 31 492 25 c 2
 485 12 l 2
 479 -4 469 -10 449 -10 c 0
 435 -10 430 -10 369 -4 c 0
 334 -2 292 0 233 0 c 0
 151 0 99 -2 27 -8 c 0
 17 -10 0 -10 -4 -10 c 0
 -20 -10 -27 -6 -27 6 c 0
 -27 10 -27 14 -25 18 c 2
 -23 35 l 2
 -17 55 -13 59 16 59 c 0
 125 63 154 94 207 270 c 2
467 1759 m 0
 522 1759 563 1720 563 1667 c 0
 563 1601 505 1542 444 1542 c 0
 389 1542 346 1588 346 1647 c 0
 346 1706 401 1759 467 1759 c 0
862 1759 m 0
 917 1759 958 1720 958 1667 c 0
 958 1601 901 1542 840 1542 c 0
 787 1542 743 1590 743 1647 c 0
 743 1706 799 1759 862 1759 c 0
EndSplineSet
EndChar

StartChar: Iacute
Encoding: 205 205 162
Width: 679
GlyphClass: 2
Flags: HMW
HStem: -10 66 1354 68
LayerCount: 2
Fore
SplineSet
207 270 m 2
 457 1141 l 2
 475 1200 483 1247 483 1276 c 0
 483 1323 446 1348 362 1354 c 0
 327 1356 322 1358 322 1370 c 0
 322 1374 322 1374 328 1386 c 2
 332 1399 l 2
 340 1415 349 1421 369 1421 c 0
 373 1421 392 1421 406 1419 c 0
 512 1413 557 1411 614 1411 c 0
 677 1411 790 1417 813 1421 c 0
 825 1423 827 1423 831 1423 c 0
 845 1423 852 1417 852 1405 c 0
 852 1401 852 1397 850 1393 c 2
 848 1376 l 2
 842 1356 838 1354 809 1352 c 0
 709 1340 684 1311 633 1141 c 2
 383 270 l 2
 365 207 356 164 356 135 c 0
 356 86 393 63 481 55 c 0
 491 53 496 49 496 41 c 0
 496 37 494 31 492 25 c 2
 485 12 l 2
 479 -4 469 -10 449 -10 c 0
 435 -10 430 -10 369 -4 c 0
 334 -2 292 0 233 0 c 0
 151 0 95 -2 27 -8 c 0
 17 -10 2 -10 -4 -10 c 0
 -20 -10 -27 -6 -27 6 c 0
 -27 10 -27 14 -25 18 c 2
 -23 35 l 2
 -17 55 -13 59 16 59 c 0
 125 63 154 94 207 270 c 2
813 1700 m 2
 614 1559 l 2
 600 1549 586 1542 580 1542 c 0
 576 1542 569 1544 567 1546 c 2
 553 1554 l 2
 543 1560 541 1565 541 1571 c 0
 541 1579 547 1592 555 1602 c 2
 725 1812 l 2
 811 1921 834 1937 889 1937 c 0
 932 1937 973 1903 973 1870 c 0
 973 1825 944 1794 813 1700 c 2
EndSplineSet
EndChar

StartChar: Igrave
Encoding: 204 204 163
Width: 679
GlyphClass: 2
Flags: HMW
HStem: -10 66 1354 68
LayerCount: 2
Fore
SplineSet
207 270 m 2
 457 1141 l 2
 473 1198 483 1247 483 1276 c 0
 483 1323 446 1348 362 1354 c 0
 327 1356 322 1358 322 1370 c 0
 322 1374 322 1374 328 1386 c 2
 332 1399 l 2
 340 1415 349 1421 369 1421 c 0
 373 1421 392 1421 406 1419 c 0
 512 1413 557 1411 614 1411 c 0
 682 1411 790 1417 813 1421 c 0
 825 1423 827 1423 831 1423 c 0
 845 1423 852 1417 852 1405 c 0
 852 1401 852 1397 850 1393 c 2
 848 1376 l 2
 842 1356 838 1354 809 1352 c 0
 709 1340 684 1311 633 1141 c 2
 383 270 l 2
 365 207 356 164 356 135 c 0
 356 86 391 63 483 55 c 0
 491 53 496 49 496 41 c 0
 496 37 494 31 492 25 c 2
 485 12 l 2
 479 -4 469 -10 449 -10 c 0
 435 -10 430 -10 369 -4 c 0
 334 -2 292 0 233 0 c 0
 151 0 95 -2 27 -8 c 0
 17 -10 2 -10 -4 -10 c 0
 -20 -10 -27 -6 -27 6 c 0
 -27 10 -27 14 -25 18 c 2
 -23 35 l 2
 -17 55 -13 59 16 59 c 0
 127 63 154 94 207 270 c 2
674 1559 m 2
 475 1700 l 2
 344 1794 315 1825 315 1868 c 0
 315 1903 356 1937 399 1937 c 0
 454 1937 479 1918 565 1812 c 2
 733 1602 l 2
 743 1590 748 1581 748 1573 c 0
 748 1567 745 1562 737 1556 c 2
 721 1546 l 2
 719 1544 713 1542 709 1542 c 0
 703 1542 686 1551 674 1559 c 2
EndSplineSet
EndChar

StartChar: Icircumflex
Encoding: 206 206 164
Width: 679
GlyphClass: 2
Flags: HMW
HStem: -10 66 1354 68
LayerCount: 2
Fore
SplineSet
207 270 m 2
 457 1141 l 2
 475 1200 483 1247 483 1276 c 0
 483 1323 446 1348 362 1354 c 0
 327 1356 322 1358 322 1370 c 0
 322 1374 322 1374 328 1386 c 2
 332 1399 l 2
 340 1415 349 1421 369 1421 c 0
 373 1421 392 1421 406 1419 c 0
 512 1413 557 1411 614 1411 c 0
 677 1411 790 1417 813 1421 c 0
 825 1423 827 1423 831 1423 c 0
 845 1423 852 1417 852 1405 c 0
 852 1401 852 1397 850 1393 c 2
 848 1376 l 2
 842 1356 838 1354 809 1352 c 0
 709 1340 684 1311 633 1141 c 2
 383 270 l 2
 365 207 356 164 356 135 c 0
 356 86 393 63 481 55 c 0
 491 53 496 49 496 41 c 0
 496 37 494 31 492 25 c 2
 485 12 l 2
 479 -4 469 -10 449 -10 c 0
 435 -10 430 -10 369 -4 c 0
 334 -2 292 0 233 0 c 0
 151 0 95 -2 27 -8 c 0
 17 -10 2 -10 -4 -10 c 0
 -20 -10 -27 -6 -27 6 c 0
 -27 10 -27 14 -25 18 c 2
 -23 35 l 2
 -17 55 -13 59 16 59 c 0
 125 63 154 94 207 270 c 2
688 1753 m 1
 424 1552 l 2
 416 1546 407 1542 401 1542 c 0
 389 1542 365 1563 365 1573 c 0
 365 1577 367 1579 379 1593 c 2
 649 1892 l 2
 682 1929 696 1937 721 1937 c 0
 748 1937 764 1923 782 1886 c 2
 918 1591 l 2
 922 1585 922 1581 922 1575 c 0
 922 1567 891 1546 879 1546 c 0
 873 1546 864 1553 856 1561 c 2
 688 1753 l 1
EndSplineSet
EndChar

StartChar: Ntilde
Encoding: 209 209 165
Width: 1511
GlyphClass: 2
Flags: HW
HStem: -14 43G<1151 1161 1161 1176 1291 1302> -10 63 1356 66 1542 141<1223 1228> 1704 141<948 1015>
LayerCount: 2
Fore
SplineSet
1219 195 m 1x78
 1307 33 l 2
 1315 21 1317 12 1317 6 c 0
 1317 -8 1308 -14 1294 -14 c 0xb8
 1288 -14 1280 -14 1272 -12 c 0
 1249 -10 1233 -10 1221 -10 c 0x78
 1209 -10 1194 -10 1176 -14 c 2
 1161 -14 l 2xb8
 1141 -14 1122 6 1102 47 c 2
 623 1053 l 2
 611 1080 592 1106 586 1106 c 0
 578 1106 573 1097 567 1079 c 2
 557 1036 l 1
 315 199 l 2
 295 123 295 122 295 106 c 0
 295 71 326 57 406 53 c 0
 453 51 455 51 455 37 c 0
 455 33 455 29 453 27 c 2
 449 8 l 2
 445 -4 438 -10 424 -10 c 0
 404 -10 403 -10 305 -4 c 0
 262 -2 231 0 219 0 c 0
 192 0 90 -6 35 -10 c 2
 31 -10 l 2
 19 -10 14 -6 14 2 c 2
 16 16 l 1
 16 33 l 2
 20 56 23 57 74 57 c 0
 166 61 184 84 252 293 c 2
 518 1194 l 1
 473 1298 404 1348 289 1350 c 0
 260 1350 250 1356 252 1372 c 2
 254 1380 l 1
 256 1397 l 2
 258 1415 266 1421 289 1421 c 0
 303 1421 366 1417 397 1415 c 0
 432 1413 455 1411 467 1411 c 0
 477 1411 495 1413 518 1415 c 0
 561 1419 576 1421 594 1421 c 0
 623 1421 641 1401 676 1325 c 2
 1124 373 l 2
 1140 338 1159 311 1165 311 c 0
 1171 311 1172 311 1186 356 c 2
 1417 1169 l 2
 1446 1271 1446 1271 1446 1294 c 0
 1446 1333 1411 1356 1350 1356 c 2
 1327 1356 l 2
 1315 1354 1304 1354 1300 1354 c 0
 1286 1354 1278 1360 1278 1370 c 0
 1278 1372 1278 1376 1280 1382 c 2
 1284 1401 l 2
 1288 1415 1299 1421 1317 1421 c 0
 1337 1421 1395 1419 1438 1415 c 0
 1473 1413 1497 1411 1507 1411 c 0
 1519 1411 1527 1411 1642 1419 c 0
 1660 1421 1676 1421 1688 1421 c 0
 1698 1421 1706 1417 1706 1411 c 2
 1704 1395 l 1
 1704 1376 l 2
 1702 1362 1697 1358 1681 1356 c 0
 1560 1354 1550 1341 1495 1151 c 2
 1219 195 l 1x78
997 1845 m 0
 1032 1845 1033 1845 1176 1714 c 0
 1201 1694 1217 1683 1229 1683 c 0
 1260 1683 1323 1730 1382 1796 c 0
 1417 1833 1424 1839 1434 1839 c 0
 1446 1839 1468 1820 1468 1810 c 0
 1468 1796 1419 1714 1384 1671 c 0
 1314 1583 1255 1542 1200 1542 c 0
 1155 1542 1118 1567 1036 1653 c 0
 1003 1688 981 1704 965 1704 c 0
 932 1704 860 1643 797 1561 c 0
 787 1547 780 1542 772 1542 c 0
 756 1542 737 1557 737 1569 c 0
 737 1587 809 1698 852 1747 c 0
 911 1813 958 1845 997 1845 c 0
EndSplineSet
EndChar

StartChar: Odieresis
Encoding: 214 214 166
Width: 1624
GlyphClass: 2
Flags: HW
HStem: -41 80<663 871 663 1028> 1370 80<897 1108> 1542 217<908 948 1303 1343>
VStem: 147 207<425 684 417 850> 819 217<1634 1676> 1214 217<1634 1676> 1417 209<714 986 563 989>
LayerCount: 2
Fore
SplineSet
973 1450 m 0xfa
 1360 1450 1626 1182 1626 791 c 0
 1626 336 1254 -41 803 -41 c 0
 410 -41 147 226 147 625 c 0
 147 1076 522 1450 973 1450 c 0xfa
975 1370 m 0
 819 1370 671 1299 567 1174 c 0
 438 1020 354 785 354 584 c 0
 354 250 527 39 799 39 c 0
 944 39 1077 102 1186 219 c 0
 1333 381 1417 602 1417 825 c 0
 1417 1153 1241 1370 975 1370 c 0
940 1759 m 0
 995 1759 1036 1720 1036 1667 c 0
 1036 1601 979 1542 918 1542 c 0
 865 1542 819 1590 819 1647 c 0
 819 1706 877 1759 940 1759 c 0
1335 1759 m 0
 1390 1759 1432 1720 1432 1667 c 0
 1432 1601 1374 1542 1313 1542 c 0
 1258 1542 1214 1590 1214 1647 c 0xfc
 1214 1706 1269 1759 1335 1759 c 0
EndSplineSet
EndChar

StartChar: Oacute
Encoding: 211 211 167
Width: 1624
GlyphClass: 2
Flags: HMW
HStem: -41 80<663 871 663 1028> 1370 80<897 1108>
VStem: 147 207<425 684 417 850> 1417 209<714 986 563 989>
LayerCount: 2
Fore
SplineSet
973 1450 m 0
 1360 1450 1626 1182 1626 791 c 0
 1626 336 1254 -41 803 -41 c 0
 410 -41 147 226 147 625 c 0
 147 1076 522 1450 973 1450 c 0
975 1370 m 0
 819 1370 671 1299 567 1174 c 0
 438 1020 354 785 354 584 c 0
 354 250 527 39 799 39 c 0
 944 39 1077 102 1186 219 c 0
 1333 381 1417 602 1417 825 c 0
 1417 1153 1241 1370 975 1370 c 0
1284 1700 m 2
 1087 1559 l 2
 1073 1551 1059 1542 1051 1542 c 0
 1049 1542 1042 1544 1040 1546 c 2
 1026 1554 l 2
 1014 1562 1012 1565 1012 1571 c 0
 1012 1579 1016 1588 1028 1602 c 2
 1196 1812 l 2
 1284 1921 1307 1937 1362 1937 c 0
 1405 1937 1446 1903 1446 1868 c 0
 1446 1825 1417 1794 1284 1700 c 2
EndSplineSet
EndChar

StartChar: Ograve
Encoding: 210 210 168
Width: 1624
GlyphClass: 2
Flags: HMW
HStem: -41 80<663 871 663 1028> 1370 80<897 1108>
VStem: 147 207<425 684 417 850> 1417 209<714 986 563 989>
LayerCount: 2
Fore
SplineSet
973 1450 m 0
 1360 1450 1626 1182 1626 791 c 0
 1626 336 1254 -41 803 -41 c 0
 410 -41 147 226 147 625 c 0
 147 1076 522 1450 973 1450 c 0
975 1370 m 0
 819 1370 671 1299 567 1174 c 0
 438 1020 354 785 354 584 c 0
 354 250 527 39 799 39 c 0
 944 39 1077 102 1186 219 c 0
 1333 381 1417 602 1417 825 c 0
 1417 1153 1241 1370 975 1370 c 0
1145 1559 m 2
 948 1700 l 2
 819 1792 788 1825 788 1868 c 0
 788 1903 829 1937 872 1937 c 0
 925 1937 948 1921 1036 1812 c 2
 1206 1602 l 2
 1216 1588 1221 1581 1221 1573 c 0
 1221 1567 1218 1562 1208 1556 c 2
 1194 1546 l 2
 1190 1544 1186 1542 1182 1542 c 0
 1176 1542 1159 1551 1145 1559 c 2
EndSplineSet
EndChar

StartChar: Ocircumflex
Encoding: 212 212 169
Width: 1624
GlyphClass: 2
Flags: HMW
HStem: -41 80<663 871 663 1028> 1370 80<897 1108>
VStem: 147 207<425 684 417 850> 1417 209<714 986 563 989>
LayerCount: 2
Fore
SplineSet
973 1450 m 0
 1360 1450 1626 1182 1626 791 c 0
 1626 336 1254 -41 803 -41 c 0
 410 -41 147 226 147 625 c 0
 147 1076 522 1450 973 1450 c 0
975 1370 m 0
 819 1370 671 1299 567 1174 c 0
 438 1020 354 785 354 584 c 0
 354 250 527 39 799 39 c 0
 944 39 1077 102 1186 219 c 0
 1333 381 1417 602 1417 825 c 0
 1417 1153 1241 1370 975 1370 c 0
1204 1753 m 1
 940 1552 l 2
 932 1546 923 1542 915 1542 c 0
 905 1542 881 1563 881 1573 c 0
 881 1577 883 1581 895 1593 c 2
 1165 1892 l 2
 1198 1929 1210 1937 1237 1937 c 0
 1264 1937 1280 1923 1296 1886 c 2
 1434 1591 l 2
 1436 1585 1438 1581 1438 1577 c 0
 1438 1567 1409 1546 1393 1546 c 0
 1389 1546 1380 1553 1372 1561 c 2
 1204 1753 l 1
EndSplineSet
EndChar

StartChar: Otilde
Encoding: 213 213 170
Width: 1624
GlyphClass: 2
Flags: HMW
HStem: -41 80<663 871 663 1028> 1370 80<897 1108> 1542 141<1278 1285> 1704 141<1004 1072>
VStem: 147 207<425 684 417 850> 1417 209<714 986 563 989>
LayerCount: 2
Fore
SplineSet
973 1450 m 0
 1360 1450 1626 1182 1626 791 c 0
 1626 336 1254 -41 803 -41 c 0
 410 -41 147 226 147 625 c 0
 147 1076 522 1450 973 1450 c 0
975 1370 m 0
 819 1370 671 1299 567 1174 c 0
 438 1020 354 785 354 584 c 0
 354 250 527 39 799 39 c 0
 944 39 1077 102 1186 219 c 0
 1333 381 1417 602 1417 825 c 0
 1417 1153 1241 1370 975 1370 c 0
1055 1845 m 0
 1090 1845 1090 1845 1233 1714 c 0
 1258 1694 1272 1683 1284 1683 c 0
 1315 1683 1381 1730 1438 1796 c 0
 1473 1833 1479 1839 1489 1839 c 0
 1501 1839 1524 1820 1524 1810 c 0
 1524 1796 1475 1716 1440 1671 c 0
 1372 1583 1312 1542 1257 1542 c 0
 1210 1542 1176 1565 1094 1653 c 0
 1061 1688 1038 1704 1020 1704 c 0
 987 1704 917 1645 854 1561 c 0
 844 1547 837 1542 829 1542 c 0
 813 1542 795 1557 795 1569 c 0
 795 1587 866 1698 909 1747 c 0
 966 1813 1014 1845 1055 1845 c 0
EndSplineSet
EndChar

StartChar: Scaron
Encoding: 352 352 171
Width: 944
GlyphClass: 2
Flags: HW
HStem: -41 68<321 460 321 523> 1384 66<620 733 564 739>
VStem: 41 125<46 174> 129 61<285 291> 262 162<1057 1156> 674 172<238 338> 881 119<1222 1333>
LayerCount: 2
Fore
SplineSet
922 1112 m 1xee
 862 1128 l 1
 878 1189 881 1208 881 1235 c 0
 881 1315 790 1384 688 1384 c 0
 551 1384 424 1253 424 1112 c 0
 424 1001 482 907 670 698 c 0
 811 544 846 477 846 356 c 0
 846 118 659 -41 387 -41 c 0
 237 -41 41 23 41 70 c 0xee
 41 80 41 82 78 160 c 2
 129 291 l 2
 135 303 139 309 143 309 c 2
 143 309 148 309 152 307 c 2
 174 299 l 2
 188 295 190 293 190 287 c 0xde
 190 283 188 270 182 250 c 0
 172 215 166 184 166 164 c 0
 166 90 264 27 377 27 c 0
 543 27 674 143 674 293 c 0
 674 383 651 424 514 586 c 0
 309 826 262 909 262 1044 c 0
 262 1267 449 1450 680 1450 c 0
 786 1450 893 1415 981 1354 c 0
 993 1346 999 1337 999 1329 c 0
 999 1325 997 1317 993 1307 c 0
 983 1291 954 1216 934 1153 c 2
 922 1112 l 1xee
739 1726 m 1
 1004 1929 l 2
 1014 1937 1022 1942 1028 1942 c 0
 1036 1942 1063 1919 1063 1911 c 0
 1063 1905 1059 1898 1049 1888 c 2
 780 1587 l 2
 749 1552 734 1542 707 1542 c 0
 682 1542 663 1558 647 1593 c 2
 510 1892 l 2
 508 1898 506 1903 506 1907 c 0
 506 1917 537 1937 551 1937 c 0
 557 1937 563 1933 571 1923 c 2
 739 1726 l 1
EndSplineSet
EndChar

StartChar: Udieresis
Encoding: 220 220 172
Width: 1548
GlyphClass: 2
Flags: HMW
HStem: -41 92<650 795> 1352 70<334 342 842 866> 1542 217<870 911 1266 1307>
VStem: 227 188<226 296> 782 217<1634 1676> 1178 217<1634 1676>
LayerCount: 2
Fore
SplineSet
252 432 m 2
 459 1198 l 2
 469 1237 475 1268 475 1286 c 0
 475 1335 440 1354 342 1352 c 0
 311 1352 303 1354 305 1368 c 2
 307 1376 l 1
 309 1397 l 2
 313 1420 317 1421 350 1421 c 0
 375 1421 459 1417 510 1415 c 0
 559 1413 593 1411 618 1411 c 0
 638 1411 672 1413 715 1415 c 0
 781 1419 827 1421 856 1421 c 0
 876 1421 883 1415 881 1399 c 2
 879 1370 l 2
 879 1354 874 1352 858 1352 c 0
 704 1352 684 1335 635 1159 c 2
 444 485 l 2
 430 432 416 342 416 299 c 0
 416 154 553 51 748 51 c 0
 992 51 1153 207 1243 537 c 2
 1399 1090 l 2
 1422 1166 1438 1251 1438 1284 c 0
 1438 1329 1420 1344 1354 1348 c 0
 1315 1352 1315 1352 1288 1354 c 0
 1278 1354 1274 1360 1274 1370 c 0
 1274 1372 1274 1376 1276 1378 c 2
 1282 1399 l 2
 1286 1417 1293 1421 1313 1421 c 0
 1338 1421 1395 1419 1440 1415 c 0
 1475 1413 1499 1411 1509 1411 c 0
 1521 1411 1546 1413 1579 1415 c 0
 1620 1419 1667 1421 1681 1421 c 0
 1699 1421 1708 1415 1708 1405 c 2
 1708 1399 l 1
 1706 1376 l 2
 1706 1366 1704 1362 1696 1358 c 2
 1686 1356 l 1
 1632 1348 l 2
 1566 1332 1548 1302 1513 1165 c 2
 1350 584 l 2
 1291 365 1229 233 1139 131 c 0
 1041 20 886 -41 702 -41 c 0
 421 -41 227 88 227 276 c 0
 227 315 238 375 252 432 c 2
903 1759 m 0
 958 1759 999 1720 999 1667 c 0
 999 1601 942 1542 881 1542 c 0
 826 1542 782 1590 782 1647 c 0
 782 1706 837 1759 903 1759 c 0
1298 1759 m 0
 1353 1759 1395 1720 1395 1667 c 0
 1395 1601 1337 1542 1276 1542 c 0
 1221 1542 1178 1590 1178 1647 c 0
 1178 1706 1232 1759 1298 1759 c 0
EndSplineSet
EndChar

StartChar: Uacute
Encoding: 218 218 173
Width: 1548
GlyphClass: 2
Flags: HMW
HStem: -41 92<650 795> 1352 70<334 342 842 866>
VStem: 227 188<226 296>
LayerCount: 2
Fore
SplineSet
252 432 m 2
 459 1198 l 2
 469 1237 475 1268 475 1286 c 0
 475 1335 440 1354 342 1352 c 0
 311 1352 303 1354 305 1368 c 2
 307 1376 l 1
 309 1397 l 2
 313 1420 317 1421 350 1421 c 0
 375 1421 459 1417 510 1415 c 0
 559 1413 593 1411 618 1411 c 0
 638 1411 672 1413 715 1415 c 0
 781 1419 827 1421 856 1421 c 0
 876 1421 883 1415 881 1399 c 2
 879 1370 l 2
 879 1354 874 1352 858 1352 c 0
 704 1352 684 1335 635 1159 c 2
 444 485 l 2
 430 432 416 342 416 299 c 0
 416 154 553 51 748 51 c 0
 992 51 1153 207 1243 537 c 2
 1399 1090 l 2
 1422 1166 1438 1251 1438 1284 c 0
 1438 1329 1420 1344 1354 1348 c 0
 1315 1352 1315 1352 1288 1354 c 0
 1278 1354 1274 1360 1274 1370 c 0
 1274 1372 1274 1376 1276 1378 c 2
 1282 1399 l 2
 1286 1417 1293 1421 1313 1421 c 0
 1338 1421 1395 1419 1440 1415 c 0
 1475 1413 1499 1411 1509 1411 c 0
 1521 1411 1546 1413 1579 1415 c 0
 1620 1419 1667 1421 1681 1421 c 0
 1699 1421 1708 1415 1708 1405 c 2
 1708 1399 l 1
 1706 1376 l 2
 1706 1366 1704 1362 1696 1358 c 2
 1686 1356 l 1
 1632 1348 l 2
 1566 1332 1548 1302 1513 1165 c 2
 1350 584 l 2
 1291 365 1229 233 1139 131 c 0
 1041 20 886 -41 702 -41 c 0
 421 -41 227 88 227 276 c 0
 227 315 238 375 252 432 c 2
1247 1700 m 2
 1051 1559 l 2
 1037 1549 1022 1542 1014 1542 c 0
 1010 1542 1006 1544 1004 1546 c 2
 989 1554 l 2
 977 1562 975 1565 975 1571 c 0
 975 1579 979 1590 989 1602 c 2
 1159 1812 l 2
 1245 1918 1270 1937 1325 1937 c 0
 1368 1937 1409 1903 1409 1868 c 0
 1409 1825 1382 1796 1247 1700 c 2
EndSplineSet
EndChar

StartChar: Ugrave
Encoding: 217 217 174
Width: 1548
GlyphClass: 2
Flags: HMW
HStem: -41 92<650 795> 1352 70<334 342 842 866>
VStem: 227 188<226 296>
LayerCount: 2
Fore
SplineSet
252 432 m 2
 459 1198 l 2
 469 1237 475 1268 475 1286 c 0
 475 1335 440 1354 342 1352 c 0
 311 1352 303 1354 305 1368 c 2
 307 1376 l 1
 309 1397 l 2
 313 1420 317 1421 350 1421 c 0
 375 1421 459 1417 510 1415 c 0
 559 1413 593 1411 618 1411 c 0
 638 1411 672 1413 715 1415 c 0
 781 1419 827 1421 856 1421 c 0
 876 1421 883 1415 881 1399 c 2
 879 1370 l 2
 879 1354 874 1352 858 1352 c 0
 704 1352 684 1335 635 1159 c 2
 444 485 l 2
 430 432 416 342 416 299 c 0
 416 154 553 51 748 51 c 0
 992 51 1153 207 1243 537 c 2
 1399 1090 l 2
 1422 1166 1438 1251 1438 1284 c 0
 1438 1329 1420 1344 1354 1348 c 0
 1315 1352 1315 1352 1288 1354 c 0
 1278 1354 1274 1360 1274 1370 c 0
 1274 1372 1274 1376 1276 1378 c 2
 1282 1399 l 2
 1286 1417 1293 1421 1313 1421 c 0
 1338 1421 1395 1419 1440 1415 c 0
 1475 1413 1499 1411 1509 1411 c 0
 1521 1411 1546 1413 1579 1415 c 0
 1620 1419 1667 1421 1681 1421 c 0
 1699 1421 1708 1415 1708 1405 c 2
 1708 1399 l 1
 1706 1376 l 2
 1706 1366 1704 1362 1696 1358 c 2
 1686 1356 l 1
 1632 1348 l 2
 1566 1332 1548 1302 1513 1165 c 2
 1350 584 l 2
 1291 365 1229 233 1139 131 c 0
 1041 20 886 -41 702 -41 c 0
 421 -41 227 88 227 276 c 0
 227 315 238 375 252 432 c 2
1108 1559 m 2
 911 1700 l 2
 774 1798 750 1823 750 1868 c 0
 750 1903 791 1937 834 1937 c 0
 889 1937 913 1918 999 1812 c 2
 1169 1602 l 2
 1179 1588 1184 1581 1184 1573 c 0
 1184 1565 1181 1564 1171 1556 c 2
 1155 1546 l 2
 1153 1544 1149 1542 1145 1542 c 0
 1137 1542 1122 1551 1108 1559 c 2
EndSplineSet
EndChar

StartChar: Ucircumflex
Encoding: 219 219 175
Width: 1548
GlyphClass: 2
Flags: HMW
HStem: -41 92<650 795> 1352 70<334 342 842 866>
VStem: 227 188<226 296>
LayerCount: 2
Fore
SplineSet
252 432 m 2
 459 1198 l 2
 469 1237 475 1268 475 1286 c 0
 475 1335 440 1354 342 1352 c 0
 311 1352 303 1354 305 1368 c 2
 307 1376 l 1
 309 1397 l 2
 313 1420 317 1421 350 1421 c 0
 375 1421 459 1417 510 1415 c 0
 559 1413 593 1411 618 1411 c 0
 638 1411 672 1413 715 1415 c 0
 781 1419 827 1421 856 1421 c 0
 876 1421 883 1415 881 1399 c 2
 879 1370 l 2
 879 1354 874 1352 858 1352 c 0
 704 1352 684 1335 635 1159 c 2
 444 485 l 2
 430 432 416 342 416 299 c 0
 416 154 553 51 748 51 c 0
 992 51 1153 207 1243 537 c 2
 1399 1090 l 2
 1422 1166 1438 1251 1438 1284 c 0
 1438 1329 1420 1344 1354 1348 c 0
 1315 1352 1315 1352 1288 1354 c 0
 1278 1354 1274 1360 1274 1370 c 0
 1274 1372 1274 1376 1276 1378 c 2
 1282 1399 l 2
 1286 1417 1293 1421 1313 1421 c 0
 1338 1421 1395 1419 1440 1415 c 0
 1475 1413 1499 1411 1509 1411 c 0
 1521 1411 1546 1413 1579 1415 c 0
 1620 1419 1667 1421 1681 1421 c 0
 1699 1421 1708 1415 1708 1405 c 2
 1708 1399 l 1
 1706 1376 l 2
 1706 1366 1704 1362 1696 1358 c 2
 1686 1356 l 1
 1632 1348 l 2
 1566 1332 1548 1302 1513 1165 c 2
 1350 584 l 2
 1291 365 1229 233 1139 131 c 0
 1041 20 886 -41 702 -41 c 0
 421 -41 227 88 227 276 c 0
 227 315 238 375 252 432 c 2
1167 1753 m 1
 903 1552 l 2
 895 1546 887 1542 879 1542 c 0
 869 1542 844 1563 844 1573 c 0
 844 1577 846 1581 858 1593 c 2
 1126 1892 l 2
 1161 1929 1173 1937 1200 1937 c 0
 1225 1937 1244 1923 1260 1886 c 2
 1397 1591 l 2
 1399 1585 1401 1581 1401 1577 c 0
 1401 1567 1372 1546 1356 1546 c 0
 1352 1546 1343 1553 1335 1561 c 2
 1167 1753 l 1
EndSplineSet
EndChar

StartChar: Yacute
Encoding: 221 221 176
Width: 1359
GlyphClass: 2
Flags: HMW
HStem: -10 68 1354 68
LayerCount: 2
Fore
SplineSet
487 270 m 2
 555 477 l 2
 582 559 594 614 594 651 c 0
 594 698 574 772 543 842 c 2
 393 1180 l 2
 323 1340 312 1350 203 1352 c 0
 180 1352 172 1356 172 1368 c 0
 172 1374 172 1376 174 1380 c 2
 178 1403 l 2
 182 1417 189 1421 207 1421 c 0
 227 1421 227 1421 377 1415 c 0
 436 1413 479 1411 483 1411 c 0
 497 1411 610 1417 641 1419 c 0
 659 1421 676 1421 686 1421 c 0
 702 1421 713 1415 711 1403 c 2
 711 1397 l 1
 709 1374 l 2
 707 1362 702 1358 694 1356 c 0
 686 1354 670 1352 639 1350 c 0
 559 1346 528 1334 528 1305 c 0
 528 1295 528 1295 555 1221 c 2
 725 821 l 2
 750 751 754 743 762 743 c 0
 768 743 768 743 838 815 c 2
 1167 1147 l 2
 1226 1206 1274 1278 1274 1309 c 0
 1274 1340 1249 1348 1130 1354 c 0
 1116 1354 1108 1360 1108 1368 c 0
 1108 1370 1108 1374 1110 1382 c 2
 1114 1401 l 2
 1116 1415 1124 1421 1147 1421 c 0
 1165 1421 1206 1419 1274 1415 c 0
 1317 1413 1350 1411 1366 1411 c 0
 1382 1411 1493 1415 1604 1421 c 0
 1618 1421 1620 1419 1620 1407 c 2
 1620 1382 l 2
 1620 1359 1609 1356 1556 1354 c 0
 1478 1348 1466 1339 1372 1245 c 2
 846 717 l 2
 805 674 782 647 776 639 c 0
 770 631 766 620 762 606 c 2
 743 539 l 1
 666 270 l 2
 646 204 637 164 637 133 c 0
 637 86 672 63 760 57 c 0
 795 55 801 53 801 41 c 0
 801 37 799 31 797 25 c 2
 791 12 l 2
 785 -4 774 -10 756 -10 c 0
 752 -10 733 -10 719 -8 c 0
 613 -2 567 0 487 0 c 0
 413 0 397 0 301 -8 c 2
 254 -10 l 2
 236 -10 231 -6 229 6 c 2
 229 18 l 1
 233 35 l 2
 239 55 245 59 274 59 c 0
 403 63 424 84 487 270 c 2
1151 1700 m 2
 954 1559 l 2
 940 1551 926 1542 918 1542 c 0
 916 1542 909 1544 907 1546 c 2
 893 1554 l 2
 883 1560 881 1565 881 1573 c 0
 881 1581 885 1592 895 1602 c 2
 1063 1812 l 2
 1151 1921 1174 1937 1229 1937 c 0
 1272 1937 1313 1903 1313 1868 c 0
 1313 1825 1284 1794 1151 1700 c 2
EndSplineSet
EndChar

StartChar: Zcaron
Encoding: 381 381 177
Width: 1284
GlyphClass: 2
Flags: HMW
HStem: 2 70<411 649> 1341 80<467 1255 610 997>
VStem: 334 63
LayerCount: 2
Fore
SplineSet
1196 244 m 2
 1114 -10 l 1
 1038 -6 991 -4 862 -4 c 2
 621 -2 l 2
 525 0 459 2 434 2 c 0
 387 2 203 -4 166 -8 c 2
 125 -10 l 2
 105 -10 94 -4 94 8 c 0
 94 16 101 27 117 45 c 0
 123 49 131 60 141 78 c 2
 1004 1280 l 2
 1039 1323 1038 1323 1038 1331 c 0
 1038 1339 1036 1341 997 1341 c 2
 541 1341 l 2
 394 1341 378 1334 319 1223 c 0
 299 1186 295 1180 287 1180 c 0
 285 1180 282 1180 272 1184 c 2
 254 1192 l 2
 238 1200 238 1200 238 1206 c 0
 238 1212 240 1221 248 1239 c 0
 266 1280 334 1487 334 1501 c 0
 338 1519 342 1526 352 1526 c 2
 373 1526 l 2
 389 1526 391 1523 397 1509 c 0
 424 1439 469 1421 610 1421 c 2
 1255 1421 l 2
 1300 1421 1309 1417 1309 1403 c 0
 1309 1391 1305 1383 1282 1350 c 2
 426 174 l 2
 412 154 395 134 379 111 c 0
 373 103 369 94 369 88 c 0
 369 74 387 72 528 72 c 0
 770 72 961 92 1012 125 c 0
 1047 145 1100 215 1141 291 c 0
 1145 299 1149 301 1155 301 c 0
 1159 301 1163 301 1167 299 c 2
 1186 293 l 2
 1200 289 1204 287 1204 281 c 0
 1204 277 1204 277 1196 244 c 2
952 1726 m 1
 1217 1929 l 2
 1227 1937 1235 1942 1241 1942 c 0
 1249 1942 1276 1919 1276 1911 c 0
 1276 1907 1272 1898 1262 1888 c 2
 991 1587 l 2
 960 1552 947 1542 920 1542 c 0
 893 1542 876 1556 860 1593 c 2
 723 1892 l 2
 721 1896 719 1901 719 1907 c 0
 719 1917 748 1937 764 1937 c 0
 768 1937 774 1933 784 1923 c 2
 952 1726 l 1
EndSplineSet
EndChar

StartChar: Thorn
Encoding: 222 222 178
Width: 1132
GlyphClass: 2
Flags: HMW
HStem: -12 78<443 454> 311 84<654 737 640 811> 1030 96<600 753> 1348 76<316 345>
VStem: 950 193<677 819 647 853>
LayerCount: 2
Fore
SplineSet
621 1200 m 2
 600 1126 l 1
 803 1118 887 1102 981 1047 c 0
 1077 990 1143 877 1143 762 c 0
 1143 533 923 311 698 311 c 0
 610 311 510 352 508 389 c 0
 508 393 508 395 510 399 c 2
 516 420 l 2
 520 426 526 432 532 432 c 0
 538 432 551 428 565 420 c 0
 592 404 622 395 657 395 c 0
 817 395 950 571 950 782 c 0
 950 923 832 1030 674 1030 c 0
 625 1030 589 1020 569 997 c 0
 557 983 553 973 537 918 c 2
 336 246 l 2
 328 215 322 178 322 147 c 0
 322 102 332 86 365 74 c 0
 388 66 387 66 465 66 c 0
 473 66 483 55 483 47 c 2
 483 43 l 1
 471 8 l 2
 467 -6 460 -12 446 -12 c 0
 440 -12 430 -12 418 -10 c 0
 371 -2 322 0 252 0 c 0
 164 0 88 -2 18 -10 c 2
 -25 -12 l 2
 -41 -12 -49 -6 -49 4 c 0
 -49 8 -49 12 -47 16 c 2
 -35 45 l 2
 -29 57 -22 61 -2 61 c 0
 98 59 125 84 164 219 c 2
 451 1194 l 2
 459 1225 465 1258 465 1276 c 0
 465 1325 432 1344 326 1348 c 0
 308 1348 295 1356 297 1366 c 2
 297 1366 297 1368 299 1372 c 2
 309 1407 l 2
 313 1417 324 1423 340 1423 c 0
 350 1423 365 1423 379 1421 c 0
 438 1415 506 1411 578 1411 c 0
 646 1411 703 1413 756 1419 c 2
 795 1423 l 1
 803 1423 l 2
 819 1425 833 1415 829 1405 c 2
 817 1366 l 2
 811 1348 809 1346 756 1346 c 0
 676 1342 646 1311 621 1200 c 2
EndSplineSet
EndChar

StartChar: Ydieresis
Encoding: 376 376 179
Width: 1359
GlyphClass: 2
Flags: HMW
HStem: -10 68 1354 68 1542 217<775 815 1169 1210>
VStem: 686 217<1634 1676> 1081 217<1634 1676>
LayerCount: 2
Fore
SplineSet
487 270 m 2
 555 477 l 2
 582 559 594 614 594 651 c 0
 594 698 574 772 543 842 c 2
 393 1180 l 2
 323 1340 312 1350 203 1352 c 0
 180 1352 172 1356 172 1368 c 0
 172 1374 172 1376 174 1380 c 2
 178 1403 l 2
 182 1417 189 1421 207 1421 c 0
 227 1421 227 1421 377 1415 c 0
 436 1413 479 1411 483 1411 c 0
 497 1411 610 1417 641 1419 c 0
 659 1421 676 1421 686 1421 c 0
 702 1421 713 1415 711 1403 c 2
 711 1397 l 1
 709 1374 l 2
 707 1362 702 1358 694 1356 c 0
 686 1354 670 1352 639 1350 c 0
 559 1346 528 1334 528 1305 c 0
 528 1295 528 1295 555 1221 c 2
 725 821 l 2
 750 751 754 743 762 743 c 0
 768 743 768 743 838 815 c 2
 1167 1147 l 2
 1226 1206 1274 1278 1274 1309 c 0
 1274 1340 1249 1348 1130 1354 c 0
 1116 1354 1108 1360 1108 1368 c 0
 1108 1370 1108 1374 1110 1382 c 2
 1114 1401 l 2
 1116 1415 1124 1421 1147 1421 c 0
 1165 1421 1206 1419 1274 1415 c 0
 1317 1413 1350 1411 1366 1411 c 0
 1382 1411 1493 1415 1604 1421 c 0
 1618 1421 1620 1419 1620 1407 c 2
 1620 1382 l 2
 1620 1359 1609 1356 1556 1354 c 0
 1478 1348 1466 1339 1372 1245 c 2
 846 717 l 2
 805 674 782 647 776 639 c 0
 770 631 766 620 762 606 c 2
 743 539 l 1
 666 270 l 2
 646 204 637 164 637 133 c 0
 637 86 672 63 760 57 c 0
 795 55 801 53 801 41 c 0
 801 37 799 31 797 25 c 2
 791 12 l 2
 785 -4 774 -10 756 -10 c 0
 752 -10 733 -10 719 -8 c 0
 613 -2 567 0 487 0 c 0
 413 0 397 0 301 -8 c 2
 254 -10 l 2
 236 -10 231 -6 229 6 c 2
 229 18 l 1
 233 35 l 2
 239 55 245 59 274 59 c 0
 403 63 424 84 487 270 c 2
807 1759 m 0
 862 1759 903 1720 903 1667 c 0
 903 1601 845 1542 784 1542 c 0
 731 1542 686 1590 686 1647 c 0
 686 1706 744 1759 807 1759 c 0
1202 1759 m 0
 1257 1759 1298 1720 1298 1667 c 0
 1298 1601 1241 1542 1180 1542 c 0
 1125 1542 1081 1590 1081 1647 c 0
 1081 1706 1136 1759 1202 1759 c 0
EndSplineSet
EndChar

StartChar: adieresis
Encoding: 228 228 180
Width: 944
GlyphClass: 2
Flags: HW
HStem: -35 141<62 241> 723 121 870 41G<809 843> 1128 223<501 542 794 834>
VStem: -4 152<167 183> 420 201<1214 1265> 512 143<36 232> 713 199<1214 1266> 854 39<244 279>
LayerCount: 2
Fore
SplineSet
860 293 m 1xfa80
 897 262 l 1
 893 244 l 2
 887 221 887 221 754 59 c 0
 709 2 643 -35 590 -35 c 0
 543 -35 512 7 512 66 c 0
 512 129 519 156 578 381 c 1
 357 72 231 -35 92 -35 c 0
 33 -35 -4 21 -4 113 c 0
 -4 254 94 440 254 602 c 0
 404 752 565 844 682 844 c 0
 700 844 712 842 745 836 c 1
 758 860 l 2
 778 901 790 911 827 911 c 0
 858 911 870 905 870 889 c 0
 870 883 868 872 864 864 c 0
 747 590 655 284 655 180 c 0
 655 147 668 129 688 129 c 0
 713 129 735 141 772 178 c 0
 803 207 850 267 854 279 c 2
 860 293 l 1xfa80
594 723 m 0
 490 729 344 617 244 455 c 0
 187 363 147 259 147 193 c 0
 147 142 170 106 203 106 c 0
 279 106 397 213 524 397 c 0
 600 506 662 627 662 672 c 0
 662 703 637 721 594 723 c 0
530 1352 m 0
 581 1352 621 1306 621 1247 c 0xfc
 621 1181 571 1128 512 1128 c 0xfa
 459 1128 420 1174 420 1233 c 0xfc
 420 1296 471 1352 530 1352 c 0
823 1352 m 0
 872 1352 911 1306 911 1247 c 0
 911 1181 862 1128 805 1128 c 0
 752 1128 713 1174 713 1235 c 0xf9
 713 1296 764 1352 823 1352 c 0
EndSplineSet
Substitution2: "smcpLowercasetoSmallCapitalslookup subtable" adieresis.smcp
EndChar

StartChar: aacute
Encoding: 225 225 181
Width: 944
GlyphClass: 2
Flags: HMW
HStem: -35 141<62 241> 723 121 870 41G<809 843>
VStem: -4 152<167 183> 512 143<36 232> 854 39<244 279>
LayerCount: 2
Fore
SplineSet
860 293 m 1
 897 262 l 1
 893 244 l 2
 887 221 887 221 754 59 c 0
 709 2 643 -35 590 -35 c 0
 543 -35 512 7 512 66 c 0
 512 129 519 156 578 381 c 1
 357 72 231 -35 92 -35 c 0
 33 -35 -4 21 -4 113 c 0
 -4 254 94 440 254 602 c 0
 404 752 565 844 682 844 c 0
 700 844 712 842 745 836 c 1
 758 860 l 2
 778 901 790 911 827 911 c 0
 858 911 870 905 870 889 c 0
 870 883 868 872 864 864 c 0
 747 590 655 284 655 180 c 0
 655 147 668 129 688 129 c 0
 713 129 735 141 772 178 c 0
 803 207 850 267 854 279 c 2
 860 293 l 1
594 723 m 0
 490 729 344 617 244 455 c 0
 187 363 147 259 147 193 c 0
 147 142 170 106 203 106 c 0
 279 106 397 213 524 397 c 0
 600 506 662 627 662 672 c 0
 662 703 637 721 594 723 c 0
582 1104 m 2
 774 1417 l 2
 835 1513 846 1524 903 1524 c 0
 948 1524 987 1497 987 1468 c 0
 987 1445 963 1407 918 1364 c 2
 627 1075 l 2
 613 1061 600 1055 592 1053 c 0
 590 1053 586 1053 582 1057 c 2
 571 1063 l 2
 567 1065 565 1069 565 1073 c 0
 565 1077 568 1081 582 1104 c 2
EndSplineSet
Substitution2: "smcpLowercasetoSmallCapitalslookup subtable" aacute.smcp
EndChar

StartChar: agrave
Encoding: 224 224 182
Width: 944
GlyphClass: 2
Flags: HMW
HStem: -35 141<62 241> 723 121 870 41G<809 843>
VStem: -4 152<167 183> 512 143<36 232> 854 39<244 279>
LayerCount: 2
Fore
SplineSet
860 293 m 1
 897 262 l 1
 893 244 l 2
 887 221 887 221 754 59 c 0
 709 2 643 -35 590 -35 c 0
 543 -35 512 7 512 66 c 0
 512 132 517 152 578 381 c 1
 357 72 231 -35 92 -35 c 0
 33 -35 -4 21 -4 113 c 0
 -4 254 94 440 254 602 c 0
 404 752 565 844 682 844 c 0
 700 844 712 842 745 836 c 1
 758 860 l 2
 778 901 790 911 827 911 c 0
 858 911 870 905 870 889 c 0
 870 883 868 872 864 864 c 0
 747 590 655 284 655 180 c 0
 655 147 668 129 688 129 c 0
 713 129 735 141 772 178 c 0
 803 207 850 267 854 279 c 2
 860 293 l 1
594 723 m 0
 490 729 344 617 244 455 c 0
 187 363 147 259 147 193 c 0
 147 142 170 106 203 106 c 0
 279 106 397 213 524 397 c 0
 600 506 662 627 662 672 c 0
 662 703 637 721 594 723 c 0
682 1081 m 2
 397 1364 l 2
 352 1407 328 1445 328 1468 c 0
 328 1497 367 1524 412 1524 c 0
 449 1524 475 1512 498 1483 c 0
 504 1477 504 1476 541 1417 c 2
 733 1106 l 2
 749 1079 750 1079 750 1075 c 0
 750 1071 747 1067 743 1065 c 2
 731 1057 l 2
 725 1053 721 1051 721 1051 c 2
 717 1051 705 1061 682 1081 c 2
EndSplineSet
Substitution2: "smcpLowercasetoSmallCapitalslookup subtable" agrave.smcp
EndChar

StartChar: acircumflex
Encoding: 226 226 183
Width: 944
GlyphClass: 2
Flags: HMW
HStem: -35 141<62 241> 723 121 870 41G<809 843>
VStem: -4 152<167 183> 512 143<36 232> 854 39<244 279>
LayerCount: 2
Fore
SplineSet
860 293 m 1
 897 262 l 1
 893 244 l 2
 887 221 887 221 754 59 c 0
 709 2 643 -35 590 -35 c 0
 543 -35 512 7 512 66 c 0
 512 129 519 156 578 381 c 1
 357 72 231 -35 92 -35 c 0
 33 -35 -4 21 -4 113 c 0
 -4 254 94 440 254 602 c 0
 404 752 565 844 682 844 c 0
 700 844 712 842 745 836 c 1
 758 860 l 2
 778 901 790 911 827 911 c 0
 858 911 870 905 870 889 c 0
 870 883 868 872 864 864 c 0
 747 590 655 284 655 180 c 0
 655 147 668 129 688 129 c 0
 713 129 735 141 772 178 c 0
 803 207 850 267 854 279 c 2
 860 293 l 1
594 723 m 0
 490 729 344 617 244 455 c 0
 187 363 147 259 147 193 c 0
 147 142 170 106 203 106 c 0
 279 106 397 213 524 397 c 0
 600 506 662 627 662 672 c 0
 662 703 637 721 594 723 c 0
684 1335 m 1
 524 1159 l 2
 467 1096 417 1053 401 1053 c 0
 389 1053 373 1067 373 1077 c 0
 373 1091 372 1092 532 1309 c 0
 557 1342 579 1376 602 1413 c 2
 635 1464 l 2
 664 1507 682 1524 709 1524 c 0
 752 1524 779 1493 791 1427 c 0
 816 1290 835 1214 866 1126 c 0
 872 1108 877 1089 877 1079 c 0
 877 1063 866 1051 856 1051 c 0
 836 1051 825 1065 772 1165 c 2
 684 1335 l 1
EndSplineSet
Substitution2: "smcpLowercasetoSmallCapitalslookup subtable" acircumflex.smcp
EndChar

StartChar: atilde
Encoding: 227 227 184
Width: 944
GlyphClass: 2
Flags: HMW
HStem: -35 141<62 241> 723 121 870 41G<809 843> 1053 131<719 793> 1229 131<528 536>
VStem: -4 152<167 183> 512 143<36 232> 854 39<244 279>
LayerCount: 2
Fore
SplineSet
860 293 m 1
 897 262 l 1
 893 244 l 2
 887 221 887 221 754 59 c 0
 709 2 643 -35 590 -35 c 0
 543 -35 512 7 512 66 c 0
 512 129 519 156 578 381 c 1
 357 72 231 -35 92 -35 c 0
 33 -35 -4 21 -4 113 c 0
 -4 254 94 440 254 602 c 0
 404 752 565 844 682 844 c 0
 700 844 712 842 745 836 c 1
 758 860 l 2
 778 901 790 911 827 911 c 0
 858 911 870 905 870 889 c 0
 870 883 868 872 864 864 c 0
 747 590 655 284 655 180 c 0
 655 147 668 129 688 129 c 0
 713 129 735 141 772 178 c 0
 803 207 850 267 854 279 c 2
 860 293 l 1
594 723 m 0
 490 729 344 617 244 455 c 0
 187 363 147 259 147 193 c 0
 147 142 170 106 203 106 c 0
 279 106 397 213 524 397 c 0
 600 506 662 627 662 672 c 0
 662 703 637 721 594 723 c 0
557 1360 m 0
 594 1360 594 1360 705 1231 c 0
 725 1204 758 1184 778 1184 c 0
 807 1184 870 1251 909 1327 c 0
 917 1339 924 1346 932 1346 c 0
 946 1346 958 1337 958 1327 c 0
 958 1313 942 1276 905 1204 c 0
 852 1106 792 1053 733 1053 c 0
 704 1053 658 1096 586 1188 c 0
 561 1219 547 1229 524 1229 c 0
 483 1229 446 1186 387 1077 c 0
 383 1067 375 1061 371 1061 c 0
 359 1061 336 1077 336 1085 c 0
 336 1099 360 1157 389 1214 c 0
 438 1306 500 1360 557 1360 c 0
EndSplineSet
Substitution2: "smcpLowercasetoSmallCapitalslookup subtable" atilde.smcp
EndChar

StartChar: aring
Encoding: 229 229 185
Width: 944
GlyphClass: 2
Flags: HW
HStem: -35 141<62 241> 723 121 870 41G<809 843> 1051 90<673 750 673 766> 1430 88<695 771>
VStem: -4 152<167 183> 502 78<1235 1313 1235 1332> 512 143<36 232> 854 39<244 279> 862 78<1257 1337>
LayerCount: 2
Fore
SplineSet
860 293 m 1xfd80
 897 262 l 1
 893 244 l 2
 887 221 887 221 754 59 c 0
 709 2 643 -35 590 -35 c 0
 543 -35 512 7 512 66 c 0
 512 129 519 156 578 381 c 1
 357 72 231 -35 92 -35 c 0
 33 -35 -4 21 -4 113 c 0
 -4 254 94 440 254 602 c 0
 404 752 565 844 682 844 c 0
 700 844 712 842 745 836 c 1
 758 860 l 2
 778 901 790 911 827 911 c 0
 858 911 870 905 870 889 c 0
 870 883 868 872 864 864 c 0
 747 590 655 284 655 180 c 0
 655 147 668 129 688 129 c 0
 713 129 735 141 772 178 c 0
 803 207 850 267 854 279 c 2
 860 293 l 1xfd80
594 723 m 0
 490 729 344 617 244 455 c 0
 187 363 147 259 147 193 c 0
 147 142 170 106 203 106 c 0
 279 106 397 213 524 397 c 0
 600 506 662 627 662 672 c 0
 662 703 637 721 594 723 c 0
739 1518 m 0
 854 1518 940 1426 940 1307 c 0
 940 1174 828 1051 705 1051 c 0
 588 1051 502 1141 502 1264 c 0xfe40
 502 1401 610 1518 739 1518 c 0
735 1430 m 0
 655 1430 580 1354 580 1272 c 0
 580 1198 637 1141 709 1141 c 0
 791 1141 862 1214 862 1300 c 0
 862 1374 807 1430 735 1430 c 0
EndSplineSet
Substitution2: "smcpLowercasetoSmallCapitalslookup subtable" aring.smcp
EndChar

StartChar: ccedilla
Encoding: 231 231 186
Width: 755
GlyphClass: 2
Flags: HMW
HStem: -371 59<257 299 257 331> 838 68<527 581>
VStem: 61 162<242 369 242 432> 369 113<-266 -229> 641 143<780 795>
LayerCount: 2
Fore
SplineSet
373 -33 m 1
 334 -90 l 1
 440 -117 481 -153 481 -223 c 0
 481 -311 395 -371 266 -371 c 0
 180 -371 129 -348 129 -313 c 0
 129 -293 146 -274 166 -274 c 0
 180 -274 180 -274 215 -299 c 0
 227 -307 245 -311 268 -311 c 0
 329 -311 369 -287 369 -246 c 0
 369 -213 334 -180 293 -176 c 0
 285 -176 265 -176 238 -178 c 2
 233 -178 l 2
 225 -178 213 -166 213 -158 c 0
 213 -154 215 -151 223 -143 c 0
 229 -137 236 -131 240 -123 c 2
 309 -33 l 1
 155 -17 61 96 61 268 c 0
 61 596 309 905 571 905 c 0
 694 905 784 850 784 774 c 0
 784 727 756 696 709 696 c 0
 668 696 643 727 641 780 c 0
 641 809 639 817 629 823 c 0
 617 831 592 838 569 838 c 0
 485 838 401 782 340 682 c 0
 268 567 223 426 223 311 c 0
 223 172 291 84 397 84 c 0
 469 84 528 113 594 176 c 1
 629 145 l 1
 555 30 479 -23 373 -33 c 1
EndSplineSet
Substitution2: "smcpLowercasetoSmallCapitalslookup subtable" ccedilla.smcp
EndChar

StartChar: edieresis
Encoding: 235 235 187
Width: 755
GlyphClass: 2
Flags: HW
HStem: -35 117<324 371> 846 59<498 568> 1128 223<408 447 700 740>
VStem: 47 162<228 312 228 346> 326 201<1214 1265> 618 201<1214 1265> 631 141<688 772>
LayerCount: 2
Fore
SplineSet
614 199 m 1xfa
 655 166 l 1
 633 133 l 2
 557 29 434 -35 307 -35 c 0
 143 -35 47 76 47 262 c 0
 47 430 114 610 229 743 c 0
 319 849 434 905 561 905 c 0
 690 905 772 841 772 741 c 0
 772 563 569 449 217 424 c 1
 211 358 209 332 209 293 c 0
 209 164 273 82 375 82 c 0
 453 82 533 117 588 172 c 2
 614 199 l 1xfa
229 473 m 1
 241 475 244 475 258 475 c 0
 315 479 373 492 424 512 c 0
 563 565 631 639 631 737 c 0
 631 807 598 846 539 846 c 0
 418 846 309 715 229 473 c 1
436 1352 m 0
 487 1352 526 1306 526 1247 c 0
 526 1181 477 1128 418 1128 c 0
 365 1128 326 1174 326 1233 c 0
 326 1296 379 1352 436 1352 c 0
729 1352 m 0
 780 1352 819 1306 819 1247 c 0
 819 1181 770 1128 711 1128 c 0
 658 1128 618 1174 618 1233 c 0xfc
 618 1296 672 1352 729 1352 c 0
EndSplineSet
Substitution2: "smcpLowercasetoSmallCapitalslookup subtable" edieresis.smcp
EndChar

StartChar: eacute
Encoding: 233 233 188
Width: 755
GlyphClass: 2
Flags: HMW
HStem: -35 117<324 371> 846 59<498 568>
VStem: 47 162<228 312 228 346> 631 141<688 772>
LayerCount: 2
Fore
SplineSet
614 199 m 1
 655 166 l 1
 633 133 l 2
 557 29 434 -35 307 -35 c 0
 143 -35 47 76 47 262 c 0
 47 430 114 610 229 743 c 0
 319 849 434 905 561 905 c 0
 690 905 772 841 772 741 c 0
 772 563 569 449 217 424 c 1
 211 358 209 332 209 293 c 0
 209 164 273 82 375 82 c 0
 453 82 533 117 588 172 c 2
 614 199 l 1
229 473 m 1
 241 475 244 475 258 475 c 0
 315 479 373 492 424 512 c 0
 563 565 631 639 631 737 c 0
 631 807 598 846 539 846 c 0
 418 846 309 715 229 473 c 1
487 1104 m 2
 680 1417 l 2
 723 1483 723 1483 735 1495 c 0
 753 1513 778 1524 809 1524 c 0
 854 1524 893 1497 893 1468 c 0
 893 1445 868 1407 823 1364 c 2
 532 1075 l 2
 518 1061 506 1055 498 1053 c 0
 496 1053 491 1053 487 1057 c 2
 477 1063 l 2
 473 1065 471 1069 471 1073 c 0
 471 1077 471 1079 487 1104 c 2
EndSplineSet
Substitution2: "smcpLowercasetoSmallCapitalslookup subtable" eacute.smcp
EndChar

StartChar: egrave
Encoding: 232 232 189
Width: 755
GlyphClass: 2
Flags: HMW
HStem: -35 117<324 371> 846 59<498 568>
VStem: 47 162<229 313 229 346> 631 141<689 773>
LayerCount: 2
Fore
SplineSet
614 199 m 1
 655 166 l 1
 633 133 l 2
 557 29 434 -35 307 -35 c 0
 143 -35 47 76 47 262 c 0
 47 430 114 610 229 743 c 0
 321 849 434 905 561 905 c 0
 690 905 772 841 772 741 c 0
 772 563 569 449 217 424 c 1
 211 361 209 332 209 295 c 0
 209 164 273 82 375 82 c 0
 453 82 533 117 588 172 c 2
 614 199 l 1
229 473 m 1
 241 475 244 475 258 475 c 0
 315 479 373 492 424 512 c 0
 563 565 631 639 631 739 c 0
 631 807 598 846 539 846 c 0
 418 846 307 713 229 473 c 1
588 1081 m 2
 303 1364 l 2
 254 1411 231 1445 231 1468 c 0
 231 1497 270 1524 315 1524 c 0
 352 1524 380 1510 403 1483 c 0
 407 1477 407 1476 444 1417 c 2
 639 1106 l 2
 655 1079 655 1079 655 1073 c 0
 655 1071 653 1067 649 1065 c 2
 637 1057 l 2
 633 1053 629 1053 627 1053 c 0
 621 1053 606 1063 588 1081 c 2
EndSplineSet
Substitution2: "smcpLowercasetoSmallCapitalslookup subtable" egrave.smcp
EndChar

StartChar: ecircumflex
Encoding: 234 234 190
Width: 755
GlyphClass: 2
Flags: HMW
HStem: -35 117<324 371> 846 59<498 568>
VStem: 47 162<228 312 228 346> 631 141<688 772>
LayerCount: 2
Fore
SplineSet
614 199 m 1
 655 166 l 1
 633 133 l 2
 557 29 434 -35 307 -35 c 0
 143 -35 47 76 47 262 c 0
 47 430 114 610 229 743 c 0
 319 849 434 905 561 905 c 0
 690 905 772 841 772 741 c 0
 772 563 569 449 217 424 c 1
 211 358 209 332 209 293 c 0
 209 164 273 82 375 82 c 0
 453 82 533 117 588 172 c 2
 614 199 l 1
229 473 m 1
 241 475 244 475 258 475 c 0
 315 479 373 492 424 512 c 0
 563 565 631 639 631 737 c 0
 631 807 598 846 539 846 c 0
 418 846 309 715 229 473 c 1
590 1335 m 1
 430 1159 l 2
 364 1087 323 1051 305 1051 c 0
 295 1051 279 1065 279 1075 c 0
 279 1089 278 1090 438 1309 c 0
 473 1360 508 1411 541 1464 c 0
 570 1507 589 1524 614 1524 c 0
 657 1524 684 1493 696 1427 c 0
 725 1275 735 1235 772 1126 c 0
 778 1108 782 1089 782 1077 c 0
 782 1063 772 1051 760 1051 c 0
 744 1051 727 1073 678 1165 c 2
 590 1335 l 1
EndSplineSet
Substitution2: "smcpLowercasetoSmallCapitalslookup subtable" ecircumflex.smcp
EndChar

